<svg xmlns="http://www.w3.org/2000/svg" viewBox="0 0 696.97814 1170.02626"><defs><style>.a{font-size:21px;font-family:MerriweatherUltraBold;}.ag,.ah,.ak,.an,.b{fill:none;stroke-miterlimit:10;}.ag,.b{stroke:#000;}.b{stroke-width:4px;}.c{fill:#3c6;}.d{fill:#fff;}.e{fill:#f4ae34;}.f{fill:#ff5640;}.g{font-size:20px;font-family:GothamNarrow-Bold, Gotham Narrow;font-weight:700;}.h{letter-spacing:-0.001em;}.i{letter-spacing:-0.04597em;}.j{fill:#a8867b;}.k{fill:#724242;}.l{fill:#492626;}.m{fill:#381616;}.n{fill:#ead9c5;}.o{fill:#c4ae99;}.p{fill:#3a2616;}.q{letter-spacing:-0.046em;}.r{fill:#4861af;}.s{fill:#e9e9e9;}.t{fill:#f3f3f3;}.u{fill:#6f9747;}.v{fill:#af0234;}.w{fill:#ddbf2a;}.x{fill:#eaeaea;}.y{fill:#ffe541;}.z{fill:#58b144;}.aa{fill:#467755;}.ab{fill:#5a966b;}.ac{letter-spacing:-0.051em;}.ad{letter-spacing:-0.01499em;}.ae{fill:#e57a7a;}.af{fill:#9b0000;}.ag{stroke-width:3px;}.ah{stroke:#9b0000;}.ah,.ak,.an{stroke-linecap:round;stroke-width:5px;}.ai{fill:#ffbf80;}.aj{fill:#f7931e;}.ak{stroke:#f7931e;}.al{fill:#99ecff;}.am{fill:#449ead;}.an{stroke:#449ead;}.ao{letter-spacing:-0.08298em;}.ap{letter-spacing:-0.02em;}.aq{letter-spacing:-0.00498em;}.ar{letter-spacing:-0.01501em;}.as{letter-spacing:-0.021em;}</style></defs><text class="a" transform="translate(308.1347 73.83228)">Control</text><rect class="b" x="55.85535" y="119.12154" width="585.26745" height="234.50375" rx="1.90322"/><path class="c" d="M278.95982,225.28684s-19.11524,3.28468-28.84822,17.09523a39.32716,39.32716,0,0,0-6.39928,17.165,39.32088,39.32088,0,0,0-6.39884-17.165c-9.73343-13.81055-28.84867-17.09523-28.84867-17.09523s-3.33415,19.10641,6.39928,32.917S243.71232,275.299,243.71232,275.299s19.11568-3.28468,28.84866-17.09523S278.95982,225.28684,278.95982,225.28684Z"/><circle class="c" cx="243.71233" cy="309.88391" r="15.18197"/><polygon class="d" points="240.331 320.237 232.161 312.065 236.009 308.217 240.331 312.539 251.416 301.456 255.264 305.305 240.331 320.237"/><path class="c" d="M481.65809,225.28684s-19.11524,3.28468-28.84823,17.09523a39.32716,39.32716,0,0,0-6.39928,17.165,39.32075,39.32075,0,0,0-6.39884-17.165c-9.73343-13.81055-28.84867-17.09523-28.84867-17.09523s-3.33415,19.10641,6.39928,32.917S446.41058,275.299,446.41058,275.299s19.11568-3.28468,28.84867-17.09523S481.65809,225.28684,481.65809,225.28684Z"/><circle class="c" cx="446.41059" cy="309.88391" r="15.18197"/><polygon class="d" points="443.03 320.237 434.859 312.065 438.707 308.217 443.03 312.539 454.114 301.456 457.962 305.305 443.03 320.237"/><path class="c" d="M583.00722,225.28684S563.892,228.57152,554.159,242.38207a39.32728,39.32728,0,0,0-6.39928,17.165,39.32075,39.32075,0,0,0-6.39884-17.165c-9.73343-13.81055-28.84867-17.09523-28.84867-17.09523s-3.33414,19.10641,6.39928,32.917S547.75971,275.299,547.75971,275.299s19.11568-3.28468,28.84867-17.09523S583.00722,225.28684,583.00722,225.28684Z"/><circle class="c" cx="547.75973" cy="309.88391" r="15.18197"/><polygon class="d" points="544.379 320.237 536.208 312.065 540.057 308.217 544.379 312.539 555.463 301.456 559.311 305.305 544.379 320.237"/><path class="c" d="M171.30661,254.28757a7.91929,7.91929,0,0,1-4.03486,6.92906l-21.40424,12.10013-3.50659,1.98228-3.5066-1.98228-21.39956-12.10013a7.94439,7.94439,0,1,1,10.82363-10.82832l10.57593,18.70639V221.21341h7.01319v47.88608l10.5805-18.71118a7.9444,7.9444,0,0,1,14.8586,3.89926Z"/><path class="e" d="M162.99364,196.92916v21.10035a20.63045,20.63045,0,0,1-41.26089,0V196.92916l10.31409,13.1894,10.31876-13.1894,10.314,13.1894Z"/><circle class="f" cx="142.3632" cy="309.88391" r="15.18197"/><rect class="d" x="133.16532" y="307.16295" width="18.39567" height="5.44245" transform="translate(-177.424 191.42893) rotate(-45)"/><rect class="d" x="139.64193" y="300.68635" width="5.44245" height="18.39567" transform="translate(-177.424 191.42893) rotate(-45)"/><polygon class="c" points="328.313 275.299 311.566 275.299 328.313 196.929 328.313 275.299"/><polygon class="c" points="345.061 275.299 328.313 275.299 345.061 196.929 345.061 275.299"/><polygon class="c" points="361.809 275.299 345.061 275.299 361.809 196.929 361.809 275.299"/><polygon class="c" points="378.557 275.299 361.809 275.299 378.557 196.929 378.557 275.299"/><circle class="f" cx="345.06146" cy="309.88391" r="15.18197"/><rect class="d" x="335.86388" y="307.16295" width="18.39567" height="5.44245" transform="translate(-118.05497 334.75846) rotate(-45)"/><rect class="d" x="342.34049" y="300.68635" width="5.44245" height="18.39567" transform="translate(-118.05497 334.75846) rotate(-45)"/><text class="g" transform="translate(113.41986 164.68091)">Pla<tspan class="h" x="27.37988" y="0">n</tspan><tspan x="38.31982" y="0">t </tspan><tspan class="i" x="50.05957" y="0">T</tspan><tspan x="60.17969" y="0">ype</tspan></text><rect class="b" x="55.85535" y="372.74558" width="585.26745" height="234.50375" rx="1.90322"/><circle class="c" cx="142.36297" cy="563.50796" r="15.18197"/><polygon class="d" points="138.982 573.861 130.812 565.689 134.66 561.841 138.982 566.163 150.066 555.08 153.915 558.929 138.982 573.861"/><circle class="c" cx="243.71216" cy="563.50796" r="15.18197"/><polygon class="d" points="240.332 573.861 232.16 565.689 236.009 561.841 240.332 566.163 251.415 555.08 255.264 558.929 240.332 573.861"/><circle class="c" cx="547.75973" cy="563.50796" r="15.18197"/><polygon class="d" points="544.379 573.861 536.208 565.689 540.057 561.841 544.379 566.163 555.463 555.08 559.311 558.929 544.379 573.861"/><circle class="f" cx="345.06135" cy="563.50796" r="15.18197"/><rect class="d" x="335.86347" y="560.787" width="18.39567" height="5.44245" transform="translate(-297.39437 409.04293) rotate(-45)"/><rect class="d" x="342.34008" y="554.31039" width="5.44245" height="18.39567" transform="translate(-297.39437 409.04293) rotate(-45)"/><circle class="f" cx="446.41054" cy="563.50796" r="15.18197"/><rect class="d" x="437.21296" y="560.787" width="18.39567" height="5.44245" transform="translate(-267.7098 480.70784) rotate(-45)"/><rect class="d" x="443.68957" y="554.31039" width="5.44245" height="18.39567" transform="translate(-267.7098 480.70784) rotate(-45)"/><path class="j" d="M381.32335,478.37688v50.5462H308.79953v-53.548a12.19074,12.19074,0,0,1,11.76825-4.37233c2.12429.44947,4.21991,1.501,6.35908,1.12393,3.27-.56559,5.54689-4.27815,8.86044-4.17672,2.0811.05807,3.67644,1.58083,5.33658,2.63218a10.15288,10.15288,0,0,0,6.17816,1.31246,8.574,8.574,0,0,1,5.12628,1.08764c1.43567.9354,2.50879,2.37833,4.07511,3.13245a8.876,8.876,0,0,0,5.44528.348c2.44365-.4569,4.996-1.3052,7.47575-.60914,2.21139.62366,3.959,2.43639,6.19232,2.99473A11.93565,11.93565,0,0,0,381.32335,478.37688Z"/><path class="k" d="M381.32335,484.25746v44.66562H308.79953V481.25566a12.19179,12.19179,0,0,1,11.7686-4.37251c2.1243.44964,4.21992,1.501,6.35873,1.13118,3.27035-.57285,5.54724-4.28523,8.86079-4.1838,2.0811.05807,3.67609,1.58083,5.33658,2.63218a10.1999,10.1999,0,0,0,6.17781,1.30521,8.67933,8.67933,0,0,1,5.12628,1.08764c1.436.94247,2.50915,2.37814,4.07511,3.1397a8.82213,8.82213,0,0,0,5.44563.3406c2.4433-.44947,4.996-1.305,7.47575-.60171,2.21139.62366,3.959,2.44347,6.19232,2.99455A11.93218,11.93218,0,0,0,381.32335,484.25746Z"/><path class="l" d="M381.32335,490.13061v38.79247H308.79953V487.1288a12.19172,12.19172,0,0,1,11.7686-4.37233c2.1243.44964,4.21992,1.501,6.35873,1.13119,3.27035-.57285,5.54724-4.28541,8.86079-4.1838,2.0811.06532,3.67609,1.58791,5.33658,2.632a10.15055,10.15055,0,0,0,6.17781,1.31246,8.6821,8.6821,0,0,1,5.12628,1.08764c1.436.94266,2.50915,2.37833,4.07511,3.13971a8.87527,8.87527,0,0,0,5.44563.34077c2.4433-.4569,4.996-1.3052,7.47575-.60914,2.21139.62366,3.959,2.44365,6.19232,2.99473A11.93232,11.93232,0,0,0,381.32335,490.13061Z"/><path class="m" d="M381.32335,496.01119v32.91189H308.79953V493.00921a12.192,12.192,0,0,1,11.7686-4.37216c2.1243.44947,4.21992,1.50082,6.35873,1.131,3.27035-.57267,5.54724-4.28523,8.86079-4.18362,2.0811.05789,3.67609,1.58065,5.33658,2.632a10.153,10.153,0,0,0,6.17781,1.31246,8.67948,8.67948,0,0,1,5.12628,1.08764c1.436.9354,2.50915,2.37815,4.07511,3.13228a8.876,8.876,0,0,0,5.44563.348c2.4433-.45673,4.996-1.305,7.47575-.609,2.21139.62348,3.959,2.44347,6.19232,2.99455A11.93218,11.93218,0,0,0,381.32335,496.01119Z"/><path class="n" d="M584.02181,478.37688v50.5462H511.498v-53.548a12.19074,12.19074,0,0,1,11.76825-4.37233c2.12429.44947,4.21991,1.501,6.35908,1.12393,3.27-.56559,5.54689-4.27815,8.86043-4.17672,2.08111.05807,3.67645,1.58083,5.33659,2.63218a10.15288,10.15288,0,0,0,6.17816,1.31246,8.574,8.574,0,0,1,5.12628,1.08764c1.43567.9354,2.50879,2.37833,4.07511,3.13245a8.876,8.876,0,0,0,5.44527.348c2.44365-.4569,4.996-1.3052,7.47576-.60914,2.21139.62366,3.959,2.43639,6.19232,2.99473A11.93561,11.93561,0,0,0,584.02181,478.37688Z"/><path class="o" d="M584.02145,494.83663v34.08645H511.49764V491.83465a12.19145,12.19145,0,0,1,11.76824-4.37233c2.12465.44964,4.21992,1.501,6.35908,1.12393,3.27-.5656,5.54689-4.278,8.86044-4.17655,2.0811.05807,3.67645,1.58066,5.33694,2.63218a10.15244,10.15244,0,0,0,6.1778,1.31246,8.57265,8.57265,0,0,1,5.12628,1.08764c1.43567.93522,2.5088,2.37815,4.07511,3.13228a8.87488,8.87488,0,0,0,5.44528.348c2.44365-.45673,4.996-1.305,7.47575-.609,2.21175.62348,3.959,2.43622,6.19232,2.99455A11.93327,11.93327,0,0,0,584.02145,494.83663Z"/><path class="n" d="M279.97439,478.37688v50.5462H207.45057v-53.548a12.19074,12.19074,0,0,1,11.76825-4.37233c2.12429.44947,4.21991,1.501,6.35908,1.12393,3.27-.56559,5.54689-4.27815,8.86044-4.17672,2.0811.05807,3.67644,1.58083,5.33658,2.63218a10.15288,10.15288,0,0,0,6.17816,1.31246,8.574,8.574,0,0,1,5.12628,1.08764c1.43567.9354,2.50879,2.37833,4.07511,3.13245a8.876,8.876,0,0,0,5.44528.348c2.44364-.4569,4.996-1.3052,7.47575-.60914,2.21139.62366,3.959,2.43639,6.19232,2.99473A11.93566,11.93566,0,0,0,279.97439,478.37688Z"/><path class="o" d="M279.974,494.83663v34.08645H207.45021V491.83465a12.19145,12.19145,0,0,1,11.76824-4.37233c2.12465.44964,4.21992,1.501,6.35908,1.12393,3.27-.5656,5.54689-4.278,8.86044-4.17655,2.0811.05807,3.67645,1.58066,5.33694,2.63218a10.15247,10.15247,0,0,0,6.17781,1.31246A8.57266,8.57266,0,0,1,251.079,489.442c1.43567.93522,2.50879,2.37815,4.0751,3.13228a8.87488,8.87488,0,0,0,5.44528.348c2.44365-.45673,4.996-1.305,7.47575-.609,2.21175.62348,3.959,2.43622,6.19233,2.99455A11.93323,11.93323,0,0,0,279.974,494.83663Z"/><path class="n" d="M178.62524,478.37688v50.5462H106.10143v-53.548a12.19074,12.19074,0,0,1,11.76825-4.37233c2.12429.44947,4.21991,1.501,6.35907,1.12393,3.27-.56559,5.5469-4.27815,8.86044-4.17672,2.0811.05807,3.67645,1.58083,5.33659,2.63218a10.15288,10.15288,0,0,0,6.17816,1.31246,8.574,8.574,0,0,1,5.12628,1.08764c1.43567.9354,2.50879,2.37833,4.07511,3.13245a8.876,8.876,0,0,0,5.44527.348c2.44365-.4569,4.996-1.3052,7.47575-.60914,2.2114.62366,3.959,2.43639,6.19233,2.99473A11.93561,11.93561,0,0,0,178.62524,478.37688Z"/><path class="o" d="M178.62488,494.83663v34.08645H106.10107V491.83465a12.19144,12.19144,0,0,1,11.76824-4.37233c2.12465.44964,4.21991,1.501,6.35908,1.12393,3.27-.5656,5.54689-4.278,8.86044-4.17655,2.0811.05807,3.67645,1.58066,5.33694,2.63218a10.15242,10.15242,0,0,0,6.1778,1.31246,8.57265,8.57265,0,0,1,5.12628,1.08764c1.43567.93522,2.5088,2.37815,4.07511,3.13228a8.87488,8.87488,0,0,0,5.44528.348c2.44365-.45673,4.996-1.305,7.47575-.609,2.21175.62348,3.959,2.43622,6.19232,2.99455A11.93327,11.93327,0,0,0,178.62488,494.83663Z"/><path class="p" d="M476.96628,478.8483c-2.23335-.55126-3.98093-2.37107-6.19233-2.99473-2.47976-.69606-5.03245.15224-7.47575.60914a8.87717,8.87717,0,0,1-5.44563-.348c-1.566-.75412-2.63908-2.19705-4.07511-3.13245a8.62542,8.62542,0,0,0-5.12628-1.08764,10.15179,10.15179,0,0,1-6.1778-1.31246c-1.66049-1.05135-3.25549-2.57411-5.33659-2.632-3.31354-.10161-5.59044,3.611-8.86079,4.18362-2.13881.37-4.23443-.68154-6.35872-1.131a12.19171,12.19171,0,0,0-11.7686,4.37233v53.548h72.52381v-50.5462A11.93453,11.93453,0,0,1,476.96628,478.8483Z"/><text class="g" transform="translate(113.41986 418.30493)">Soil <tspan class="q" x="37.69922" y="0">T</tspan><tspan x="47.81885" y="0">ype</tspan></text><rect class="b" x="55.85535" y="626.36963" width="585.26745" height="234.50375" rx="1.90322"/><circle class="c" cx="142.36334" cy="817.13201" r="15.18197"/><polygon class="d" points="138.982 827.485 130.812 819.313 134.66 815.465 138.982 819.787 150.067 808.704 153.915 812.553 138.982 827.485"/><circle class="c" cx="345.28092" cy="817.13201" r="15.18197"/><polygon class="d" points="341.901 827.485 333.729 819.313 337.578 815.465 341.901 819.787 352.984 808.704 356.832 812.553 341.901 827.485"/><circle class="c" cx="243.82213" cy="817.13201" r="15.18197"/><polygon class="d" points="240.441 827.485 232.271 819.313 236.119 815.465 240.441 819.787 251.525 808.704 255.373 812.553 240.441 827.485"/><circle class="f" cx="446.73971" cy="817.13201" r="15.18197"/><rect class="d" x="437.54183" y="814.41105" width="18.39567" height="5.44245" transform="translate(-446.95276 555.22515) rotate(-45)"/><rect class="d" x="444.01843" y="807.93444" width="5.44245" height="18.39567" transform="translate(-446.95276 555.22515) rotate(-45)"/><circle class="f" cx="548.19849" cy="817.13201" r="15.18197"/><rect class="d" x="539.00092" y="814.41105" width="18.39567" height="5.44245" transform="translate(-417.23608 626.96756) rotate(-45)"/><rect class="d" x="545.47752" y="807.93444" width="5.44245" height="18.39567" transform="translate(-417.23608 626.96756) rotate(-45)"/><path class="r" d="M469.59569,687.46533H445.10962a5.6143,5.6143,0,0,0-4.27741,1.98044l-4.97113,5.85286v-3.19905H423.22539v3.19905A5.6133,5.6133,0,0,0,417.613,700.911v76.02372a5.61323,5.61323,0,0,0,5.61239,5.61239h46.3703a5.61335,5.61335,0,0,0,5.61238-5.61239v-83.857A5.61341,5.61341,0,0,0,469.59569,687.46533ZM466.168,702.35424a4.123,4.123,0,0,1-2.92638,1.21068H446.84137a4.13315,4.13315,0,0,1,0-8.26629h16.40025a4.133,4.133,0,0,1,2.92638,7.05561Z"/><path class="s" d="M422.90606,687.4668h13.27357a1.60354,1.60354,0,0,1,1.60354,1.60354v3.02758a0,0,0,0,1,0,0H421.30252a0,0,0,0,1,0,0v-3.02758A1.60354,1.60354,0,0,1,422.90606,687.4668Z"/><rect class="t" x="423.40433" y="718.54682" width="46.01241" height="48.38863" rx="1.60354"/><path class="u" d="M469.41531,754.72577v10.6074a1.60311,1.60311,0,0,1-1.60354,1.60353H425.0093a1.60311,1.60311,0,0,1-1.60354-1.60353v-10.6074Z"/><rect x="436.29778" y="738.23228" width="20.22551" height="3.32699"/><rect x="436.29778" y="743.42303" width="20.22551" height="3.32699"/><circle class="v" cx="446.41054" cy="730.50678" r="3.702"/><rect class="w" x="541.62852" y="703.17665" width="13.1424" height="6.57842"/><path class="x" d="M565.48525,736.47274h0a16.68377,16.68377,0,0,1-11.9659-16.00263v-10.715H542.87978l-1.76961,1.51929a2.79871,2.79871,0,0,0-.80379,3.089l1.066,2.90014a12.86925,12.86925,0,0,1,.283,8.12292,29.17176,29.17176,0,0,1-12.11164,16.137,5.58053,5.58053,0,0,0-2.58755,4.67628v30.82893a5.51844,5.51844,0,0,0,5.51844,5.51844H563.9248a5.51844,5.51844,0,0,0,5.51844-5.51844V741.76588A5.51838,5.51838,0,0,0,565.48525,736.47274Z"/><path class="w" d="M534.10131,693.80566v1.70379l-1.00443.59988a27.81,27.81,0,0,1-4.75085,10.12088,1.61429,1.61429,0,0,0-.27886,1.50744h0s3.77413-2.53038,6.48479-8.87291a3.322,3.322,0,0,1,.89414-1.23143l1.25-1.06254v-2.76511Z"/><path class="y" d="M548.94266,687.46533H531.86132v6.10989h0a11,11,0,0,1,9.63842,5.699l2.14633,3.90247h9.10727v-2.69136a1.65421,1.65421,0,0,1,1.65421-1.6542h5.901A11.36565,11.36565,0,0,0,548.94266,687.46533Z"/><polygon class="w" points="531.861 692.962 526.076 691.736 526.076 689.305 531.861 688.078 531.861 692.962"/><path class="d" d="M549.79786,741.68848h14.33019a1.83948,1.83948,0,0,1,1.83948,1.83948v31.85668a1.83948,1.83948,0,0,1-1.83948,1.83948H532.27138a1.83948,1.83948,0,0,1-1.83948-1.83948V761.05444a19.366,19.366,0,0,1,19.366-19.366Z"/><path class="y" d="M565.96785,771.28676v4.096a1.83718,1.83718,0,0,1-1.83948,1.83948H532.26862a1.84082,1.84082,0,0,1-1.83948-1.83948v-10.712a48.22088,48.22088,0,0,0,35.53871,6.616Z"/><path class="z" d="M565.96785,743.529v.8401a44.54472,44.54472,0,0,0-35.53871,17.63448v-.95043a19.36973,19.36973,0,0,1,19.36962-19.36363h14.32961A1.83718,1.83718,0,0,1,565.96785,743.529Z"/><rect class="v" x="537.64979" y="757.30407" width="21.09986" height="5.28025"/><rect class="aa" x="218.3473" y="708.03374" width="50.73001" height="74.51118"/><polygon class="ab" points="267.725 704.846 219.699 704.846 218.347 708.034 269.077 708.034 267.725 704.846"/><rect class="aa" x="219.69937" y="701.46544" width="48.02588" height="3.38016"/><polygon class="d" points="263.406 782.545 224.019 782.545 224.019 726.418 251.823 720.496 263.406 724.773 263.406 782.545"/><polygon class="v" points="263.405 758.629 263.405 782.547 224.02 782.547 224.02 760.583 234.647 764.781 263.405 758.629"/><polygon class="y" points="263.405 724.773 263.405 728.458 251.825 720.494 224.02 730.1 224.02 726.416 251.825 720.494 263.405 724.773"/><rect x="231.23269" y="741.76849" width="24.95925" height="4.02028"/><rect x="231.23269" y="748.08878" width="24.95925" height="4.02028"/><rect class="aa" x="319.69642" y="708.03374" width="50.73001" height="74.51118"/><polygon class="ab" points="369.074 704.846 321.048 704.846 319.696 708.034 370.426 708.034 369.074 704.846"/><rect class="aa" x="321.04848" y="701.46544" width="48.02588" height="3.38016"/><polygon class="d" points="364.755 782.545 325.368 782.545 325.368 726.418 353.172 720.496 364.755 724.773 364.755 782.545"/><polygon class="v" points="364.754 758.629 364.754 782.547 325.369 782.547 325.369 760.583 335.996 764.781 364.754 758.629"/><polygon class="y" points="364.754 724.773 364.754 728.458 353.174 720.494 325.369 730.1 325.369 726.416 353.174 720.494 364.754 724.773"/><rect x="332.5818" y="741.76849" width="24.95925" height="4.02028"/><rect x="332.5818" y="748.08878" width="24.95925" height="4.02028"/><rect class="aa" x="116.99819" y="708.03374" width="50.73001" height="74.51118"/><polygon class="ab" points="166.376 704.846 118.35 704.846 116.998 708.034 167.728 708.034 166.376 704.846"/><rect class="aa" x="118.35026" y="701.46544" width="48.02588" height="3.38016"/><polygon class="d" points="162.057 782.545 122.67 782.545 122.67 726.418 150.474 720.496 162.057 724.773 162.057 782.545"/><polygon class="v" points="162.056 758.629 162.056 782.547 122.67 782.547 122.67 760.583 133.298 764.781 162.056 758.629"/><polygon class="y" points="162.056 724.773 162.056 728.458 150.476 720.494 122.67 730.1 122.67 726.416 150.476 720.494 162.056 724.773"/><rect x="129.88357" y="741.76849" width="24.95925" height="4.02028"/><rect x="129.88357" y="748.08878" width="24.95925" height="4.02028"/><text class="g" transform="translate(113.42035 671.92896)"><tspan class="ac">W</tspan><tspan x="18.27979" y="0">eed </tspan><tspan class="ad" x="55.79883" y="0">C</tspan><tspan x="67.87891" y="0">o</tspan><tspan class="h" x="79.41895" y="0">n</tspan><tspan x="90.35889" y="0">t</tspan><tspan class="ad" x="97.61865" y="0">r</tspan><tspan x="104.65869" y="0">ol</tspan></text><rect class="b" x="55.85535" y="879.99368" width="585.26745" height="234.50375" rx="1.90322"/><circle class="c" cx="345.06138" cy="1070.75606" r="15.18197"/><polygon class="d" points="341.681 1081.109 333.51 1072.937 337.358 1069.089 341.681 1073.411 352.765 1062.328 356.613 1066.177 341.681 1081.109"/><circle class="c" cx="446.41047" cy="1070.75606" r="15.18197"/><polygon class="d" points="443.03 1081.109 434.859 1072.937 438.707 1069.089 443.03 1073.411 454.114 1062.328 457.962 1066.177 443.03 1081.109"/><circle class="c" cx="243.71229" cy="1070.75606" r="15.18197"/><polygon class="d" points="240.332 1081.109 232.161 1072.937 236.009 1069.089 240.332 1073.411 251.415 1062.328 255.263 1066.177 240.332 1081.109"/><circle class="f" cx="142.3632" cy="1070.75606" r="15.18197"/><rect class="d" x="133.16532" y="1068.0351" width="18.39567" height="5.44245" transform="translate(-715.44186 414.28322) rotate(-45)"/><rect class="d" x="139.64193" y="1061.55849" width="5.44245" height="18.39567" transform="translate(-715.44186 414.28322) rotate(-45)"/><circle class="f" cx="547.75956" cy="1070.75606" r="15.18197"/><rect class="d" x="538.56198" y="1068.0351" width="18.39567" height="5.44245" transform="translate(-596.70392 700.94195) rotate(-45)"/><rect class="d" x="545.03859" y="1061.55849" width="5.44245" height="18.39567" transform="translate(-596.70392 700.94195) rotate(-45)"/><path class="ae" d="M555.109,1005.71555V955.54919a7.34935,7.34935,0,0,0-7.34937-7.34938h0a7.34936,7.34936,0,0,0-7.34938,7.34938v50.16636a16.11524,16.11524,0,1,0,14.69875,0Z"/><circle class="af" cx="547.75956" cy="1020.05593" r="9.62904"/><line class="ag" x1="547.75956" y1="955.54919" x2="563.87488" y2="955.54919"/><line class="ag" x1="547.75956" y1="968.09078" x2="563.87488" y2="968.09078"/><line class="ag" x1="547.75956" y1="980.63237" x2="563.87488" y2="980.63237"/><line class="ag" x1="547.75956" y1="993.17396" x2="563.87488" y2="993.17396"/><line class="ah" x1="547.75956" y1="1020.05593" x2="547.75956" y2="955.54919"/><path class="ai" d="M352.41078,1005.71555V955.54919a7.34936,7.34936,0,0,0-7.34938-7.34938h0a7.34935,7.34935,0,0,0-7.34937,7.34938v50.16636a16.11524,16.11524,0,1,0,14.69875,0Z"/><circle class="aj" cx="345.06131" cy="1020.05593" r="9.62904"/><line class="ag" x1="345.0614" y1="955.54919" x2="361.17664" y2="955.54919"/><line class="ag" x1="345.0614" y1="968.09078" x2="361.17664" y2="968.09078"/><line class="ag" x1="345.0614" y1="980.63237" x2="361.17664" y2="980.63237"/><line class="ag" x1="345.0614" y1="993.17396" x2="361.17664" y2="993.17396"/><line class="ak" x1="345.06131" y1="1020.05593" x2="345.06131" y2="968.09078"/><path class="ai" d="M251.06165,1005.71555V955.54919a7.34935,7.34935,0,0,0-7.34937-7.34938h0a7.34936,7.34936,0,0,0-7.34938,7.34938v50.16636a16.11524,16.11524,0,1,0,14.69875,0Z"/><circle class="aj" cx="243.71219" cy="1020.05593" r="9.62904"/><line class="ag" x1="243.71228" y1="955.54919" x2="259.82751" y2="955.54919"/><line class="ag" x1="243.71228" y1="968.09078" x2="259.82751" y2="968.09078"/><line class="ag" x1="243.71228" y1="980.63237" x2="259.82751" y2="980.63237"/><line class="ag" x1="243.71228" y1="993.17396" x2="259.82751" y2="993.17396"/><line class="ak" x1="243.71219" y1="1020.05593" x2="243.71219" y2="968.09078"/><path class="ai" d="M453.7599,1005.71555V955.54919a7.34935,7.34935,0,0,0-7.34937-7.34938h0a7.34936,7.34936,0,0,0-7.34938,7.34938v50.16636a16.11524,16.11524,0,1,0,14.69875,0Z"/><circle class="aj" cx="446.41044" cy="1020.05593" r="9.62904"/><line class="ag" x1="446.41053" y1="955.54919" x2="462.52576" y2="955.54919"/><line class="ag" x1="446.41053" y1="968.09078" x2="462.52576" y2="968.09078"/><line class="ag" x1="446.41053" y1="980.63237" x2="462.52576" y2="980.63237"/><line class="ag" x1="446.41053" y1="993.17396" x2="462.52576" y2="993.17396"/><line class="ak" x1="446.41044" y1="1020.05593" x2="446.41044" y2="968.09078"/><path class="al" d="M149.71253,1005.71555V955.54919a7.34936,7.34936,0,0,0-7.34938-7.34938h0a7.34935,7.34935,0,0,0-7.34937,7.34938v50.16636a16.11524,16.11524,0,1,0,14.69875,0Z"/><circle class="am" cx="142.36307" cy="1020.05593" r="9.62904"/><line class="ag" x1="142.36307" y1="955.54919" x2="158.47839" y2="955.54919"/><line class="ag" x1="142.36307" y1="968.09078" x2="158.47839" y2="968.09078"/><line class="ag" x1="142.36307" y1="980.63237" x2="158.47839" y2="980.63237"/><line class="ag" x1="142.36307" y1="993.17396" x2="158.47839" y2="993.17396"/><line class="an" x1="142.36307" y1="1020.05593" x2="142.36307" y2="993.17396"/><text class="g" transform="translate(113.42035 925.55298)"><tspan class="ao">T</tspan><tspan x="9.37988" y="0">empe</tspan><tspan class="ap" x="59.13867" y="0">r</tspan><tspan class="aq" x="66.07861" y="0">a</tspan><tspan x="76.33887" y="0">tu</tspan><tspan class="ar" x="94.55859" y="0">r</tspan><tspan x="101.59814" y="0">e</tspan><tspan class="as" x="112.25781" y="0">/</tspan><tspan x="121.11768" y="0">Sunlig</tspan><tspan class="h" x="176.43701" y="0">h</tspan><tspan x="187.37695" y="0">t</tspan></text></svg>