<svg xmlns="http://www.w3.org/2000/svg" viewBox="0 0 1027.4565 437.32327"><defs><style>.a{font-size:21px;font-family:MerriweatherUltraBold;}.b{fill:#f2f2f2;}.c{font-size:20px;font-family:GothamNarrow-Bold, Gotham Narrow;font-weight:700;}.d{letter-spacing:-0.01401em;}.e{fill:#99f;}.f{fill:#ffda71;}.g,.h{fill:none;stroke:#000;stroke-miterlimit:10;}.g{stroke-width:2.5px;}.h{stroke-width:4px;}.i{fill:#c4c4c4;}.j{fill:#ffc200;}.k{fill:#66c;}</style></defs><text class="a" transform="translate(341.01645 48.21739)">Completely Randomized Design</text><circle class="b" cx="513.72825" cy="274.41216" r="117.12079"/><text class="c" transform="translate(458.28903 222.82646)">Randomi<tspan class="d" x="79.17969" y="0">z</tspan><tspan x="88.49902" y="0">ed</tspan></text><polygon class="e" points="440.626 270.911 463.987 243.712 495.514 247.072 512.617 278.585 489.256 305.784 457.729 302.424 440.626 270.911"/><polygon class="f" points="517.063 308.319 544.586 331.299 575.129 322.791 586.807 288.891 559.284 265.911 528.741 274.42 517.063 308.319"/><polygon class="g" points="440.626 270.911 463.987 243.712 495.514 247.072 512.617 278.585 489.256 305.784 457.729 302.424 440.626 270.911"/><polyline class="g" points="528.741 274.42 556.264 297.399 544.586 331.299"/><polygon class="g" points="517.063 308.319 544.586 331.299 575.129 322.791 586.807 288.891 559.284 265.911 528.741 274.42 517.063 308.319"/><line class="g" x1="556.26404" y1="297.39921" x2="586.807" y2="288.89098"/><ellipse cx="574.72196" cy="300.88627" rx="4.04226" ry="2.34139" transform="translate(-41.91476 502.37331) rotate(-45.72846)"/><path d="M562.52232,310.96683a6.29608,6.29608,0,0,1,4.00206-4.08192c1.75223-.48277,2.80749.55939,2.35138,2.33147a6.30128,6.30128,0,0,1-4.00209,4.08185C563.11823,313.78187,562.06623,312.73883,562.52232,310.96683Z"/><ellipse cx="556.67287" cy="319.29776" rx="4.04225" ry="2.34138" transform="translate(-60.5481 495.00779) rotate(-45.72838)"/><ellipse cx="560.39586" cy="304.8333" rx="4.04225" ry="2.34139" transform="translate(-49.06649 493.30743) rotate(-45.72849)"/><ellipse cx="570.99898" cy="315.35073" rx="4.04225" ry="2.34139" transform="translate(-53.39639 504.07365) rotate(-45.72834)"/><ellipse cx="559.59618" cy="274.41372" rx="2.34139" ry="4.04225" transform="translate(153.01634 746.79451) rotate(-75.40363)"/><path d="M554.60452,282.54646c-1.30419-1.27868-.94539-2.71777.80727-3.21137a6.30655,6.30655,0,0,1,5.53614,1.42491c1.30654,1.281.94213,2.71868-.80734,3.21137A6.29621,6.29621,0,0,1,554.60452,282.54646Z"/><ellipse cx="555.95543" cy="288.89603" rx="2.34139" ry="4.04225" transform="translate(136.27757 754.10335) rotate(-75.40355)"/><ellipse cx="536.66415" cy="302.85672" rx="2.34139" ry="4.04225" transform="translate(-61.1661 153.42583) rotate(-15.40359)"/><polyline class="g" points="457.729 302.424 481.09 275.224 463.987 243.712"/><line class="g" x1="481.09014" y1="275.22433" x2="512.6174" y2="278.58499"/><ellipse cx="498.72148" cy="268.74434" rx="2.34139" ry="4.04226" transform="translate(-12.89169 512.05195) rotate(-53.75308)"/><path d="M485.02793,260.81113a6.2961,6.2961,0,0,0,4.61981,3.3669c1.80781.18752,2.677-1.01422,1.93518-2.687a6.30128,6.30128,0,0,0-4.61981-3.36682C485.152,257.93638,484.28617,259.13847,485.02793,260.81113Z"/><ellipse cx="477.88604" cy="253.55759" rx="2.34138" ry="4.04225" transform="translate(-9.15977 489.04198) rotate(-53.75315)"/><ellipse cx="483.9409" cy="267.21116" rx="2.34139" ry="4.04225" transform="translate(-17.6967 499.50476) rotate(-53.75304)"/><ellipse cx="492.66663" cy="255.09077" rx="2.34139" ry="4.04225" transform="translate(-4.35474 501.58918) rotate(-53.75319)"/><ellipse cx="488.16315" cy="297.3469" rx="4.04225" ry="2.34139" transform="translate(-78.83682 225.03175) rotate(-24.07791)"/><path d="M481.9,290.14754c-1.07574,1.476-.48478,2.83638,1.32525,3.03451a6.30651,6.30651,0,0,0,5.22578-2.31741c1.07768-1.47871.48141-2.83673-1.32531-3.0345A6.29618,6.29618,0,0,0,481.9,290.14754Z"/><ellipse cx="482.18647" cy="283.66217" rx="4.04225" ry="2.34139" transform="translate(-73.77385 221.40345) rotate(-24.07799)"/><ellipse cx="460.85899" cy="273.07005" rx="4.04225" ry="2.34139" transform="translate(141.69695 703.29541) rotate(-84.07795)"/><path class="g" d="M587.85284,323.79256a12.38456,12.38456,0,0,1-13.43861,11.232"/><path class="g" d="M595.74371,324.49832a20.30693,20.30693,0,0,1-22.03524,18.41715"/><path class="g" d="M432.02149,278.31569a12.38457,12.38457,0,0,1,2.693-17.30616"/><path class="g" d="M425.62481,282.9897a20.30694,20.30694,0,0,1,4.41562-28.37685"/><line class="h" x1="287.22445" y1="274.41221" x2="386.56088" y2="274.41221"/><polygon points="384.518 281.393 396.607 274.412 384.518 267.431 384.518 281.393"/><line class="h" x1="630.84897" y1="274.41221" x2="730.18539" y2="274.41221"/><polygon points="728.143 281.393 740.232 274.412 728.143 267.431 728.143 281.393"/><polygon class="i" points="97.264 141.415 97.264 179.275 78.344 167.045 59.414 179.275 59.414 141.415 78.344 153.635 97.264 141.415"/><polygon class="i" points="97.267 198.445 97.267 236.305 78.347 224.075 59.417 236.305 59.417 198.445 78.347 210.665 97.267 198.445"/><polygon class="i" points="211.337 198.447 211.337 236.308 192.417 224.078 173.487 236.308 173.487 198.447 192.417 210.668 211.337 198.447"/><polygon class="i" points="154.301 141.41 154.301 179.27 135.381 167.04 116.451 179.27 116.451 141.41 135.381 153.63 154.301 141.41"/><polygon class="i" points="211.337 255.483 211.337 293.343 192.417 281.114 173.487 293.343 173.487 255.483 192.417 267.704 211.337 255.483"/><polygon class="i" points="211.337 312.514 211.337 350.374 192.417 338.144 173.487 350.374 173.487 312.514 192.417 324.734 211.337 312.514"/><polygon class="i" points="268.366 369.549 268.366 407.409 249.446 395.179 230.516 407.409 230.516 369.549 249.446 381.769 268.366 369.549"/><polygon class="i" points="154.297 369.549 154.297 407.409 135.377 395.179 116.447 407.409 116.447 369.549 135.377 381.769 154.297 369.549"/><polygon class="i" points="268.366 312.514 268.366 350.374 249.446 338.144 230.516 350.374 230.516 312.514 249.446 324.734 268.366 312.514"/><polygon class="i" points="268.366 198.445 268.366 236.305 249.446 224.075 230.516 236.305 230.516 198.445 249.446 210.665 268.366 198.445"/><polygon class="i" points="154.299 255.482 154.299 293.342 135.38 281.112 116.449 293.342 116.449 255.482 135.38 267.702 154.299 255.482"/><polygon class="i" points="97.262 312.514 97.262 350.374 78.342 338.144 59.412 350.374 59.412 312.514 78.342 324.734 97.262 312.514"/><path class="i" d="M135.37445,200.70159h0a6.77307,6.77307,0,0,1,11.79161,4.88424v0h0a6.77308,6.77308,0,0,1,4.88425,11.79161h0l0,0a6.77308,6.77308,0,0,1-4.88425,11.79161h0v0a6.77307,6.77307,0,0,1-11.79161,4.88424h0a6.77307,6.77307,0,0,1-11.79161-4.88424v0h0a6.77307,6.77307,0,0,1-4.88424-11.79161v0h0a6.77307,6.77307,0,0,1,4.88424-11.79161h0v0a6.77307,6.77307,0,0,1,11.79161-4.88424Z"/><path class="i" d="M78.33909,257.737v0a6.77308,6.77308,0,0,1,11.79162,4.88425v0h0A6.77307,6.77307,0,0,1,95.015,274.41281h0a6.77308,6.77308,0,0,1-4.88425,11.79162h0v0a6.77308,6.77308,0,0,1-11.79162,4.88424h0a6.77308,6.77308,0,0,1-11.79162-4.88424v0h0a6.77308,6.77308,0,0,1-4.88425-11.79162h0a6.77307,6.77307,0,0,1,4.88425-11.79161h0v0a6.77308,6.77308,0,0,1,11.79162-4.88425Z"/><path class="i" d="M135.37378,314.77164v0a6.77308,6.77308,0,0,1,11.79162,4.88425v0h0a6.77307,6.77307,0,0,1,4.88424,11.79161h0v0a6.77307,6.77307,0,0,1-4.88424,11.79161h0v0a6.77308,6.77308,0,0,1-11.79162,4.88424h0a6.77307,6.77307,0,0,1-11.79161-4.88424v0h0a6.77308,6.77308,0,0,1-4.88425-11.79161l0,0h0a6.77308,6.77308,0,0,1,4.88425-11.79161h0v0a6.77308,6.77308,0,0,1,11.79161-4.88425Z"/><path class="i" d="M78.33909,371.80633v0a6.77308,6.77308,0,0,1,11.79162,4.88425v0h0A6.77307,6.77307,0,0,1,95.015,388.48219h0v0a6.77307,6.77307,0,0,1-4.88425,11.79161h0v0a6.77308,6.77308,0,0,1-11.79162,4.88424h0a6.77308,6.77308,0,0,1-11.79162-4.88424v0h0a6.77307,6.77307,0,0,1-4.88425-11.79161v0h0a6.77307,6.77307,0,0,1,4.88425-11.79161h0v0a6.77308,6.77308,0,0,1,11.79162-4.88425Z"/><path class="i" d="M192.4098,371.80633l0,0a6.77308,6.77308,0,0,1,11.79161,4.88425v0h0a6.77307,6.77307,0,0,1,4.88424,11.79161h0v0a6.77307,6.77307,0,0,1-4.88424,11.79161h0v0a6.77307,6.77307,0,0,1-11.79161,4.88424h0a6.77307,6.77307,0,0,1-11.79161-4.88424v0h0a6.77308,6.77308,0,0,1-4.88425-11.79161l0,0h0a6.77308,6.77308,0,0,1,4.88425-11.79161h0v0a6.77308,6.77308,0,0,1,11.79161-4.88425Z"/><path class="i" d="M192.40847,143.66756h0a6.77307,6.77307,0,0,1,11.79161,4.88425h0a6.77308,6.77308,0,0,1,4.88424,11.79162h0a6.77308,6.77308,0,0,1-4.88424,11.79162h0v0a6.77308,6.77308,0,0,1-11.79161,4.88425h0a6.77308,6.77308,0,0,1-11.79161-4.88425v0h0a6.77308,6.77308,0,0,1-4.88425-11.79162h0a6.77308,6.77308,0,0,1,4.88425-11.79162h0a6.77307,6.77307,0,0,1,11.79161-4.88425Z"/><polygon class="i" points="268.366 255.483 268.366 293.343 249.446 281.114 230.516 293.343 230.516 255.483 249.446 267.704 268.366 255.483"/><polygon class="i" points="268.366 141.417 268.366 179.277 249.446 167.047 230.516 179.277 230.516 141.417 249.446 153.637 268.366 141.417"/><polygon class="j" points="796.942 141.415 796.942 179.275 778.022 167.045 759.091 179.275 759.091 141.415 778.022 153.635 796.942 141.415"/><polygon class="k" points="796.945 198.445 796.945 236.305 778.025 224.075 759.095 236.305 759.095 198.445 778.025 210.665 796.945 198.445"/><polygon class="j" points="911.014 198.447 911.014 236.308 892.095 224.078 873.164 236.308 873.164 198.447 892.095 210.668 911.014 198.447"/><polygon class="k" points="853.979 141.41 853.979 179.27 835.059 167.04 816.129 179.27 816.129 141.41 835.059 153.63 853.979 141.41"/><polygon class="k" points="911.014 255.483 911.014 293.343 892.095 281.114 873.164 293.343 873.164 255.483 892.095 267.704 911.014 255.483"/><polygon class="k" points="968.044 369.549 968.044 407.409 949.124 395.179 930.194 407.409 930.194 369.549 949.124 381.769 968.044 369.549"/><polygon class="j" points="853.975 369.549 853.975 407.409 835.055 395.179 816.125 407.409 816.125 369.549 835.055 381.769 853.975 369.549"/><polygon class="j" points="968.044 312.514 968.044 350.374 949.124 338.144 930.194 350.374 930.194 312.514 949.124 324.734 968.044 312.514"/><polygon class="k" points="968.044 198.445 968.044 236.305 949.124 224.075 930.194 236.305 930.194 198.445 949.124 210.665 968.044 198.445"/><polygon class="k" points="853.977 255.482 853.977 293.342 835.057 281.112 816.127 293.342 816.127 255.482 835.057 267.702 853.977 255.482"/><polygon class="k" points="796.94 312.514 796.94 350.374 778.02 338.144 759.09 350.374 759.09 312.514 778.02 324.734 796.94 312.514"/><path class="j" d="M835.05229,200.70159h0a6.77307,6.77307,0,0,1,11.79161,4.88424v0h0a6.77308,6.77308,0,0,1,4.88425,11.79161h0l0,0a6.77308,6.77308,0,0,1-4.88425,11.79161h0v0a6.77307,6.77307,0,0,1-11.79161,4.88424h0a6.77308,6.77308,0,0,1-11.79162-4.88424v0h0a6.77307,6.77307,0,0,1-4.88424-11.79161v0h0a6.77307,6.77307,0,0,1,4.88424-11.79161h0v0a6.77308,6.77308,0,0,1,11.79162-4.88424Z"/><path class="j" d="M778.01693,257.737v0a6.77308,6.77308,0,0,1,11.79162,4.88425v0h0a6.77307,6.77307,0,0,1,4.88424,11.79161h0a6.77308,6.77308,0,0,1-4.88424,11.79162h0v0a6.77308,6.77308,0,0,1-11.79162,4.88424h0a6.77307,6.77307,0,0,1-11.79161-4.88424v0h0a6.77308,6.77308,0,0,1-4.88425-11.79162h0a6.77308,6.77308,0,0,1,4.88425-11.79161h0v0a6.77308,6.77308,0,0,1,11.79161-4.88425Z"/><path class="k" d="M835.05162,314.77164l0,0a6.77308,6.77308,0,0,1,11.79161,4.88425v0h0a6.77307,6.77307,0,0,1,4.88424,11.79161h0v0a6.77307,6.77307,0,0,1-4.88424,11.79161h0v0a6.77307,6.77307,0,0,1-11.79161,4.88424h0A6.77307,6.77307,0,0,1,823.26,343.23916v0h0a6.77308,6.77308,0,0,1-4.88425-11.79161l0,0h0A6.77308,6.77308,0,0,1,823.26,319.65589h0v0a6.77308,6.77308,0,0,1,11.79161-4.88425Z"/><path class="k" d="M778.01693,371.80633v0a6.77308,6.77308,0,0,1,11.79162,4.88425v0h0a6.77307,6.77307,0,0,1,4.88424,11.79161h0v0a6.77307,6.77307,0,0,1-4.88424,11.79161h0v0a6.77308,6.77308,0,0,1-11.79162,4.88424h0a6.77307,6.77307,0,0,1-11.79161-4.88424v0h0a6.77308,6.77308,0,0,1-4.88425-11.79161l0,0h0a6.77308,6.77308,0,0,1,4.88425-11.79161h0v0a6.77308,6.77308,0,0,1,11.79161-4.88425Z"/><path class="j" d="M892.08764,371.80633l0,0a6.77308,6.77308,0,0,1,11.79161,4.88425v0h0a6.77307,6.77307,0,0,1,4.88424,11.79161h0v0a6.77307,6.77307,0,0,1-4.88424,11.79161h0v0a6.77307,6.77307,0,0,1-11.79161,4.88424h0a6.77307,6.77307,0,0,1-11.79161-4.88424v0h0a6.77308,6.77308,0,0,1-4.88425-11.79161l0,0h0a6.77308,6.77308,0,0,1,4.88425-11.79161h0v0a6.77308,6.77308,0,0,1,11.79161-4.88425Z"/><path class="j" d="M892.08631,314.77164l0,0a6.77308,6.77308,0,0,1,11.79161,4.88425v0h0a6.77307,6.77307,0,0,1,4.88424,11.79161h0v0a6.77307,6.77307,0,0,1-4.88424,11.79161h0v0a6.77307,6.77307,0,0,1-11.79161,4.88424h0a6.77307,6.77307,0,0,1-11.79161-4.88424v0h0a6.77308,6.77308,0,0,1-4.88425-11.79161l0,0h0a6.77308,6.77308,0,0,1,4.88425-11.79161h0v0a6.77308,6.77308,0,0,1,11.79161-4.88425Z"/><path class="j" d="M892.08631,143.66756h0a6.77307,6.77307,0,0,1,11.79161,4.88425h0a6.77308,6.77308,0,0,1,4.88424,11.79162h0a6.77308,6.77308,0,0,1-4.88424,11.79162h0v0a6.77308,6.77308,0,0,1-11.79161,4.88425h0a6.77308,6.77308,0,0,1-11.79161-4.88425v0h0a6.77308,6.77308,0,0,1-4.88425-11.79162h0a6.77308,6.77308,0,0,1,4.88425-11.79162h0a6.77307,6.77307,0,0,1,11.79161-4.88425Z"/><polygon class="k" points="968.044 255.483 968.044 293.343 949.124 281.114 930.194 293.343 930.194 255.483 949.124 267.704 968.044 255.483"/><polygon class="j" points="968.044 141.417 968.044 179.277 949.124 167.047 930.194 179.277 930.194 141.417 949.124 153.637 968.044 141.417"/></svg>