<svg xmlns="http://www.w3.org/2000/svg" xmlns:xlink="http://www.w3.org/1999/xlink" viewBox="0 0 1168.23645 1170.02626"><defs><style>.a{fill:url(#a);}.b{fill:url(#b);}.c{fill:url(#c);}.d{fill:#60e298;}.e,.h{font-size:29px;}.bf,.bg,.bi,.bk,.e,.i,.l,.m{font-family:GothamNarrow-Medium, Gotham Narrow;font-weight:500;}.aa,.ab,.ac,.ae,.af,.ag,.ai,.aj,.ak,.am,.an,.ao,.aq,.ar,.as,.ay,.f,.n,.o,.p,.q,.r,.s,.t,.u,.v,.w,.x,.y{fill:none;}.ax,.ay,.bb,.bc,.f,.n,.o,.p,.q,.r,.s,.t,.u,.v{stroke:#000;}.aa,.ab,.ac,.ae,.af,.ag,.ai,.aj,.ak,.am,.an,.ao,.aq,.ar,.as,.ax,.bb,.bc,.f,.n,.o,.p,.q,.r,.s,.t,.u,.v,.w,.x,.y{stroke-miterlimit:10;}.aa,.ab,.ac,.ae,.af,.ag,.ai,.aj,.ak,.am,.an,.ao,.aq,.ar,.as,.ax,.ay,.bb,.bc,.f,.n,.o,.p,.q,.r,.s,.t,.u,.v,.w,.x,.y{stroke-width:4px;}.g{fill:#75bbef;}.h{font-family:GothamNarrow-Book, Gotham Narrow;}.j{letter-spacing:-0.00998em;}.k{letter-spacing:-0.02199em;}.aw,.l{letter-spacing:-0.00002em;}.m{letter-spacing:-0.00599em;}.n{stroke-dasharray:13.03875 13.03875;}.o{stroke-dasharray:11.63455 11.63455;}.p{stroke-dasharray:11.70839 11.70839;}.q{stroke-dasharray:12.25193 12.25193;}.r{stroke-dasharray:12.04097 12.04097;}.s{stroke-dasharray:11.8802 11.8802;}.t{stroke-dasharray:11.82844 11.82844;}.u{stroke-dasharray:11.81999 11.81999;}.v{stroke-dasharray:12.20222 12.20222;}.w{stroke:url(#d);}.ab,.aj,.an,.x{stroke-dasharray:12.11064 12.11064;}.x{stroke:url(#e);}.y{stroke:url(#f);}.z{fill:url(#g);}.aa{stroke:url(#h);}.ab{stroke:url(#i);}.ac{stroke:url(#j);}.ad{fill:url(#k);}.ae,.af{stroke:url(#l);}.af,.ar{stroke-dasharray:11.52492 11.52492;}.ag{stroke:url(#n);}.ah{fill:url(#l);}.ai{stroke:url(#p);}.aj{stroke:url(#q);}.ak{stroke:url(#r);}.al{fill:url(#s);}.am{stroke:url(#t);}.an{stroke:url(#u);}.ao{stroke:url(#v);}.ap{fill:url(#w);}.aq,.ar{stroke:url(#x);}.as{stroke:url(#z);}.at{fill:url(#x);}.au{font-size:21px;font-family:MerriweatherUltraBold;}.av{letter-spacing:-0.00498em;}.ax{fill:#e8e8e8;}.ay{stroke-linejoin:round;}.az{letter-spacing:-0.013em;}.ba{letter-spacing:-0.01298em;}.bb{fill:#ede5dd;}.bc{fill:#ead9c5;}.bd{fill:#3c6;}.be{letter-spacing:-0.06898em;}.bf{letter-spacing:-0.02701em;}.bg{letter-spacing:0.00002em;}.bh{fill:#967900;}.bi{letter-spacing:-0.00298em;}.bj{fill:#d3af00;}.bk{letter-spacing:-0.00601em;}.bl{fill:#ffda00;}</style><linearGradient id="a" x1="940.35464" y1="1031.73773" x2="940.35464" y2="123.85912" gradientUnits="userSpaceOnUse"><stop offset="0" stop-color="#fff" stop-opacity="0"/><stop offset="1" stop-color="#f2f2f2"/></linearGradient><linearGradient id="b" x1="584.11823" y1="1031.73773" x2="584.11823" y2="123.85912" gradientUnits="userSpaceOnUse"><stop offset="0" stop-color="#fff" stop-opacity="0"/><stop offset="1" stop-color="#e6e6e6"/></linearGradient><linearGradient id="c" x1="227.88181" y1="1031.73773" x2="227.88181" y2="123.85912" xlink:href="#a"/><linearGradient id="d" x1="664.51503" y1="868.89844" x2="835.03117" y2="868.89844" gradientUnits="userSpaceOnUse"><stop offset="0"/><stop offset="0.91037" stop-color="#cbcbcb" stop-opacity="0.20248"/><stop offset="1" stop-color="#fff" stop-opacity="0"/></linearGradient><linearGradient id="e" x1="664.51495" y1="844.89685" x2="835.03108" y2="844.89685" xlink:href="#d"/><linearGradient id="f" x1="664.51495" y1="822.61011" x2="835.03108" y2="822.61011" xlink:href="#d"/><linearGradient id="g" x1="664.51495" y1="822.17371" x2="835.03108" y2="822.17371" xlink:href="#d"/><linearGradient id="h" x1="664.51503" y1="870.59766" x2="835.03117" y2="870.59766" xlink:href="#d"/><linearGradient id="i" x1="664.51495" y1="894.59924" x2="835.03108" y2="894.59924" xlink:href="#d"/><linearGradient id="j" x1="664.51495" y1="916.88599" x2="835.03108" y2="916.88599" xlink:href="#d"/><linearGradient id="k" x1="664.51495" y1="917.32239" x2="835.03108" y2="917.32239" xlink:href="#d"/><linearGradient id="l" x1="665.21071" y1="869.72583" x2="834.21095" y2="869.72583" xlink:href="#d"/><linearGradient id="n" x1="665.2106" y1="869.72583" x2="834.21084" y2="869.72583" xlink:href="#d"/><linearGradient id="p" x1="664.51503" y1="1024.94141" x2="835.03117" y2="1024.94141" xlink:href="#d"/><linearGradient id="q" x1="664.51495" y1="1000.93982" x2="835.03108" y2="1000.93982" xlink:href="#d"/><linearGradient id="r" x1="664.51495" y1="978.6532" x2="835.03108" y2="978.6532" xlink:href="#d"/><linearGradient id="s" x1="664.51495" y1="978.2168" x2="835.03108" y2="978.2168" xlink:href="#d"/><linearGradient id="t" x1="664.51495" y1="1026.64075" x2="835.03109" y2="1026.64075" xlink:href="#d"/><linearGradient id="u" x1="664.51495" y1="1050.64233" x2="835.03108" y2="1050.64233" xlink:href="#d"/><linearGradient id="v" x1="664.51495" y1="1072.92896" x2="835.03108" y2="1072.92896" xlink:href="#d"/><linearGradient id="w" x1="664.51495" y1="1073.36536" x2="835.03108" y2="1073.36536" xlink:href="#d"/><linearGradient id="x" x1="665.21071" y1="1025.7688" x2="834.21095" y2="1025.7688" xlink:href="#d"/><linearGradient id="z" x1="665.2106" y1="1025.7688" x2="834.21084" y2="1025.7688" xlink:href="#d"/></defs><rect class="a" x="762.23643" y="99.01577" width="356.23641" height="1034.00953"/><rect class="b" x="406.00002" y="99.01577" width="356.23641" height="1034.00953"/><rect class="c" x="49.76361" y="99.01577" width="356.23641" height="1034.00953"/><rect class="d" x="834.21095" y="137.77645" width="57.02822" height="35.82542" rx="2"/><text class="e" transform="translate(843.41153 165.83252)">AH</text><rect class="d" x="834.21095" y="187.72956" width="57.02822" height="35.82542" rx="2"/><text class="e" transform="translate(842.03409 215.78577)">AM</text><rect class="d" x="834.21095" y="237.68268" width="57.02822" height="35.82542" rx="2"/><text class="e" transform="translate(845.3837 265.73877)">AL</text><rect class="d" x="834.21095" y="293.77701" width="57.02822" height="35.82542" rx="2"/><text class="e" transform="translate(844.16592 321.83313)">BH</text><rect class="d" x="834.21095" y="343.73012" width="57.02822" height="35.82542" rx="2"/><text class="e" transform="translate(842.788 371.78638)">BM</text><rect class="d" x="834.21095" y="393.68324" width="57.02822" height="35.82542" rx="2"/><text class="e" transform="translate(846.1376 421.73962)">BL</text><rect class="d" x="834.21095" y="449.86258" width="57.02822" height="35.82542" rx="2"/><text class="e" transform="translate(844.23819 477.91895)">CH</text><rect class="d" x="834.21095" y="499.8157" width="57.02822" height="35.82542" rx="2"/><text class="e" transform="translate(842.86075 527.87195)">CM</text><rect class="d" x="834.21095" y="549.76881" width="57.02822" height="35.82542" rx="2"/><text class="e" transform="translate(846.21036 577.8252)">CL</text><line class="f" x1="339.27579" y1="361.66309" x2="503.38077" y2="210.50415"/><polygon points="505.686 215.16 508.659 205.642 498.929 207.825 505.686 215.16"/><line class="f" x1="339.27579" y1="361.66309" x2="503.38077" y2="512.82202"/><polygon points="498.929 515.501 508.659 517.684 505.686 508.166 498.929 515.501"/><circle cx="339.27579" cy="361.66306" r="5.33219"/><line class="f" x1="501.22916" y1="361.64087" x2="339.40518" y2="361.64087"/><polygon points="499.77 356.655 508.405 361.641 499.77 366.627 499.77 356.655"/><line class="f" x1="665.08145" y1="205.70898" x2="827.58218" y2="157.72168"/><polygon points="827.595 162.917 834.465 155.689 824.771 153.353 827.595 162.917"/><line class="f" x1="665.08145" y1="205.70898" x2="827.58218" y2="253.69653"/><polygon points="824.771 258.066 834.465 255.729 827.595 248.501 824.771 258.066"/><circle cx="665.08138" cy="205.7091" r="5.33219"/><line class="f" x1="827.03482" y1="205.68677" x2="665.2106" y2="205.68677"/><polygon points="825.576 200.7 834.211 205.687 825.576 210.673 825.576 200.7"/><line class="f" x1="665.08145" y1="361.6853" x2="827.58218" y2="313.69775"/><polygon points="827.595 318.893 834.465 311.665 824.771 309.329 827.595 318.893"/><line class="f" x1="665.08145" y1="361.6853" x2="827.58218" y2="409.67285"/><polygon points="824.771 414.042 834.465 411.705 827.595 404.478 824.771 414.042"/><circle cx="665.08138" cy="361.68534" r="5.33219"/><line class="f" x1="827.03482" y1="361.66309" x2="665.2106" y2="361.66309"/><polygon points="825.576 356.677 834.211 361.663 825.576 366.649 825.576 356.677"/><line class="f" x1="665.08145" y1="517.72852" x2="827.58218" y2="469.74097"/><polygon points="827.595 474.936 834.465 467.708 824.771 465.372 827.595 474.936"/><line class="f" x1="665.08145" y1="517.72852" x2="827.58218" y2="565.71582"/><polygon points="824.771 570.085 834.465 567.748 827.595 560.521 824.771 570.085"/><circle cx="665.08138" cy="517.72841" r="5.33219"/><line class="f" x1="827.03482" y1="517.70605" x2="665.2106" y2="517.70605"/><polygon points="825.576 512.72 834.211 517.706 825.576 522.692 825.576 512.72"/><path class="g" d="M560.61657,727.37963a14.34638,14.34638,0,0,1-28.69276,0c0-7.92329,14.34638-29.11389,14.34638-29.11389S560.61657,719.45634,560.61657,727.37963Z"/><path class="g" d="M598.78125,727.37963a14.34638,14.34638,0,1,1-28.69276,0c0-7.92329,14.34638-29.11389,14.34638-29.11389S598.78125,719.45634,598.78125,727.37963Z"/><path class="g" d="M636.94593,727.37963a14.34638,14.34638,0,1,1-28.69276,0c0-7.92329,14.34638-29.11389,14.34638-29.11389S636.94593,719.45634,636.94593,727.37963Z"/><text class="h" transform="translate(530.52725 685.81775)">High<tspan class="i" x="57.8833" y="0" xml:space="preserve"> (H)</tspan></text><path class="g" d="M579.69891,883.31114a14.34638,14.34638,0,0,1-28.69276,0c0-7.92329,14.34638-29.11389,14.34638-29.11389S579.69891,875.38785,579.69891,883.31114Z"/><path class="g" d="M617.86359,883.31114a14.34638,14.34638,0,0,1-28.69276,0c0-7.92329,14.34638-29.11389,14.34638-29.11389S617.86359,875.38785,617.86359,883.31114Z"/><text class="h" transform="translate(508.29874 841.74805)">Medium<tspan class="i" x="99.58496" y="0" xml:space="preserve"> (M)</tspan></text><path class="g" d="M598.78125,1039.39906a14.34638,14.34638,0,1,1-28.69276,0c0-7.92329,14.34638-29.11389,14.34638-29.11389S598.78125,1031.47577,598.78125,1039.39906Z"/><text class="h" transform="translate(535.5004 997.83569)"><tspan class="j">L</tspan><tspan class="k" x="14.76123" y="0">o</tspan><tspan x="30.21826" y="0">w</tspan><tspan class="l" x="52.05518" y="0" xml:space="preserve"> (</tspan><tspan class="m" x="70.90479" y="0">L</tspan><tspan class="l" x="85.86865" y="0">)</tspan></text><line class="f" x1="339.27579" y1="869.72583" x2="503.38077" y2="718.56689"/><polygon points="505.686 723.223 508.659 713.705 498.929 715.888 505.686 723.223"/><line class="f" x1="339.27579" y1="869.72583" x2="503.38077" y2="1020.88477"/><polygon points="498.929 1023.564 508.659 1025.747 505.686 1016.229 498.929 1023.564"/><circle cx="339.27579" cy="869.72575" r="5.33219"/><line class="f" x1="501.22916" y1="869.70337" x2="339.40518" y2="869.70337"/><polygon points="499.77 864.717 508.405 869.703 499.77 874.69 499.77 864.717"/><line class="f" x1="898.41885" y1="467.77881" x2="904.41885" y2="467.77881"/><line class="n" x1="917.45743" y1="467.77881" x2="963.09317" y2="467.77881"/><polyline class="f" points="969.612 467.779 975.612 467.779 975.612 473.779"/><line class="o" x1="975.61246" y1="485.41357" x2="975.61246" y2="595.94165"/><polyline class="f" points="975.612 601.759 975.612 607.759 969.934 609.698"/><line class="p" x1="958.85367" y1="613.47998" x2="676.30093" y2="709.93921"/><line class="f" x1="670.76065" y1="711.83057" x2="665.08243" y2="713.76904"/><polygon points="899.878 472.765 891.243 467.779 899.878 462.792 899.878 472.765"/><line class="f" x1="665.08145" y1="713.77173" x2="670.84293" y2="715.44604"/><line class="q" x1="682.60831" y1="718.86499" x2="1053.21378" y2="826.55884"/><polyline class="f" points="1059.096 828.268 1064.858 829.943 1064.858 823.943"/><line class="r" x1="1064.85806" y1="811.90161" x2="1064.85806" y2="167.70972"/><polyline class="f" points="1064.858 161.689 1064.858 155.689 1058.858 155.689"/><line class="s" x1="1046.97794" y1="155.68921" x2="910.35562" y2="155.68921"/><line class="f" x1="904.41544" y1="155.68921" x2="898.41544" y2="155.68921"/><polygon points="899.874 150.703 891.239 155.689 899.874 160.676 899.874 150.703"/><circle cx="665.08138" cy="713.77179" r="5.33219"/><line class="f" x1="665.2106" y1="713.74951" x2="671.2106" y2="713.74951"/><polyline class="t" points="683.039 713.75 834.211 713.75 1008.321 713.75"/><polyline class="f" points="1014.235 713.75 1020.235 713.75 1020.235 707.75"/><line class="u" x1="1020.23526" y1="695.92944" x2="1020.23526" y2="323.59961"/><polyline class="f" points="1020.235 317.69 1020.235 311.69 1014.235 311.69"/><line class="v" x1="1002.03311" y1="311.6897" x2="910.51651" y2="311.6897"/><line class="f" x1="904.41544" y1="311.6897" x2="898.41544" y2="311.6897"/><polygon points="899.874 306.703 891.239 311.69 899.874 316.676 899.874 306.703"/><line class="w" x1="665.08145" y1="869.74805" x2="670.8356" y2="868.04883"/><line class="x" x1="682.45059" y1="864.6189" x2="816.02042" y2="825.1748"/><line class="y" x1="821.82779" y1="823.45972" x2="827.58218" y2="821.7605"/><polygon class="z" points="827.595 826.956 834.465 819.728 824.771 817.392 827.595 826.956"/><line class="aa" x1="665.08145" y1="869.74805" x2="670.8356" y2="871.44727"/><line class="ab" x1="682.45059" y1="874.8772" x2="816.02042" y2="914.32129"/><line class="ac" x1="821.82779" y1="916.03638" x2="827.58218" y2="917.7356"/><polygon class="ad" points="824.771 922.104 834.465 919.768 827.595 912.54 824.771 922.104"/><circle cx="665.08138" cy="869.74803" r="5.33219"/><line class="ae" x1="827.03482" y1="869.72583" x2="821.03482" y2="869.72583"/><line class="af" x1="809.50967" y1="869.72583" x2="676.97305" y2="869.72583"/><line class="ag" x1="671.2106" y1="869.72583" x2="665.2106" y2="869.72583"/><polygon class="ah" points="825.576 864.74 834.211 869.726 825.576 874.712 825.576 864.74"/><line class="ai" x1="665.08145" y1="1025.79102" x2="670.8356" y2="1024.0918"/><line class="aj" x1="682.45059" y1="1020.66187" x2="816.02042" y2="981.21777"/><line class="ak" x1="821.82779" y1="979.50293" x2="827.58218" y2="977.80347"/><polygon class="al" points="827.595 982.999 834.465 975.771 824.771 973.435 827.595 982.999"/><line class="am" x1="665.08145" y1="1025.79102" x2="670.8356" y2="1027.49048"/><line class="an" x1="682.45059" y1="1030.92041" x2="816.02042" y2="1070.36426"/><line class="ao" x1="821.82779" y1="1072.07935" x2="827.58218" y2="1073.77856"/><polygon class="ap" points="824.771 1078.147 834.465 1075.811 827.595 1068.583 824.771 1078.147"/><circle cx="665.08138" cy="1025.79109" r="5.33219"/><line class="aq" x1="827.03482" y1="1025.7688" x2="821.03482" y2="1025.7688"/><line class="ar" x1="809.50967" y1="1025.7688" x2="676.97305" y2="1025.7688"/><line class="as" x1="671.2106" y1="1025.7688" x2="665.2106" y2="1025.7688"/><polygon class="at" points="825.576 1020.782 834.211 1025.769 825.576 1030.755 825.576 1020.782"/><text class="au" transform="translate(188.62735 55.30322)">Factors</text><text class="au" transform="translate(550.20157 55.30322)">Levels</text><text class="au" transform="translate(877.24161 55.30322)">Treatments</text><text class="e" transform="translate(175.496 778.25806)">Irrig<tspan class="av" x="53.12646" y="0">a</tspan><tspan class="aw" x="67.82959" y="0">tion</tspan></text><path class="g" d="M260.63349,949.458a11.77964,11.77964,0,1,1-23.55928,0c0-6.50572,11.77964-23.90507,11.77964-23.90507S260.63349,942.95229,260.63349,949.458Z"/><rect class="ax" x="239.62568" y="816.68587" width="18.45634" height="57.06697"/><path class="ax" d="M267.93194,827.11149l-4.80942,3.51659a3.98761,3.98761,0,0,1-4.41875,0L248.85385,823.43l-9.85,7.19807a3.9875,3.9875,0,0,1-4.41875-.002l-4.80942-3.51457a1.88109,1.88109,0,0,1,0-3.22707l9.85274-7.19807-9.85274-7.198a1.88177,1.88177,0,0,1,0-3.22908l4.80942-3.51659a3.9875,3.9875,0,0,1,4.41875.002l9.85,7.198,9.84992-7.198a3.98742,3.98742,0,0,1,4.41875,0l4.80942,3.51458a1.88175,1.88175,0,0,1,0,3.22908l-9.84992,7.198,9.84992,7.19807A1.87891,1.87891,0,0,1,267.93194,827.11149Z"/><path class="ax" d="M265.087,910.45355h-32.4664V876.80037a8.06459,8.06459,0,0,0-8.05561-8.05561H202.82152V836.27837H224.565a40.56775,40.56775,0,0,1,40.522,40.522Z"/><rect class="ax" x="196.29704" y="828.93283" width="13.04896" height="47.1574" rx="3.12335"/><rect class="ax" x="242.32937" y="886.87495" width="13.04896" height="47.1574" rx="3.12335" transform="translate(1159.3075 661.5998) rotate(90)"/><path class="ay" d="M260.63349,949.458a11.77964,11.77964,0,1,1-23.55928,0c0-6.50572,11.77964-23.90507,11.77964-23.90507S260.63349,942.95229,260.63349,949.458Z"/><text class="e" transform="translate(178.03336 281.46606)"><tspan class="az">F</tspan><tspan x="15.63086" y="0">ertili</tspan><tspan class="ba" x="73.6001" y="0">z</tspan><tspan x="87.02734" y="0">er</tspan></text><path class="bb" d="M266.42982,441.81515H183.5721a8.82439,8.82439,0,0,1-8.82524-8.40652,52.71857,52.71857,0,0,1,14.33576-38.54534l4.11918-4.36227-11.65453-37.56181h0a25.50567,25.50567,0,0,1-11.36848-12.14529L165.258,329.78026,276.671,304.73656c6.66389,31.59965,16.57369,63.34538,18.21026,95.75667C295.82279,419.14053,288.61263,441.81513,266.42982,441.81515Z"/><line class="f" x1="277.84418" y1="310.27893" x2="167.60418" y2="335.04893"/><circle class="bc" cx="239.43028" cy="380.391" r="33.28565"/><path class="bd" d="M260.92735,387.79177c-4.18591,10.44143-16.0607,15.51171-16.0607,15.51171s-12.89844.8052-21.32784-6.64425c-8.432-7.46154-9.19954-20.35681-9.19954-20.35681s12.887-.80248,21.31617,6.64732a26.16756,26.16756,0,0,1,6.77747,10.14445,26.35156,26.35156,0,0,1,1.51167-12.11039C248.13071,370.542,260.017,365.469,260.017,365.469S265.1107,377.33825,260.92735,387.79177Z"/><path class="ay" d="M260.92735,387.79177c-4.18591,10.44143-16.0607,15.51171-16.0607,15.51171s-12.89844.8052-21.32784-6.64425c-8.432-7.46154-9.19954-20.35681-9.19954-20.35681s12.887-.80248,21.31617,6.64732a26.16756,26.16756,0,0,1,6.77747,10.14445,26.35156,26.35156,0,0,1,1.51167-12.11039C248.13071,370.542,260.017,365.469,260.017,365.469S265.1107,377.33825,260.92735,387.79177Z"/><text class="h" transform="translate(518.06876 490.64111)"><tspan class="be">T</tspan><tspan x="13.77539" y="0">ype C</tspan><tspan class="i" x="85.40381" y="0"> </tspan><tspan class="bf" x="92.88574" y="0">(</tspan><tspan class="bg" x="103.4707" y="0">C)</tspan></text><circle class="bh" cx="584.43487" cy="527.87193" r="24.32404"/><text class="h" transform="translate(517.288 328.52979)"><tspan class="be">T</tspan><tspan x="13.77539" y="0">ype B</tspan><tspan class="i" x="85.49121" y="0" xml:space="preserve"> (</tspan><tspan class="bi" x="104.34082" y="0">B</tspan><tspan class="i" x="122.29199" y="0">)</tspan></text><circle class="bj" cx="584.43487" cy="363.89613" r="24.32404"/><text class="h" transform="translate(515.85245 176.38477)"><tspan class="be">T</tspan><tspan x="13.77539" y="0">ype A</tspan><tspan class="i" x="87.11523" y="0"> </tspan><tspan class="bk" x="94.59717" y="0">(A</tspan><tspan class="l" x="125.16309" y="0">)</tspan></text><circle class="bl" cx="584.43487" cy="210.70908" r="24.32404"/></svg>