<svg xmlns="http://www.w3.org/2000/svg" xmlns:xlink="http://www.w3.org/1999/xlink" viewBox="0 0 1025.30601 1422.27756"><defs><style>.a,.b,.j{fill:none;}.b,.e,.j{stroke:#000;stroke-miterlimit:10;}.b,.e{stroke-width:4px;}.c{opacity:0.3;}.d{clip-path:url(#a);}.e{fill:#ead9c5;}.f{fill:#3c6;}.g,.h{font-size:20px;}.g,.k,.y,.z{font-family:GothamNarrow-Medium, Gotham Narrow;font-weight:500;}.h{font-family:GothamNarrow-Bold, Gotham Narrow;font-weight:700;}.i{font-size:21px;font-family:MerriweatherUltraBold;}.j{stroke-width:3px;}.k,.z{font-size:29px;}.l{letter-spacing:-0.007em;}.m{letter-spacing:-0.013em;}.n{letter-spacing:0.00002em;}.o{fill:#ccc5ff;}.p{letter-spacing:-0.05699em;}.q{letter-spacing:-0.01699em;}.r{letter-spacing:-0.00002em;}.s{letter-spacing:-0.00498em;}.t{letter-spacing:-0.002em;}.u{fill:#f2f2f2;}.v{fill:#fff;}.w{letter-spacing:-0.01298em;}.x{clip-path:url(#b);}.y{font-size:11.57998px;}.z{letter-spacing:-0.00998em;}.aa{letter-spacing:-0.021em;}.ab{letter-spacing:-0.01098em;}</style><clipPath id="a"><circle class="a" cx="512.51232" cy="1173.6867" r="181.5218"/></clipPath><clipPath id="b"><circle class="a" cx="748.89585" cy="653.56089" r="181.5218"/></clipPath></defs><line class="b" x1="512.65298" y1="882.7818" x2="512.65298" y2="982.11822"/><polygon points="505.672 980.076 512.653 992.165 519.634 980.076 505.672 980.076"/><g class="c"><g class="d"><polygon class="e" points="681.777 1059.822 604.565 1424.189 320.651 1424.189 397.864 1059.822 681.777 1059.822"/><line class="b" x1="672.12037" y1="1105.36798" x2="388.207" y2="1105.36798"/><line class="b" x1="662.47325" y1="1150.91379" x2="378.55987" y2="1150.91379"/><line class="b" x1="652.8175" y1="1196.45959" x2="368.90413" y2="1196.45959"/><line class="b" x1="643.17038" y1="1242.00539" x2="359.25701" y2="1242.00539"/><line class="b" x1="633.51463" y1="1287.55119" x2="349.60126" y2="1287.55119"/><line class="b" x1="623.86751" y1="1333.09699" x2="339.95414" y2="1333.09699"/><line class="b" x1="614.21177" y1="1378.6428" x2="330.29839" y2="1378.6428"/><path class="f" d="M415.31767,1087.17488c5.37958,7.633,3.53676,18.1931,3.53676,18.1931s-10.56483-1.81545-15.94441-9.44846-3.53676-18.1931-3.53676-18.1931S409.9381,1079.54188,415.31767,1087.17488Z"/><path class="f" d="M422.39119,1087.17488c-5.37958,7.633-3.53676,18.1931-3.53676,18.1931s10.56483-1.81545,15.94441-9.44846,3.53676-18.1931,3.53676-18.1931S427.77076,1079.54188,422.39119,1087.17488Z"/><path class="f" d="M470.9723,1087.17488c5.37958,7.633,3.53676,18.1931,3.53676,18.1931s-10.56484-1.81545-15.94441-9.44846-3.53676-18.1931-3.53676-18.1931S465.59273,1079.54188,470.9723,1087.17488Z"/><path class="f" d="M478.04581,1087.17488c-5.37957,7.633-3.53675,18.1931-3.53675,18.1931s10.56483-1.81545,15.94441-9.44846,3.53675-18.1931,3.53675-18.1931S483.42539,1079.54188,478.04581,1087.17488Z"/><path class="f" d="M526.62693,1087.17488c5.37957,7.633,3.53675,18.1931,3.53675,18.1931s-10.56483-1.81545-15.94441-9.44846-3.53675-18.1931-3.53675-18.1931S521.24735,1079.54188,526.62693,1087.17488Z"/><path class="f" d="M533.70044,1087.17488c-5.37958,7.633-3.53676,18.1931-3.53676,18.1931s10.56484-1.81545,15.94441-9.44846,3.53676-18.1931,3.53676-18.1931S539.08,1079.54188,533.70044,1087.17488Z"/><path class="f" d="M582.28155,1087.17488c5.37958,7.633,3.53676,18.1931,3.53676,18.1931s-10.56483-1.81545-15.94441-9.44846-3.53676-18.1931-3.53676-18.1931S576.902,1079.54188,582.28155,1087.17488Z"/><path class="f" d="M589.35507,1087.17488c-5.37958,7.633-3.53676,18.1931-3.53676,18.1931s10.56483-1.81545,15.94441-9.44846,3.53676-18.1931,3.53676-18.1931S594.73464,1079.54188,589.35507,1087.17488Z"/><path class="f" d="M637.93618,1087.17488c5.37958,7.633,3.53676,18.1931,3.53676,18.1931s-10.56484-1.81545-15.94441-9.44846-3.53676-18.1931-3.53676-18.1931S632.55661,1079.54188,637.93618,1087.17488Z"/><path class="f" d="M645.00969,1087.17488c-5.37957,7.633-3.53675,18.1931-3.53675,18.1931s10.56483-1.81545,15.94441-9.44846,3.53675-18.1931,3.53675-18.1931S650.38927,1079.54188,645.00969,1087.17488Z"/><path class="f" d="M405.67055,1132.72068c5.37958,7.633,3.53676,18.19311,3.53676,18.19311s-10.56484-1.81546-15.94441-9.44846-3.53676-18.19311-3.53676-18.19311S400.291,1125.08768,405.67055,1132.72068Z"/><path class="f" d="M412.74406,1132.72068c-5.37957,7.633-3.53675,18.19311-3.53675,18.19311s10.56483-1.81546,15.94441-9.44846,3.53675-18.19311,3.53675-18.19311S418.12364,1125.08768,412.74406,1132.72068Z"/><path class="f" d="M461.32518,1132.72068c5.37957,7.633,3.53675,18.19311,3.53675,18.19311s-10.56483-1.81546-15.94441-9.44846-3.53675-18.19311-3.53675-18.19311S455.9456,1125.08768,461.32518,1132.72068Z"/><path class="f" d="M468.39869,1132.72068c-5.37958,7.633-3.53676,18.19311-3.53676,18.19311s10.56484-1.81546,15.94441-9.44846,3.53676-18.19311,3.53676-18.19311S473.77826,1125.08768,468.39869,1132.72068Z"/><path class="f" d="M516.9798,1132.72068c5.37958,7.633,3.53676,18.19311,3.53676,18.19311s-10.56483-1.81546-15.94441-9.44846-3.53676-18.19311-3.53676-18.19311S511.60023,1125.08768,516.9798,1132.72068Z"/><path class="f" d="M524.05332,1132.72068c-5.37958,7.633-3.53676,18.19311-3.53676,18.19311s10.56483-1.81546,15.94441-9.44846,3.53676-18.19311,3.53676-18.19311S529.43289,1125.08768,524.05332,1132.72068Z"/><path class="f" d="M572.63443,1132.72068c5.37958,7.633,3.53676,18.19311,3.53676,18.19311s-10.56484-1.81546-15.94441-9.44846-3.53676-18.19311-3.53676-18.19311S567.25486,1125.08768,572.63443,1132.72068Z"/><path class="f" d="M579.70794,1132.72068c-5.37957,7.633-3.53675,18.19311-3.53675,18.19311s10.56483-1.81546,15.94441-9.44846,3.53675-18.19311,3.53675-18.19311S585.08752,1125.08768,579.70794,1132.72068Z"/><path class="f" d="M628.28906,1132.72068c5.37957,7.633,3.53675,18.19311,3.53675,18.19311s-10.56483-1.81546-15.94441-9.44846-3.53675-18.19311-3.53675-18.19311S622.90948,1125.08768,628.28906,1132.72068Z"/><path class="f" d="M635.36257,1132.72068c-5.37958,7.633-3.53676,18.19311-3.53676,18.19311s10.56484-1.81546,15.94441-9.44846,3.53676-18.19311,3.53676-18.19311S640.74214,1125.08768,635.36257,1132.72068Z"/><path class="f" d="M396.01481,1178.26649c5.37957,7.633,3.53675,18.1931,3.53675,18.1931s-10.56483-1.81546-15.94441-9.44846-3.53675-18.1931-3.53675-18.1931S390.63523,1170.63348,396.01481,1178.26649Z"/><path class="f" d="M403.08832,1178.26649c-5.37958,7.633-3.53676,18.1931-3.53676,18.1931s10.56484-1.81546,15.94441-9.44846,3.53676-18.1931,3.53676-18.1931S408.46789,1170.63348,403.08832,1178.26649Z"/><path class="f" d="M451.66943,1178.26649c5.37958,7.633,3.53676,18.1931,3.53676,18.1931s-10.56484-1.81546-15.94441-9.44846-3.53676-18.1931-3.53676-18.1931S446.28986,1170.63348,451.66943,1178.26649Z"/><path class="f" d="M458.74294,1178.26649c-5.37957,7.633-3.53675,18.1931-3.53675,18.1931s10.56483-1.81546,15.94441-9.44846,3.53675-18.1931,3.53675-18.1931S464.12252,1170.63348,458.74294,1178.26649Z"/><path class="f" d="M507.32406,1178.26649c5.37957,7.633,3.53676,18.1931,3.53676,18.1931s-10.56484-1.81546-15.94441-9.44846-3.53676-18.1931-3.53676-18.1931S501.94448,1170.63348,507.32406,1178.26649Z"/><path class="f" d="M514.39757,1178.26649c-5.37957,7.633-3.53675,18.1931-3.53675,18.1931s10.56483-1.81546,15.9444-9.44846,3.53676-18.1931,3.53676-18.1931S519.77715,1170.63348,514.39757,1178.26649Z"/><path class="f" d="M562.97869,1178.26649c5.37957,7.633,3.53675,18.1931,3.53675,18.1931s-10.56483-1.81546-15.94441-9.44846-3.53675-18.1931-3.53675-18.1931S557.59911,1170.63348,562.97869,1178.26649Z"/><path class="f" d="M570.0522,1178.26649c-5.37958,7.633-3.53676,18.1931-3.53676,18.1931s10.56484-1.81546,15.94441-9.44846,3.53676-18.1931,3.53676-18.1931S575.43177,1170.63348,570.0522,1178.26649Z"/><path class="f" d="M618.63331,1178.26649c5.37958,7.633,3.53676,18.1931,3.53676,18.1931s-10.56484-1.81546-15.94441-9.44846-3.53676-18.1931-3.53676-18.1931S613.25374,1170.63348,618.63331,1178.26649Z"/><path class="f" d="M625.70682,1178.26649c-5.37957,7.633-3.53675,18.1931-3.53675,18.1931s10.56483-1.81546,15.94441-9.44846,3.53675-18.1931,3.53675-18.1931S631.0864,1170.63348,625.70682,1178.26649Z"/><path class="f" d="M386.36768,1223.81229c5.37958,7.633,3.53676,18.1931,3.53676,18.1931s-10.56484-1.81545-15.94441-9.44846-3.53676-18.1931-3.53676-18.1931S380.98811,1216.17928,386.36768,1223.81229Z"/><path class="f" d="M393.44119,1223.81229c-5.37957,7.633-3.53675,18.1931-3.53675,18.1931s10.56483-1.81545,15.94441-9.44846,3.53675-18.1931,3.53675-18.1931S398.82077,1216.17928,393.44119,1223.81229Z"/><path class="f" d="M442.02231,1223.81229c5.37957,7.633,3.53676,18.1931,3.53676,18.1931s-10.56484-1.81545-15.94441-9.44846-3.53676-18.1931-3.53676-18.1931S436.64273,1216.17928,442.02231,1223.81229Z"/><path class="f" d="M449.09582,1223.81229c-5.37957,7.633-3.53675,18.1931-3.53675,18.1931s10.56483-1.81545,15.9444-9.44846,3.53676-18.1931,3.53676-18.1931S454.4754,1216.17928,449.09582,1223.81229Z"/><path class="f" d="M497.67694,1223.81229c5.37957,7.633,3.53675,18.1931,3.53675,18.1931s-10.56483-1.81545-15.94441-9.44846-3.53675-18.1931-3.53675-18.1931S492.29736,1216.17928,497.67694,1223.81229Z"/><path class="f" d="M504.75045,1223.81229c-5.37958,7.633-3.53676,18.1931-3.53676,18.1931s10.56484-1.81545,15.94441-9.44846,3.53676-18.1931,3.53676-18.1931S510.13,1216.17928,504.75045,1223.81229Z"/><path class="f" d="M553.33156,1223.81229c5.37958,7.633,3.53676,18.1931,3.53676,18.1931s-10.56484-1.81545-15.94441-9.44846-3.53676-18.1931-3.53676-18.1931S547.952,1216.17928,553.33156,1223.81229Z"/><path class="f" d="M560.40507,1223.81229c-5.37957,7.633-3.53675,18.1931-3.53675,18.1931s10.56483-1.81545,15.94441-9.44846,3.53675-18.1931,3.53675-18.1931S565.78465,1216.17928,560.40507,1223.81229Z"/><path class="f" d="M608.98619,1223.81229c5.37957,7.633,3.53676,18.1931,3.53676,18.1931s-10.56484-1.81545-15.94441-9.44846-3.53676-18.1931-3.53676-18.1931S603.60661,1216.17928,608.98619,1223.81229Z"/><path class="f" d="M616.0597,1223.81229c-5.37957,7.633-3.53675,18.1931-3.53675,18.1931s10.56483-1.81545,15.94441-9.44846,3.53675-18.1931,3.53675-18.1931S621.43928,1216.17928,616.0597,1223.81229Z"/><path class="f" d="M376.71194,1269.35809c5.37957,7.633,3.53675,18.1931,3.53675,18.1931s-10.56483-1.81545-15.94441-9.44846-3.53675-18.1931-3.53675-18.1931S371.33236,1261.72508,376.71194,1269.35809Z"/><path class="f" d="M383.78545,1269.35809c-5.37958,7.633-3.53676,18.1931-3.53676,18.1931s10.56484-1.81545,15.94441-9.44846,3.53676-18.1931,3.53676-18.1931S389.165,1261.72508,383.78545,1269.35809Z"/><path class="f" d="M432.36657,1269.35809c5.37957,7.633,3.53675,18.1931,3.53675,18.1931s-10.56483-1.81545-15.94441-9.44846-3.53675-18.1931-3.53675-18.1931S426.987,1261.72508,432.36657,1269.35809Z"/><path class="f" d="M439.44008,1269.35809c-5.37958,7.633-3.53676,18.1931-3.53676,18.1931s10.56484-1.81545,15.94441-9.44846,3.53676-18.1931,3.53676-18.1931S444.81965,1261.72508,439.44008,1269.35809Z"/><path class="f" d="M488.02119,1269.35809c5.37958,7.633,3.53676,18.1931,3.53676,18.1931s-10.56484-1.81545-15.94441-9.44846-3.53676-18.1931-3.53676-18.1931S482.64162,1261.72508,488.02119,1269.35809Z"/><path class="f" d="M495.0947,1269.35809c-5.37957,7.633-3.53675,18.1931-3.53675,18.1931s10.56483-1.81545,15.94441-9.44846,3.53675-18.1931,3.53675-18.1931S500.47428,1261.72508,495.0947,1269.35809Z"/><path class="f" d="M543.67582,1269.35809c5.37957,7.633,3.53675,18.1931,3.53675,18.1931s-10.56483-1.81545-15.94441-9.44846-3.53675-18.1931-3.53675-18.1931S538.29624,1261.72508,543.67582,1269.35809Z"/><path class="f" d="M550.74933,1269.35809c-5.37957,7.633-3.53676,18.1931-3.53676,18.1931s10.56484-1.81545,15.94441-9.44846,3.53676-18.1931,3.53676-18.1931S556.12891,1261.72508,550.74933,1269.35809Z"/><path class="f" d="M599.33045,1269.35809c5.37957,7.633,3.53675,18.1931,3.53675,18.1931s-10.56483-1.81545-15.94441-9.44846-3.53675-18.1931-3.53675-18.1931S593.95087,1261.72508,599.33045,1269.35809Z"/><path class="f" d="M606.404,1269.35809c-5.37958,7.633-3.53676,18.1931-3.53676,18.1931s10.56484-1.81545,15.94441-9.44846,3.53676-18.1931,3.53676-18.1931S611.78353,1261.72508,606.404,1269.35809Z"/><path class="f" d="M367.06482,1314.90389c5.37957,7.633,3.53675,18.1931,3.53675,18.1931s-10.56483-1.81545-15.94441-9.44846-3.53675-18.1931-3.53675-18.1931S361.68524,1307.27088,367.06482,1314.90389Z"/><path class="f" d="M374.13833,1314.90389c-5.37958,7.633-3.53676,18.1931-3.53676,18.1931s10.56484-1.81545,15.94441-9.44846,3.53676-18.1931,3.53676-18.1931S379.5179,1307.27088,374.13833,1314.90389Z"/><path class="f" d="M422.71944,1314.90389c5.37958,7.633,3.53676,18.1931,3.53676,18.1931s-10.56484-1.81545-15.94441-9.44846-3.53676-18.1931-3.53676-18.1931S417.33987,1307.27088,422.71944,1314.90389Z"/><path class="f" d="M429.793,1314.90389c-5.37957,7.633-3.53675,18.1931-3.53675,18.1931s10.56483-1.81545,15.94441-9.44846,3.53675-18.1931,3.53675-18.1931S435.17253,1307.27088,429.793,1314.90389Z"/><path class="f" d="M478.37407,1314.90389c5.37957,7.633,3.53675,18.1931,3.53675,18.1931s-10.56483-1.81545-15.94441-9.44846-3.53675-18.1931-3.53675-18.1931S472.99449,1307.27088,478.37407,1314.90389Z"/><path class="f" d="M485.44758,1314.90389c-5.37957,7.633-3.53676,18.1931-3.53676,18.1931s10.56484-1.81545,15.94441-9.44846,3.53676-18.1931,3.53676-18.1931S490.82716,1307.27088,485.44758,1314.90389Z"/><path class="f" d="M534.0287,1314.90389c5.37957,7.633,3.53675,18.1931,3.53675,18.1931s-10.56483-1.81545-15.94441-9.44846-3.53675-18.1931-3.53675-18.1931S528.64912,1307.27088,534.0287,1314.90389Z"/><path class="f" d="M541.10221,1314.90389c-5.37958,7.633-3.53676,18.1931-3.53676,18.1931s10.56484-1.81545,15.94441-9.44846,3.53676-18.1931,3.53676-18.1931S546.48178,1307.27088,541.10221,1314.90389Z"/><path class="f" d="M589.68332,1314.90389c5.37958,7.633,3.53676,18.1931,3.53676,18.1931s-10.56484-1.81545-15.94441-9.44846-3.53676-18.1931-3.53676-18.1931S584.30375,1307.27088,589.68332,1314.90389Z"/><path class="f" d="M596.75683,1314.90389c-5.37957,7.633-3.53675,18.1931-3.53675,18.1931s10.56483-1.81545,15.94441-9.44846,3.53675-18.1931,3.53675-18.1931S602.13641,1307.27088,596.75683,1314.90389Z"/><path class="f" d="M357.40907,1360.44969c5.37958,7.633,3.53676,18.19311,3.53676,18.19311s-10.56484-1.81546-15.94441-9.44847-3.53676-18.1931-3.53676-18.1931S352.0295,1352.81669,357.40907,1360.44969Z"/><path class="f" d="M364.48258,1360.44969c-5.37957,7.633-3.53675,18.19311-3.53675,18.19311s10.56483-1.81546,15.94441-9.44847,3.53675-18.1931,3.53675-18.1931S369.86216,1352.81669,364.48258,1360.44969Z"/><path class="f" d="M413.0637,1360.44969c5.37957,7.633,3.53675,18.19311,3.53675,18.19311s-10.56483-1.81546-15.94441-9.44847-3.53675-18.1931-3.53675-18.1931S407.68412,1352.81669,413.0637,1360.44969Z"/><path class="f" d="M420.13721,1360.44969c-5.37958,7.633-3.53676,18.19311-3.53676,18.19311s10.56484-1.81546,15.94441-9.44847,3.53676-18.1931,3.53676-18.1931S425.51678,1352.81669,420.13721,1360.44969Z"/><path class="f" d="M468.71832,1360.44969c5.37958,7.633,3.53676,18.19311,3.53676,18.19311s-10.56483-1.81546-15.94441-9.44847-3.53676-18.1931-3.53676-18.1931S463.33875,1352.81669,468.71832,1360.44969Z"/><path class="f" d="M475.79184,1360.44969c-5.37958,7.633-3.53676,18.19311-3.53676,18.19311s10.56483-1.81546,15.94441-9.44847,3.53676-18.1931,3.53676-18.1931S481.17141,1352.81669,475.79184,1360.44969Z"/><path class="f" d="M524.37295,1360.44969c5.37958,7.633,3.53676,18.19311,3.53676,18.19311s-10.56484-1.81546-15.94441-9.44847-3.53676-18.1931-3.53676-18.1931S518.99338,1352.81669,524.37295,1360.44969Z"/><path class="f" d="M531.44646,1360.44969c-5.37957,7.633-3.53675,18.19311-3.53675,18.19311s10.56483-1.81546,15.94441-9.44847,3.53675-18.1931,3.53675-18.1931S536.826,1352.81669,531.44646,1360.44969Z"/><path class="f" d="M580.02758,1360.44969c5.37957,7.633,3.53675,18.19311,3.53675,18.19311s-10.56483-1.81546-15.94441-9.44847-3.53675-18.1931-3.53675-18.1931S574.648,1352.81669,580.02758,1360.44969Z"/><path class="f" d="M587.10109,1360.44969c-5.37958,7.633-3.53676,18.19311-3.53676,18.19311s10.56484-1.81546,15.94441-9.44847,3.53676-18.1931,3.53676-18.1931S592.48066,1352.81669,587.10109,1360.44969Z"/><path class="f" d="M347.762,1405.9955c5.37957,7.633,3.53675,18.1931,3.53675,18.1931s-10.56483-1.81546-15.94441-9.44846-3.53675-18.19311-3.53675-18.19311S342.38237,1398.36249,347.762,1405.9955Z"/><path class="f" d="M354.83546,1405.9955c-5.37958,7.633-3.53676,18.1931-3.53676,18.1931s10.56484-1.81546,15.94441-9.44846,3.53676-18.19311,3.53676-18.19311S360.215,1398.36249,354.83546,1405.9955Z"/><path class="f" d="M403.41657,1405.9955c5.37958,7.633,3.53676,18.1931,3.53676,18.1931s-10.56483-1.81546-15.94441-9.44846-3.53676-18.19311-3.53676-18.19311S398.037,1398.36249,403.41657,1405.9955Z"/><path class="f" d="M410.49009,1405.9955c-5.37958,7.633-3.53676,18.1931-3.53676,18.1931s10.56483-1.81546,15.94441-9.44846,3.53676-18.19311,3.53676-18.19311S415.86966,1398.36249,410.49009,1405.9955Z"/><path class="f" d="M459.0712,1405.9955c5.37958,7.633,3.53676,18.1931,3.53676,18.1931s-10.56484-1.81546-15.94441-9.44846-3.53676-18.19311-3.53676-18.19311S453.69163,1398.36249,459.0712,1405.9955Z"/><path class="f" d="M466.14471,1405.9955c-5.37957,7.633-3.53675,18.1931-3.53675,18.1931s10.56483-1.81546,15.94441-9.44846,3.53675-18.19311,3.53675-18.19311S471.52429,1398.36249,466.14471,1405.9955Z"/><path class="f" d="M514.72583,1405.9955c5.37957,7.633,3.53675,18.1931,3.53675,18.1931s-10.56483-1.81546-15.94441-9.44846-3.53675-18.19311-3.53675-18.19311S509.34625,1398.36249,514.72583,1405.9955Z"/><path class="f" d="M521.79934,1405.9955c-5.37958,7.633-3.53676,18.1931-3.53676,18.1931s10.56484-1.81546,15.94441-9.44846,3.53676-18.19311,3.53676-18.19311S527.17891,1398.36249,521.79934,1405.9955Z"/><path class="f" d="M570.38045,1405.9955c5.37958,7.633,3.53676,18.1931,3.53676,18.1931s-10.56483-1.81546-15.94441-9.44846S554.436,1396.547,554.436,1396.547,565.00088,1398.36249,570.38045,1405.9955Z"/><path class="f" d="M577.454,1405.9955c-5.37958,7.633-3.53676,18.1931-3.53676,18.1931s10.56483-1.81546,15.94441-9.44846,3.53676-18.19311,3.53676-18.19311S582.83354,1398.36249,577.454,1405.9955Z"/><text class="g" transform="translate(371.22684 1089.36774)">1</text><text class="g" transform="translate(357.86015 1134.91412)">2</text><text class="g" transform="translate(337.39725 1226.00592)">4</text></g></g><circle class="b" cx="512.51232" cy="1173.6867" r="181.5218"/><text class="h" transform="translate(490.44216 1035.15021)">Field</text><polygon class="e" points="378.56 1150.914 368.903 1196.46 652.817 1196.46 662.473 1150.914 378.56 1150.914"/><path class="f" d="M396.0138,1178.2665c5.37958,7.633,3.53676,18.1931,3.53676,18.1931s-10.56483-1.81545-15.94441-9.44846-3.53675-18.1931-3.53675-18.1931S390.63423,1170.6335,396.0138,1178.2665Z"/><path class="f" d="M403.08732,1178.2665c-5.37958,7.633-3.53676,18.1931-3.53676,18.1931s10.56483-1.81545,15.94441-9.44846,3.53676-18.1931,3.53676-18.1931S408.46689,1170.6335,403.08732,1178.2665Z"/><path class="f" d="M451.66843,1178.2665c5.37958,7.633,3.53676,18.1931,3.53676,18.1931s-10.56484-1.81545-15.94441-9.44846-3.53676-18.1931-3.53676-18.1931S446.28886,1170.6335,451.66843,1178.2665Z"/><path class="f" d="M458.74194,1178.2665c-5.37957,7.633-3.53675,18.1931-3.53675,18.1931s10.56483-1.81545,15.94441-9.44846,3.53675-18.1931,3.53675-18.1931S464.12152,1170.6335,458.74194,1178.2665Z"/><path class="f" d="M507.32306,1178.2665c5.37957,7.633,3.53675,18.1931,3.53675,18.1931s-10.56483-1.81545-15.94441-9.44846-3.53675-18.1931-3.53675-18.1931S501.94348,1170.6335,507.32306,1178.2665Z"/><path class="f" d="M514.39657,1178.2665c-5.37958,7.633-3.53676,18.1931-3.53676,18.1931s10.56484-1.81545,15.94441-9.44846,3.53676-18.1931,3.53676-18.1931S519.77614,1170.6335,514.39657,1178.2665Z"/><path class="f" d="M562.97768,1178.2665c5.37958,7.633,3.53676,18.1931,3.53676,18.1931s-10.56483-1.81545-15.94441-9.44846-3.53675-18.1931-3.53675-18.1931S557.59811,1170.6335,562.97768,1178.2665Z"/><path class="f" d="M570.0512,1178.2665c-5.37958,7.633-3.53676,18.1931-3.53676,18.1931s10.56483-1.81545,15.94441-9.44846,3.53676-18.1931,3.53676-18.1931S575.43077,1170.6335,570.0512,1178.2665Z"/><path class="f" d="M618.63231,1178.2665c5.37958,7.633,3.53676,18.1931,3.53676,18.1931s-10.56484-1.81545-15.94441-9.44846-3.53676-18.1931-3.53676-18.1931S613.25274,1170.6335,618.63231,1178.2665Z"/><path class="f" d="M625.70582,1178.2665c-5.37957,7.633-3.53675,18.1931-3.53675,18.1931s10.56483-1.81545,15.94441-9.44846,3.53675-18.1931,3.53675-18.1931S631.0854,1170.6335,625.70582,1178.2665Z"/><text class="g" transform="translate(666.81618 1182.45978)">BM</text><text class="g" transform="translate(348.24296 1180.45953)">3</text><text class="i" transform="translate(429.65804 85.37225)">Randomization</text><rect class="j" x="401.7263" y="294.18252" width="221.85342" height="60.62106" rx="5"/><text class="k" transform="translate(453.48138 334.84943)">A<tspan class="l" x="19.5459" y="0">s</tspan><tspan x="31.92871" y="0">sign </tspan><tspan class="m" x="91.92871" y="0">t</tspan><tspan class="n" x="101.87549" y="0">o</tspan></text><line class="b" x1="512.65301" y1="224.79968" x2="512.65301" y2="294.18252"/><line class="b" x1="512.65301" y1="354.80358" x2="512.65301" y2="424.18643"/><rect class="o" x="401.7263" y="164.58142" width="221.85342" height="60.62106" rx="5.00135"/><text class="k" transform="translate(424.04681 205.24811)"><tspan class="p">T</tspan><tspan class="q" x="14.26807" y="0">r</tspan><tspan class="r" x="24.21484" y="0">e</tspan><tspan class="s" x="39.41016" y="0">a</tspan><tspan x="54.11328" y="0">tme</tspan><tspan class="t" x="103.81885" y="0">n</tspan><tspan x="119.53662" y="0">t BM</tspan></text><rect class="u" x="45.98966" y="424.34006" width="933.3267" height="458.44168" rx="5"/><circle class="b" cx="276.40998" cy="653.56089" r="181.5218"/><polygon class="v" points="212.233 684.42 172.692 726.819 183.721 776.885 237.417 798.746 276.958 756.347 265.93 706.281 212.233 684.42"/><polygon class="v" points="276.845 681.567 317.987 722.414 368.374 712.956 391.902 659.969 350.76 619.122 300.373 628.58 276.845 681.567"/><polygon class="v" points="160.918 607.661 198.693 563.681 249.671 569.115 277.326 620.07 239.551 664.05 188.573 658.616 160.918 607.661"/><polyline class="j" points="265.93 706.281 226.388 748.679 172.692 726.819"/><polygon class="j" points="212.233 684.42 172.692 726.819 183.721 776.885 237.417 798.746 276.958 756.347 265.93 706.281 212.233 684.42"/><line class="j" x1="226.3883" y1="748.67947" x2="237.41688" y2="798.74614"/><ellipse cx="219.12177" cy="778.171" rx="3.78592" ry="6.53614" transform="translate(-468.78748 353.50017) rotate(-42.58503)"/><path d="M203.92818,757.5806a10.18052,10.18052,0,0,1,6.23551,6.82335c.62406,2.87182-1.15208,4.48315-3.9727,3.58962a10.18889,10.18889,0,0,1-6.23539-6.82338C199.3304,758.29312,201.1077,756.68712,203.92818,757.5806Z"/><ellipse cx="190.99637" cy="747.39787" rx="3.78591" ry="6.53613" transform="translate(-455.38065 326.35162) rotate(-42.58496)"/><ellipse cx="214.01945" cy="754.69123" rx="3.78592" ry="6.53614" transform="translate(-454.24499 343.85573) rotate(-42.58507)"/><ellipse cx="196.09869" cy="770.87764" rx="3.78591" ry="6.53613" transform="translate(-469.9231 335.99604) rotate(-42.58492)"/><ellipse cx="263.20343" cy="756.09733" rx="6.53614" ry="3.78592" transform="translate(-537.13821 776.40662) rotate(-72.2602)"/><path d="M250.51554,747.31708c2.18008-1.99227,4.47172-1.28538,5.11323,1.5881a10.19736,10.19736,0,0,1-2.79142,8.81187c-2.184,1.99586-4.4729,1.28-5.11324-1.5882A10.1807,10.1807,0,0,1,250.51554,747.31708Z"/><ellipse cx="240.14423" cy="748.93516" rx="6.53614" ry="3.78592" transform="translate(-546.34979 749.46293) rotate(-72.26013)"/><ellipse cx="219.31488" cy="716.55113" rx="6.53614" ry="3.78592" transform="translate(-147.15858 62.91382) rotate(-12.26017)"/><polyline class="j" points="300.373 628.58 341.515 669.427 317.987 722.414"/><polygon class="j" points="276.845 681.567 317.987 722.414 368.374 712.956 391.902 659.969 350.76 619.122 300.373 628.58 276.845 681.567"/><line class="j" x1="341.51497" y1="669.42745" x2="391.90186" y2="659.96898"/><ellipse cx="370.765" cy="677.61212" rx="6.53614" ry="3.78592" transform="translate(-352.64012 406.8541) rotate(-40.7941)"/><path d="M349.70982,692.15479a10.18052,10.18052,0,0,1,7.01489-6.01921c2.88992-.534,4.445,1.29162,3.46371,4.08294a10.18887,10.18887,0,0,1-7.01492,6.01909C350.27829,696.7726,348.72863,694.946,349.70982,692.15479Z"/><ellipse cx="339.12791" cy="704.76205" rx="6.53613" ry="3.78591" transform="translate(-378.06375 392.77903) rotate(-40.79402)"/><ellipse cx="347.13724" cy="681.97815" rx="6.53614" ry="3.78592" transform="translate(-361.2329 392.47823) rotate(-40.79414)"/><ellipse cx="362.75568" cy="700.39602" rx="6.53613" ry="3.78591" transform="translate(-369.47099 407.15487) rotate(-40.79399)"/><ellipse cx="350.07978" cy="632.86214" rx="3.78592" ry="6.53614" transform="translate(-363.40495 751.22549) rotate(-70.46927)"/><path d="M340.90728,645.26943c-1.92316-2.24128-1.145-4.50971,1.74714-5.06111a10.1974,10.1974,0,0,1,8.72032,3.06545c1.92663,2.24533,1.13962,4.51072-1.74723,5.06111A10.18072,10.18072,0,0,1,340.90728,645.26943Z"/><ellipse cx="342.20044" cy="655.68624" rx="3.78592" ry="6.53614" transform="translate(-390.16112 758.99226) rotate(-70.46919)"/><ellipse cx="309.18126" cy="675.49333" rx="3.78592" ry="6.53614" transform="translate(-117.59515 67.42575) rotate(-10.46923)"/><polyline class="j" points="188.573 658.616 226.347 614.636 198.693 563.681"/><polygon class="j" points="160.918 607.661 198.693 563.681 249.671 569.115 277.326 620.07 239.551 664.05 188.573 658.616 160.918 607.661"/><line class="j" x1="226.34741" y1="614.63562" x2="277.32556" y2="620.06965"/><ellipse cx="254.85649" cy="604.15777" rx="3.78592" ry="6.53614" transform="translate(-383.07053 452.47536) rotate(-53.75308)"/><path d="M232.71464,591.33013a10.18049,10.18049,0,0,0,7.47,5.44412c2.92316.30322,4.32856-1.63995,3.12911-4.34469a10.18891,10.18891,0,0,0-7.47-5.444C232.91522,586.68179,231.51525,588.62552,232.71464,591.33013Z"/><ellipse cx="221.16654" cy="579.60149" rx="3.78591" ry="6.53613" transform="translate(-377.03691 415.26903) rotate(-53.75315)"/><ellipse cx="230.95696" cy="601.67869" rx="3.78592" ry="6.53614" transform="translate(-390.83965 432.18726) rotate(-53.75304)"/><ellipse cx="245.06607" cy="582.08056" rx="3.78591" ry="6.53613" transform="translate(-369.26776 435.55715) rotate(-53.75319)"/><ellipse cx="237.78415" cy="650.40682" rx="6.53614" ry="3.78592" transform="translate(-244.66275 153.60171) rotate(-24.07791)"/><path d="M227.65688,638.76578c-1.73942,2.38669-.78386,4.58629,2.14288,4.90666a10.19733,10.19733,0,0,0,8.44984-3.74715c1.74256-2.391.77843-4.58687-2.143-4.90665A10.18068,10.18068,0,0,0,227.65688,638.76578Z"/><ellipse cx="228.12012" cy="628.27923" rx="6.53614" ry="3.78592" transform="translate(-236.47667 147.73433) rotate(-24.07799)"/><ellipse cx="193.63457" cy="611.15225" rx="6.53614" ry="3.78592" transform="translate(-434.2344 740.69755) rotate(-84.07795)"/><text class="k" transform="translate(196.92199 533.02386)">Randomi<tspan class="w" x="113.53369" y="0">z</tspan><tspan class="r" x="126.96094" y="0">ed</tspan></text><path class="j" d="M154.77993,618.19076a14.18873,14.18873,0,0,1,0-20.06589"/><path class="j" d="M148.36189,624.60881a23.26521,23.26521,0,0,1,0-32.902"/><path class="j" d="M342.8579,610.18945a14.18874,14.18874,0,0,1,19.32428,5.40486"/><path class="j" d="M338.4058,602.27988a23.26521,23.26521,0,0,1,31.68595,8.86233"/><path class="j" d="M286.78794,747.63241a14.18873,14.18873,0,0,1-4.29678,19.60045"/><path class="j" d="M294.43144,742.73755a23.26521,23.26521,0,0,1-7.04543,32.1388"/><line class="b" x1="457.99105" y1="653.56085" x2="557.32754" y2="653.56085"/><polygon points="555.285 660.542 567.374 653.561 555.285 646.58 555.285 660.542"/><g class="x"><polygon class="e" points="655.48 577.159 649.888 603.53 814.274 603.53 819.865 577.159 655.48 577.159"/><path class="f" d="M665.58545,592.99663c3.11477,4.41951,2.04777,10.53379,2.04777,10.53379s-6.117-1.05114-9.2318-5.47065-2.04777-10.53379-2.04777-10.53379S662.47068,588.57713,665.58545,592.99663Z"/><path class="f" d="M669.681,592.99663c-3.11477,4.41951-2.04778,10.53379-2.04778,10.53379s6.117-1.05114,9.2318-5.47065S678.9128,587.526,678.9128,587.526,672.79577,588.57713,669.681,592.99663Z"/><path class="f" d="M697.80943,592.99663c3.11477,4.41951,2.04778,10.53379,2.04778,10.53379s-6.117-1.05114-9.2318-5.47065-2.04778-10.53379-2.04778-10.53379S694.69466,588.57713,697.80943,592.99663Z"/><path class="f" d="M701.905,592.99663c-3.11477,4.41951-2.04778,10.53379-2.04778,10.53379s6.117-1.05114,9.2318-5.47065,2.04778-10.53379,2.04778-10.53379S705.01976,588.57713,701.905,592.99663Z"/><path class="f" d="M730.03341,592.99663c3.11477,4.41951,2.04778,10.53379,2.04778,10.53379s-6.117-1.05114-9.2318-5.47065-2.04778-10.53379-2.04778-10.53379S726.91864,588.57713,730.03341,592.99663Z"/><path class="f" d="M734.129,592.99663c-3.11477,4.41951-2.04778,10.53379-2.04778,10.53379s6.117-1.05114,9.2318-5.47065,2.04778-10.53379,2.04778-10.53379S737.24374,588.57713,734.129,592.99663Z"/><path class="f" d="M762.2574,592.99663c3.11477,4.41951,2.04778,10.53379,2.04778,10.53379s-6.117-1.05114-9.2318-5.47065S753.0256,587.526,753.0256,587.526,759.14263,588.57713,762.2574,592.99663Z"/><path class="f" d="M766.353,592.99663c-3.11477,4.41951-2.04778,10.53379-2.04778,10.53379s6.117-1.05114,9.2318-5.47065,2.04778-10.53379,2.04778-10.53379S769.46773,588.57713,766.353,592.99663Z"/><path class="f" d="M794.48138,592.99663c3.11477,4.41951,2.04778,10.53379,2.04778,10.53379s-6.117-1.05114-9.2318-5.47065-2.04778-10.53379-2.04778-10.53379S791.36661,588.57713,794.48138,592.99663Z"/><path class="f" d="M798.57694,592.99663c-3.11477,4.41951-2.04778,10.53379-2.04778,10.53379s6.117-1.05114,9.2318-5.47065,2.04778-10.53379,2.04778-10.53379S801.69171,588.57713,798.57694,592.99663Z"/><text class="y" transform="translate(640.05636 594.26584)">1</text><polygon class="e" points="695.48 617.034 689.889 643.405 854.274 643.405 859.866 617.034 695.48 617.034"/><path class="f" d="M705.58577,632.87168c3.11477,4.41951,2.04777,10.53379,2.04777,10.53379s-6.117-1.05114-9.2318-5.47065S696.354,627.401,696.354,627.401,702.471,628.45218,705.58577,632.87168Z"/><path class="f" d="M709.68132,632.87168c-3.11477,4.41951-2.04778,10.53379-2.04778,10.53379s6.117-1.05114,9.2318-5.47065,2.04778-10.53379,2.04778-10.53379S712.79609,628.45218,709.68132,632.87168Z"/><path class="f" d="M737.80975,632.87168c3.11477,4.41951,2.04778,10.53379,2.04778,10.53379s-6.117-1.05114-9.2318-5.47065S728.578,627.401,728.578,627.401,734.695,628.45218,737.80975,632.87168Z"/><path class="f" d="M741.90531,632.87168c-3.11477,4.41951-2.04778,10.53379-2.04778,10.53379s6.117-1.05114,9.2318-5.47065,2.04778-10.53379,2.04778-10.53379S745.02008,628.45218,741.90531,632.87168Z"/><path class="f" d="M770.03373,632.87168c3.11477,4.41951,2.04778,10.53379,2.04778,10.53379s-6.117-1.05114-9.2318-5.47065-2.04778-10.53379-2.04778-10.53379S766.919,628.45218,770.03373,632.87168Z"/><path class="f" d="M774.12929,632.87168c-3.11477,4.41951-2.04778,10.53379-2.04778,10.53379s6.117-1.05114,9.2318-5.47065,2.04778-10.53379,2.04778-10.53379S777.24406,628.45218,774.12929,632.87168Z"/><path class="f" d="M802.25772,632.87168c3.11477,4.41951,2.04778,10.53379,2.04778,10.53379s-6.117-1.05114-9.2318-5.47065-2.04778-10.53379-2.04778-10.53379S799.143,628.45218,802.25772,632.87168Z"/><path class="f" d="M806.35328,632.87168c-3.11477,4.41951-2.04778,10.53379-2.04778,10.53379s6.117-1.05114,9.2318-5.47065,2.04778-10.53379,2.04778-10.53379S809.468,628.45218,806.35328,632.87168Z"/><path class="f" d="M834.4817,632.87168c3.11477,4.41951,2.04778,10.53379,2.04778,10.53379s-6.117-1.05114-9.2318-5.47065S825.2499,627.401,825.2499,627.401,831.36693,628.45218,834.4817,632.87168Z"/><path class="f" d="M838.57726,632.87168c-3.11477,4.41951-2.04778,10.53379-2.04778,10.53379s6.117-1.05114,9.2318-5.47065,2.04778-10.53379,2.04778-10.53379S841.692,628.45218,838.57726,632.87168Z"/><text class="y" transform="translate(677.90285 634.14084)">2</text><polygon class="e" points="655.48 656.91 649.888 683.281 814.274 683.281 819.865 656.91 655.48 656.91"/><path class="f" d="M665.58545,672.74674c3.11477,4.4195,2.04777,10.53379,2.04777,10.53379s-6.117-1.05115-9.2318-5.47065-2.04777-10.5338-2.04777-10.5338S662.47068,668.32723,665.58545,672.74674Z"/><path class="f" d="M669.681,672.74674c-3.11477,4.4195-2.04778,10.53379-2.04778,10.53379s6.117-1.05115,9.2318-5.47065,2.04778-10.5338,2.04778-10.5338S672.79577,668.32723,669.681,672.74674Z"/><path class="f" d="M697.80943,672.74674c3.11477,4.4195,2.04778,10.53379,2.04778,10.53379s-6.117-1.05115-9.2318-5.47065-2.04778-10.5338-2.04778-10.5338S694.69466,668.32723,697.80943,672.74674Z"/><path class="f" d="M701.905,672.74674c-3.11477,4.4195-2.04778,10.53379-2.04778,10.53379s6.117-1.05115,9.2318-5.47065,2.04778-10.5338,2.04778-10.5338S705.01976,668.32723,701.905,672.74674Z"/><path class="f" d="M730.03341,672.74674c3.11477,4.4195,2.04778,10.53379,2.04778,10.53379s-6.117-1.05115-9.2318-5.47065-2.04778-10.5338-2.04778-10.5338S726.91864,668.32723,730.03341,672.74674Z"/><path class="f" d="M734.129,672.74674c-3.11477,4.4195-2.04778,10.53379-2.04778,10.53379s6.117-1.05115,9.2318-5.47065,2.04778-10.5338,2.04778-10.5338S737.24374,668.32723,734.129,672.74674Z"/><path class="f" d="M762.2574,672.74674c3.11477,4.4195,2.04778,10.53379,2.04778,10.53379s-6.117-1.05115-9.2318-5.47065-2.04778-10.5338-2.04778-10.5338S759.14263,668.32723,762.2574,672.74674Z"/><path class="f" d="M766.353,672.74674c-3.11477,4.4195-2.04778,10.53379-2.04778,10.53379s6.117-1.05115,9.2318-5.47065,2.04778-10.5338,2.04778-10.5338S769.46773,668.32723,766.353,672.74674Z"/><path class="f" d="M794.48138,672.74674c3.11477,4.4195,2.04778,10.53379,2.04778,10.53379s-6.117-1.05115-9.2318-5.47065-2.04778-10.5338-2.04778-10.5338S791.36661,668.32723,794.48138,672.74674Z"/><path class="f" d="M798.57694,672.74674c-3.11477,4.4195-2.04778,10.53379-2.04778,10.53379s6.117-1.05115,9.2318-5.47065,2.04778-10.5338,2.04778-10.5338S801.69171,668.32723,798.57694,672.74674Z"/><text class="y" transform="translate(637.92599 674.01584)">3</text><polygon class="e" points="695.48 696.785 689.889 723.156 854.274 723.156 859.866 696.785 695.48 696.785"/><path class="f" d="M705.58577,712.62179c3.11477,4.4195,2.04777,10.53379,2.04777,10.53379s-6.117-1.05115-9.2318-5.47065-2.04777-10.53379-2.04777-10.53379S702.471,708.20228,705.58577,712.62179Z"/><path class="f" d="M709.68132,712.62179c-3.11477,4.4195-2.04778,10.53379-2.04778,10.53379s6.117-1.05115,9.2318-5.47065,2.04778-10.53379,2.04778-10.53379S712.79609,708.20228,709.68132,712.62179Z"/><path class="f" d="M737.80975,712.62179c3.11477,4.4195,2.04778,10.53379,2.04778,10.53379s-6.117-1.05115-9.2318-5.47065-2.04778-10.53379-2.04778-10.53379S734.695,708.20228,737.80975,712.62179Z"/><path class="f" d="M741.90531,712.62179c-3.11477,4.4195-2.04778,10.53379-2.04778,10.53379s6.117-1.05115,9.2318-5.47065,2.04778-10.53379,2.04778-10.53379S745.02008,708.20228,741.90531,712.62179Z"/><path class="f" d="M770.03373,712.62179c3.11477,4.4195,2.04778,10.53379,2.04778,10.53379s-6.117-1.05115-9.2318-5.47065-2.04778-10.53379-2.04778-10.53379S766.919,708.20228,770.03373,712.62179Z"/><path class="f" d="M774.12929,712.62179c-3.11477,4.4195-2.04778,10.53379-2.04778,10.53379s6.117-1.05115,9.2318-5.47065,2.04778-10.53379,2.04778-10.53379S777.24406,708.20228,774.12929,712.62179Z"/><path class="f" d="M802.25772,712.62179c3.11477,4.4195,2.04778,10.53379,2.04778,10.53379s-6.117-1.05115-9.2318-5.47065-2.04778-10.53379-2.04778-10.53379S799.143,708.20228,802.25772,712.62179Z"/><path class="f" d="M806.35328,712.62179c-3.11477,4.4195-2.04778,10.53379-2.04778,10.53379s6.117-1.05115,9.2318-5.47065,2.04778-10.53379,2.04778-10.53379S809.468,708.20228,806.35328,712.62179Z"/><path class="f" d="M834.4817,712.62179c3.11477,4.4195,2.04778,10.53379,2.04778,10.53379s-6.117-1.05115-9.2318-5.47065-2.04778-10.53379-2.04778-10.53379S831.36693,708.20228,834.4817,712.62179Z"/><path class="f" d="M838.57726,712.62179c-3.11477,4.4195-2.04778,10.53379-2.04778,10.53379s6.117-1.05115,9.2318-5.47065,2.04778-10.53379,2.04778-10.53379S841.692,708.20228,838.57726,712.62179Z"/><text class="y" transform="translate(677.23147 713.89084)">4</text><polygon class="e" points="655.48 736.66 649.888 763.031 814.274 763.031 819.865 736.66 655.48 736.66"/><path class="f" d="M665.58545,752.49684c3.11477,4.4195,2.04777,10.53379,2.04777,10.53379s-6.117-1.05114-9.2318-5.47065-2.04777-10.53379-2.04777-10.53379S662.47068,748.07734,665.58545,752.49684Z"/><path class="f" d="M669.681,752.49684c-3.11477,4.4195-2.04778,10.53379-2.04778,10.53379s6.117-1.05114,9.2318-5.47065,2.04778-10.53379,2.04778-10.53379S672.79577,748.07734,669.681,752.49684Z"/><path class="f" d="M697.80943,752.49684c3.11477,4.4195,2.04778,10.53379,2.04778,10.53379s-6.117-1.05114-9.2318-5.47065-2.04778-10.53379-2.04778-10.53379S694.69466,748.07734,697.80943,752.49684Z"/><path class="f" d="M701.905,752.49684c-3.11477,4.4195-2.04778,10.53379-2.04778,10.53379s6.117-1.05114,9.2318-5.47065,2.04778-10.53379,2.04778-10.53379S705.01976,748.07734,701.905,752.49684Z"/><path class="f" d="M730.03341,752.49684c3.11477,4.4195,2.04778,10.53379,2.04778,10.53379s-6.117-1.05114-9.2318-5.47065-2.04778-10.53379-2.04778-10.53379S726.91864,748.07734,730.03341,752.49684Z"/><path class="f" d="M734.129,752.49684c-3.11477,4.4195-2.04778,10.53379-2.04778,10.53379s6.117-1.05114,9.2318-5.47065,2.04778-10.53379,2.04778-10.53379S737.24374,748.07734,734.129,752.49684Z"/><path class="f" d="M762.2574,752.49684c3.11477,4.4195,2.04778,10.53379,2.04778,10.53379s-6.117-1.05114-9.2318-5.47065-2.04778-10.53379-2.04778-10.53379S759.14263,748.07734,762.2574,752.49684Z"/><path class="f" d="M766.353,752.49684c-3.11477,4.4195-2.04778,10.53379-2.04778,10.53379s6.117-1.05114,9.2318-5.47065,2.04778-10.53379,2.04778-10.53379S769.46773,748.07734,766.353,752.49684Z"/><path class="f" d="M794.48138,752.49684c3.11477,4.4195,2.04778,10.53379,2.04778,10.53379s-6.117-1.05114-9.2318-5.47065-2.04778-10.53379-2.04778-10.53379S791.36661,748.07734,794.48138,752.49684Z"/><path class="f" d="M798.57694,752.49684c-3.11477,4.4195-2.04778,10.53379-2.04778,10.53379s6.117-1.05114,9.2318-5.47065,2.04778-10.53379,2.04778-10.53379S801.69171,748.07734,798.57694,752.49684Z"/><text class="y" transform="translate(637.84493 753.76584)">5</text><polygon class="e" points="695.48 776.535 689.889 802.906 854.274 802.906 859.866 776.535 695.48 776.535"/><path class="f" d="M705.58577,792.37189c3.11477,4.41951,2.04777,10.53379,2.04777,10.53379s-6.117-1.05114-9.2318-5.47065-2.04777-10.53379-2.04777-10.53379S702.471,787.95239,705.58577,792.37189Z"/><path class="f" d="M709.68132,792.37189c-3.11477,4.41951-2.04778,10.53379-2.04778,10.53379s6.117-1.05114,9.2318-5.47065,2.04778-10.53379,2.04778-10.53379S712.79609,787.95239,709.68132,792.37189Z"/><path class="f" d="M737.80975,792.37189c3.11477,4.41951,2.04778,10.53379,2.04778,10.53379s-6.117-1.05114-9.2318-5.47065-2.04778-10.53379-2.04778-10.53379S734.695,787.95239,737.80975,792.37189Z"/><path class="f" d="M741.90531,792.37189c-3.11477,4.41951-2.04778,10.53379-2.04778,10.53379s6.117-1.05114,9.2318-5.47065,2.04778-10.53379,2.04778-10.53379S745.02008,787.95239,741.90531,792.37189Z"/><path class="f" d="M770.03373,792.37189c3.11477,4.41951,2.04778,10.53379,2.04778,10.53379s-6.117-1.05114-9.2318-5.47065-2.04778-10.53379-2.04778-10.53379S766.919,787.95239,770.03373,792.37189Z"/><path class="f" d="M774.12929,792.37189c-3.11477,4.41951-2.04778,10.53379-2.04778,10.53379s6.117-1.05114,9.2318-5.47065,2.04778-10.53379,2.04778-10.53379S777.24406,787.95239,774.12929,792.37189Z"/><path class="f" d="M802.25772,792.37189c3.11477,4.41951,2.04778,10.53379,2.04778,10.53379s-6.117-1.05114-9.2318-5.47065-2.04778-10.53379-2.04778-10.53379S799.143,787.95239,802.25772,792.37189Z"/><path class="f" d="M806.35328,792.37189c-3.11477,4.41951-2.04778,10.53379-2.04778,10.53379s6.117-1.05114,9.2318-5.47065,2.04778-10.53379,2.04778-10.53379S809.468,787.95239,806.35328,792.37189Z"/><path class="f" d="M834.4817,792.37189c3.11477,4.41951,2.04778,10.53379,2.04778,10.53379s-6.117-1.05114-9.2318-5.47065-2.04778-10.53379-2.04778-10.53379S831.36693,787.95239,834.4817,792.37189Z"/><path class="f" d="M838.57726,792.37189c-3.11477,4.41951-2.04778,10.53379-2.04778,10.53379s6.117-1.05114,9.2318-5.47065,2.04778-10.53379,2.04778-10.53379S841.692,787.95239,838.57726,792.37189Z"/><text class="y" transform="translate(677.43996 793.64084)">6</text><polygon class="e" points="655.48 816.41 649.888 842.781 814.274 842.781 819.865 816.41 655.48 816.41"/><path class="f" d="M665.58545,832.24694c3.11477,4.41951,2.04777,10.5338,2.04777,10.5338s-6.117-1.05115-9.2318-5.47066-2.04777-10.53379-2.04777-10.53379S662.47068,827.82744,665.58545,832.24694Z"/><path class="f" d="M669.681,832.24694c-3.11477,4.41951-2.04778,10.5338-2.04778,10.5338s6.117-1.05115,9.2318-5.47066,2.04778-10.53379,2.04778-10.53379S672.79577,827.82744,669.681,832.24694Z"/><path class="f" d="M697.80943,832.24694c3.11477,4.41951,2.04778,10.5338,2.04778,10.5338s-6.117-1.05115-9.2318-5.47066-2.04778-10.53379-2.04778-10.53379S694.69466,827.82744,697.80943,832.24694Z"/><path class="f" d="M701.905,832.24694c-3.11477,4.41951-2.04778,10.5338-2.04778,10.5338s6.117-1.05115,9.2318-5.47066,2.04778-10.53379,2.04778-10.53379S705.01976,827.82744,701.905,832.24694Z"/><path class="f" d="M730.03341,832.24694c3.11477,4.41951,2.04778,10.5338,2.04778,10.5338s-6.117-1.05115-9.2318-5.47066-2.04778-10.53379-2.04778-10.53379S726.91864,827.82744,730.03341,832.24694Z"/><path class="f" d="M734.129,832.24694c-3.11477,4.41951-2.04778,10.5338-2.04778,10.5338s6.117-1.05115,9.2318-5.47066,2.04778-10.53379,2.04778-10.53379S737.24374,827.82744,734.129,832.24694Z"/><path class="f" d="M762.2574,832.24694c3.11477,4.41951,2.04778,10.5338,2.04778,10.5338s-6.117-1.05115-9.2318-5.47066-2.04778-10.53379-2.04778-10.53379S759.14263,827.82744,762.2574,832.24694Z"/><path class="f" d="M766.353,832.24694c-3.11477,4.41951-2.04778,10.5338-2.04778,10.5338s6.117-1.05115,9.2318-5.47066,2.04778-10.53379,2.04778-10.53379S769.46773,827.82744,766.353,832.24694Z"/><path class="f" d="M794.48138,832.24694c3.11477,4.41951,2.04778,10.5338,2.04778,10.5338s-6.117-1.05115-9.2318-5.47066-2.04778-10.53379-2.04778-10.53379S791.36661,827.82744,794.48138,832.24694Z"/><path class="f" d="M798.57694,832.24694c-3.11477,4.41951-2.04778,10.5338-2.04778,10.5338s6.117-1.05115,9.2318-5.47066,2.04778-10.53379,2.04778-10.53379S801.69171,827.82744,798.57694,832.24694Z"/><text class="y" transform="translate(637.9836 833.51584)">7</text><text class="z" transform="translate(714.96574 533.02386)">R<tspan class="aa" x="17.80615" y="0">o</tspan><tspan class="ab" x="33.66895" y="0">w</tspan><tspan class="r" x="55.27441" y="0">s</tspan></text></g><circle class="b" cx="748.89585" cy="653.56089" r="181.5218"/></svg>