<svg xmlns="http://www.w3.org/2000/svg" viewBox="0 0 1434.90794 601.24882"><defs><style>.a{font-size:21px;font-family:MerriweatherUltraBold;}.b,.i{fill:none;stroke:#000;stroke-miterlimit:10;}.b{stroke-width:4px;}.c{fill:#c4c4c4;}.d{fill:#f2f2f2;}.e{font-size:20px;font-family:GothamNarrow-Bold, Gotham Narrow;font-weight:700;}.f{letter-spacing:-0.01401em;}.g{fill:#99f;}.h{fill:#ffda71;}.i{stroke-width:2px;}.j{fill:#ffc200;}.k{fill:#66c;}</style></defs><text class="a" transform="translate(575.62693 56.89751)">Randomized Block Design</text><line class="b" x1="279.61082" y1="323.15337" x2="386.03123" y2="246.64263"/><polygon points="388.448 253.503 394.189 240.778 380.298 242.167 388.448 253.503"/><line class="b" x1="279.61082" y1="389.50347" x2="386.03123" y2="466.01397"/><polygon points="380.298 470.49 394.189 471.879 388.448 459.154 380.298 470.49"/><line class="b" x1="988.87449" y1="240.77789" x2="1088.21092" y2="240.77789"/><polygon points="1086.168 247.759 1098.258 240.778 1086.168 233.797 1086.168 247.759"/><path class="c" d="M431.96855,195.5832l0,0a6.77308,6.77308,0,0,1,11.79161,4.88425v0h0a6.77307,6.77307,0,0,1,4.88424,11.79161h0a6.77308,6.77308,0,0,1-4.88424,11.79162h0v0a6.77307,6.77307,0,0,1-11.79161,4.88424h0a6.77307,6.77307,0,0,1-11.79161-4.88424v0h0a6.77308,6.77308,0,0,1-4.88425-11.79162h0a6.77308,6.77308,0,0,1,4.88425-11.79161h0v0a6.77308,6.77308,0,0,1,11.79161-4.88425Z"/><path class="c" d="M546.03727,195.58386h0a6.77308,6.77308,0,0,1,11.79162,4.88424v0h0a6.77307,6.77307,0,0,1,4.88425,11.79161v0h0a6.77307,6.77307,0,0,1-4.88425,11.79161h0v0a6.77308,6.77308,0,0,1-11.79162,4.88425v0a6.77308,6.77308,0,0,1-11.79162-4.88425v0h0a6.77307,6.77307,0,0,1-4.88425-11.79161h0v0a6.77307,6.77307,0,0,1,4.88425-11.79161h0v0a6.77308,6.77308,0,0,1,11.79162-4.88424Z"/><path class="c" d="M489.00258,195.58386h0a6.77308,6.77308,0,0,1,11.79162,4.88424v0h0a6.77307,6.77307,0,0,1,4.88425,11.79161v0h0a6.77307,6.77307,0,0,1-4.88425,11.79161h0v0a6.77308,6.77308,0,0,1-11.79162,4.88425v0a6.77308,6.77308,0,0,1-11.79162-4.88425v0h0a6.77307,6.77307,0,0,1-4.88425-11.79161h0v0a6.77307,6.77307,0,0,1,4.88425-11.79161h0v0a6.77308,6.77308,0,0,1,11.79162-4.88424Z"/><path class="c" d="M603.0713,195.58386h0a6.77307,6.77307,0,0,1,11.79161,4.88424v0h0a6.77308,6.77308,0,0,1,4.88425,11.79161l0,0h0a6.77308,6.77308,0,0,1-4.88425,11.79161h0v0a6.77308,6.77308,0,0,1-11.79161,4.88425v0l0,0a6.77308,6.77308,0,0,1-11.79161-4.88425v0h0a6.77307,6.77307,0,0,1-4.88424-11.79161h0v0a6.77307,6.77307,0,0,1,4.88424-11.79161h0v0a6.77307,6.77307,0,0,1,11.79161-4.88424Z"/><path class="c" d="M660.106,195.58386h0a6.77307,6.77307,0,0,1,11.79161,4.88424v0h0a6.77308,6.77308,0,0,1,4.88425,11.79161l0,0h0a6.77308,6.77308,0,0,1-4.88425,11.79161h0v0a6.77308,6.77308,0,0,1-11.79161,4.88425v0l0,0a6.77308,6.77308,0,0,1-11.79161-4.88425v0h0a6.77307,6.77307,0,0,1-4.88424-11.79161h0v0a6.77307,6.77307,0,0,1,4.88424-11.79161h0v0a6.77307,6.77307,0,0,1,11.79161-4.88424Z"/><path class="c" d="M431.96855,252.61214l0,0a6.77308,6.77308,0,0,1,11.79161,4.88425v0h0a6.77307,6.77307,0,0,1,4.88424,11.79161h0a6.77308,6.77308,0,0,1-4.88424,11.79162h0a6.77307,6.77307,0,0,1-11.79161,4.88425h0a6.77307,6.77307,0,0,1-11.79161-4.88425h0a6.77308,6.77308,0,0,1-4.88425-11.79162h0a6.77308,6.77308,0,0,1,4.88425-11.79161h0v0a6.77308,6.77308,0,0,1,11.79161-4.88425Z"/><path class="c" d="M489.00258,252.6128h0a6.77308,6.77308,0,0,1,11.79162,4.88424v0h0a6.77307,6.77307,0,0,1,4.88425,11.79161v0h0a6.77307,6.77307,0,0,1-4.88425,11.79161h0v0a6.77308,6.77308,0,0,1-11.79162,4.88425v0a6.77308,6.77308,0,0,1-11.79162-4.88425v0h0a6.77307,6.77307,0,0,1-4.88425-11.79161h0v0a6.77307,6.77307,0,0,1,4.88425-11.79161h0v0a6.77308,6.77308,0,0,1,11.79162-4.88424Z"/><path class="c" d="M545.70923,252.6128h0a6.77308,6.77308,0,0,1,11.79162,4.88424v0h0a6.77307,6.77307,0,0,1,4.88425,11.79161v0h0a6.77307,6.77307,0,0,1-4.88425,11.79161h0v0a6.77308,6.77308,0,0,1-11.79162,4.88425v0a6.77308,6.77308,0,0,1-11.79162-4.88425v0h0a6.77307,6.77307,0,0,1-4.88425-11.79161h0v0a6.77307,6.77307,0,0,1,4.88425-11.79161h0v0a6.77308,6.77308,0,0,1,11.79162-4.88424Z"/><polygon class="c" points="89.65 223.332 89.65 261.192 70.73 248.962 51.8 261.192 51.8 223.332 70.73 235.552 89.65 223.332"/><polygon class="c" points="89.654 280.361 89.654 318.222 70.734 305.992 51.803 318.222 51.803 280.361 70.734 292.582 89.654 280.361"/><polygon class="c" points="203.723 280.364 203.723 318.224 184.803 305.994 165.873 318.224 165.873 280.364 184.803 292.584 203.723 280.364"/><polygon class="c" points="146.688 223.327 146.688 261.187 127.768 248.957 108.837 261.187 108.837 223.327 127.768 235.547 146.688 223.327"/><polygon class="c" points="203.723 337.4 203.723 375.26 184.803 363.03 165.873 375.26 165.873 337.4 184.803 349.62 203.723 337.4"/><polygon class="c" points="203.723 394.431 203.723 432.291 184.803 420.061 165.873 432.291 165.873 394.431 184.803 406.651 203.723 394.431"/><polygon class="c" points="260.753 451.465 260.753 489.326 241.833 477.096 222.903 489.326 222.903 451.465 241.833 463.686 260.753 451.465"/><polygon class="c" points="146.683 451.465 146.683 489.326 127.763 477.096 108.833 489.326 108.833 451.465 127.763 463.686 146.683 451.465"/><polygon class="c" points="260.753 394.431 260.753 432.291 241.833 420.061 222.903 432.291 222.903 394.431 241.833 406.651 260.753 394.431"/><polygon class="c" points="260.753 280.361 260.753 318.222 241.833 305.992 222.903 318.222 222.903 280.361 241.833 292.582 260.753 280.361"/><polygon class="c" points="146.686 337.399 146.686 375.259 127.766 363.029 108.836 375.259 108.836 337.399 127.766 349.619 146.686 337.399"/><polygon class="c" points="89.649 394.431 89.649 432.291 70.729 420.061 51.799 432.291 51.799 394.431 70.729 406.651 89.649 394.431"/><path class="c" d="M127.76073,282.61813v0a6.77308,6.77308,0,0,1,11.79161,4.88425v0h0a6.77307,6.77307,0,0,1,4.88424,11.79161h0v0a6.77307,6.77307,0,0,1-4.88424,11.79161h0v0a6.77307,6.77307,0,0,1-11.79161,4.88424h0a6.77307,6.77307,0,0,1-11.79161-4.88424v0h0a6.77307,6.77307,0,0,1-4.88424-11.79161v0h0a6.77307,6.77307,0,0,1,4.88424-11.79161h0v0a6.77308,6.77308,0,0,1,11.79161-4.88425Z"/><path class="c" d="M70.72537,339.65348h0A6.77307,6.77307,0,0,1,82.517,344.53771v0h0a6.77308,6.77308,0,0,1,4.88425,11.79162h0A6.77308,6.77308,0,0,1,82.517,368.121h0v0a6.77308,6.77308,0,0,1-11.79161,4.88425v0A6.77308,6.77308,0,0,1,58.93374,368.121v0h0a6.77307,6.77307,0,0,1-4.88424-11.79161h0a6.77308,6.77308,0,0,1,4.88424-11.79162h0v0a6.77308,6.77308,0,0,1,11.79162-4.88424Z"/><path class="c" d="M127.76006,396.68817h0a6.77308,6.77308,0,0,1,11.79162,4.88425h0A6.77308,6.77308,0,0,1,144.436,413.364h0a6.77308,6.77308,0,0,1-4.88425,11.79162h0v0a6.77308,6.77308,0,0,1-11.79162,4.88425h0a6.77308,6.77308,0,0,1-11.79162-4.88425v0h0a6.77308,6.77308,0,0,1-4.88425-11.79162h0a6.77308,6.77308,0,0,1,4.88425-11.79162h0a6.77308,6.77308,0,0,1,11.79162-4.88425Z"/><path class="c" d="M70.72537,453.72286h0A6.77307,6.77307,0,0,1,82.517,458.6071v0h0a6.77308,6.77308,0,0,1,4.88425,11.79162h0A6.77308,6.77308,0,0,1,82.517,482.19037h0a6.77307,6.77307,0,0,1-11.79161,4.88425h0a6.77308,6.77308,0,0,1-11.79162-4.88425h0a6.77308,6.77308,0,0,1-4.88424-11.79162h0a6.77308,6.77308,0,0,1,4.88424-11.79162h0v0a6.77308,6.77308,0,0,1,11.79162-4.88425Z"/><path class="c" d="M184.79608,453.72286h0a6.77308,6.77308,0,0,1,11.79162,4.88425v0h0a6.77308,6.77308,0,0,1,4.88424,11.79162h0a6.77308,6.77308,0,0,1-4.88424,11.79162h0a6.77308,6.77308,0,0,1-11.79162,4.88425h0a6.77307,6.77307,0,0,1-11.79161-4.88425h0a6.77308,6.77308,0,0,1-4.88425-11.79162h0a6.77308,6.77308,0,0,1,4.88425-11.79162h0v0a6.77308,6.77308,0,0,1,11.79161-4.88425Z"/><path class="c" d="M184.79475,225.5841h0a6.77308,6.77308,0,0,1,11.79162,4.88424v0h0A6.77307,6.77307,0,0,1,201.47064,242.26v0h0a6.77307,6.77307,0,0,1-4.88425,11.79161h0v0a6.77308,6.77308,0,0,1-11.79162,4.88425v0a6.77308,6.77308,0,0,1-11.79162-4.88425v0h0A6.77308,6.77308,0,0,1,168.11886,242.26h0v0a6.77308,6.77308,0,0,1,4.88425-11.79161h0v0a6.77308,6.77308,0,0,1,11.79162-4.88424Z"/><polygon class="c" points="260.753 337.4 260.753 375.26 241.833 363.03 222.903 375.26 222.903 337.4 241.833 349.62 260.753 337.4"/><polygon class="c" points="260.753 223.333 260.753 261.193 241.833 248.963 222.903 261.193 222.903 223.333 241.833 235.553 260.753 223.333"/><line class="b" x1="697.93992" y1="240.77789" x2="797.27635" y2="240.77789"/><polygon points="795.234 247.759 807.323 240.778 795.234 233.797 795.234 247.759"/><polygon class="c" points="507.929 452.949 507.929 490.809 489.009 478.579 470.079 490.809 470.079 452.949 489.009 465.17 507.929 452.949"/><polygon class="c" points="450.892 452.948 450.892 490.808 431.972 478.578 413.042 490.808 413.042 452.948 431.972 465.168 450.892 452.948"/><polygon class="c" points="622.003 452.949 622.003 490.809 603.083 478.579 584.153 490.809 584.153 452.949 603.083 465.17 622.003 452.949"/><polygon class="c" points="564.966 452.948 564.966 490.808 546.046 478.578 527.116 490.808 527.116 452.948 546.046 465.168 564.966 452.948"/><polygon class="c" points="679.04 452.948 679.04 490.808 660.12 478.578 641.19 490.808 641.19 452.948 660.12 465.168 679.04 452.948"/><polygon class="c" points="507.929 509.981 507.929 547.841 489.009 535.611 470.079 547.841 470.079 509.981 489.009 522.201 507.929 509.981"/><polygon class="c" points="450.892 509.98 450.892 547.84 431.972 535.61 413.042 547.84 413.042 509.98 431.972 522.2 450.892 509.98"/><polygon class="c" points="507.929 395.918 507.929 433.778 489.009 421.548 470.079 433.778 470.079 395.918 489.009 408.138 507.929 395.918"/><polygon class="c" points="450.892 395.917 450.892 433.777 431.972 421.547 413.042 433.777 413.042 395.917 431.972 408.137 450.892 395.917"/><polygon class="c" points="622.003 509.981 622.003 547.841 603.083 535.611 584.153 547.841 584.153 509.981 603.083 522.201 622.003 509.981"/><polygon class="c" points="564.966 509.98 564.966 547.84 546.046 535.61 527.116 547.84 527.116 509.98 546.046 522.2 564.966 509.98"/><polygon class="c" points="679.04 509.98 679.04 547.84 660.12 535.61 641.19 547.84 641.19 509.98 660.12 522.2 679.04 509.98"/><circle class="d" cx="898.09888" cy="240.77801" r="90.77571"/><text class="e" transform="translate(842.65959 208.35357)">Randomi<tspan class="f" x="79.17969" y="0">z</tspan><tspan x="88.49902" y="0">ed</tspan></text><polygon class="g" points="841.679 243.775 859.318 223.239 883.122 225.776 896.035 249.569 878.397 270.105 854.593 267.568 841.679 243.775"/><polygon class="h" points="899.392 272.019 920.172 289.369 943.233 282.946 952.05 257.35 931.27 240 908.209 246.424 899.392 272.019"/><polygon class="i" points="841.679 243.775 859.318 223.239 883.122 225.776 896.035 249.569 878.397 270.105 854.593 267.568 841.679 243.775"/><polyline class="i" points="908.209 246.424 928.99 263.774 920.172 289.369"/><polygon class="i" points="899.392 272.019 920.172 289.369 943.233 282.946 952.05 257.35 931.27 240 908.209 246.424 899.392 272.019"/><line class="i" x1="928.98971" y1="263.77432" x2="952.05049" y2="257.35037"/><ellipse cx="942.92596" cy="266.40714" rx="3.05202" ry="1.76781" transform="translate(93.94926 755.61128) rotate(-45.72846)"/><path d="M933.71488,274.01825a4.75372,4.75372,0,0,1,3.02167-3.082c1.323-.3645,2.11974.42235,1.77536,1.76032a4.75764,4.75764,0,0,1-3.02169,3.08191C934.16481,276.14369,933.37052,275.35616,933.71488,274.01825Z"/><ellipse cx="929.29839" cy="280.30833" rx="3.05201" ry="1.76781" transform="translate(79.88012 750.0496) rotate(-45.72838)"/><ellipse cx="932.10935" cy="269.38726" rx="3.05201" ry="1.76781" transform="translate(88.54973 748.76655) rotate(-45.72849)"/><ellipse cx="940.115" cy="277.32822" rx="3.05201" ry="1.76781" transform="translate(85.27963 756.89432) rotate(-45.72834)"/><ellipse cx="931.50557" cy="246.41963" rx="1.76781" ry="3.05201" transform="translate(458.29212 1085.76122) rotate(-75.40363)"/><path d="M927.73672,252.56008a1.32115,1.32115,0,0,1,.60952-2.42467,4.76159,4.76159,0,0,1,4.17993,1.07585,1.32116,1.32116,0,0,1-.60956,2.42467A4.7538,4.7538,0,0,1,927.73672,252.56008Z"/><ellipse cx="928.7567" cy="257.35419" rx="1.76781" ry="3.05201" transform="translate(445.65323 1091.27938) rotate(-75.40355)"/><ellipse cx="914.19125" cy="267.89489" rx="1.76781" ry="3.05201" transform="translate(-38.31843 252.44738) rotate(-15.40359)"/><polyline class="i" points="854.593 267.568 872.231 247.032 859.318 223.239"/><line class="i" x1="872.23132" y1="247.03167" x2="896.03528" y2="249.56906"/><ellipse cx="885.54348" cy="242.1391" rx="1.76781" ry="3.05202" transform="translate(166.67198 813.14029) rotate(-53.75308)"/><path d="M875.20447,236.1493a4.75374,4.75374,0,0,0,3.48808,2.54211c1.365.14158,2.0212-.76577,1.46112-2.02873a4.75766,4.75766,0,0,0-3.48809-2.542C875.29813,233.97879,874.64442,234.8864,875.20447,236.1493Z"/><ellipse cx="869.81214" cy="230.67268" rx="1.76781" ry="3.05201" transform="translate(169.49021 795.76757) rotate(-53.75315)"/><ellipse cx="874.38373" cy="240.98151" rx="1.76781" ry="3.05201" transform="translate(163.04381 803.66659) rotate(-53.75304)"/><ellipse cx="880.97189" cy="231.83027" rx="1.76781" ry="3.05201" transform="translate(173.1184 805.24127) rotate(-53.75319)"/><ellipse cx="877.57164" cy="263.73483" rx="3.05201" ry="1.76781" transform="translate(-31.24198 380.9775) rotate(-24.07791)"/><path d="M872.84277,258.29911c-.81221,1.11445-.366,2.14154,1.00061,2.29114a4.7616,4.7616,0,0,0,3.9456-1.74971c.81368-1.11647.36349-2.14181-1.00064-2.29114A4.75383,4.75383,0,0,0,872.84277,258.29911Z"/><ellipse cx="873.05908" cy="253.40248" rx="3.05201" ry="1.76781" transform="translate(-27.41907 378.23867) rotate(-24.07799)"/><ellipse cx="856.95625" cy="245.40513" rx="3.05201" ry="1.76781" transform="translate(524.44399 1072.46818) rotate(-84.07795)"/><path class="i" d="M952.84013,283.702a9.35069,9.35069,0,0,1-10.14652,8.48051"/><path class="i" d="M958.798,284.2349a15.3323,15.3323,0,0,1-16.63722,13.90546"/><path class="i" d="M835.18313,249.36573a9.35069,9.35069,0,0,1,2.03325-13.06663"/><path class="i" d="M830.35346,252.89474a15.33229,15.33229,0,0,1,3.33391-21.42531"/><line class="b" x1="988.87449" y1="471.87872" x2="1088.21092" y2="471.87872"/><polygon points="1086.168 478.86 1098.258 471.879 1086.168 464.898 1086.168 478.86"/><line class="b" x1="697.93992" y1="471.87872" x2="797.27635" y2="471.87872"/><polygon points="795.234 478.86 807.323 471.879 795.234 464.898 795.234 478.86"/><circle class="d" cx="898.09888" cy="471.87874" r="90.77571"/><text class="e" transform="translate(842.65959 439.45428)">Randomi<tspan class="f" x="79.17969" y="0">z</tspan><tspan x="88.49902" y="0">ed</tspan></text><polygon class="g" points="841.679 474.876 859.318 454.339 883.122 456.877 896.035 480.67 878.397 501.206 854.593 498.669 841.679 474.876"/><polygon class="h" points="899.392 503.12 920.172 520.47 943.233 514.046 952.05 488.451 931.27 471.101 908.209 477.525 899.392 503.12"/><polygon class="i" points="841.679 474.876 859.318 454.339 883.122 456.877 896.035 480.67 878.397 501.206 854.593 498.669 841.679 474.876"/><polyline class="i" points="908.209 477.525 928.99 494.875 920.172 520.47"/><polygon class="i" points="899.392 503.12 920.172 520.47 943.233 514.046 952.05 488.451 931.27 471.101 908.209 477.525 899.392 503.12"/><line class="i" x1="928.98971" y1="494.87506" x2="952.05049" y2="488.45111"/><ellipse cx="942.92596" cy="497.50788" rx="3.05202" ry="1.76781" transform="translate(-71.528 825.3899) rotate(-45.72846)"/><path d="M933.71488,505.119a4.75375,4.75375,0,0,1,3.02167-3.082c1.323-.36449,2.11974.42236,1.77536,1.76033a4.75766,4.75766,0,0,1-3.02169,3.08191C934.16481,507.24443,933.37052,506.4569,933.71488,505.119Z"/><ellipse cx="929.29839" cy="511.40907" rx="3.05201" ry="1.76781" transform="translate(-85.59693 819.828) rotate(-45.72838)"/><ellipse cx="932.10935" cy="500.488" rx="3.05201" ry="1.76781" transform="translate(-76.92764 818.54527) rotate(-45.72849)"/><ellipse cx="940.115" cy="508.42895" rx="3.05201" ry="1.76781" transform="translate(-80.1973 826.6726) rotate(-45.72834)"/><ellipse cx="931.50557" cy="477.52037" rx="1.76781" ry="3.05201" transform="translate(234.65013 1258.62269) rotate(-75.40363)"/><path d="M927.73672,483.66082a1.32115,1.32115,0,0,1,.60952-2.42467,4.76156,4.76156,0,0,1,4.17993,1.07585,1.32116,1.32116,0,0,1-.60956,2.42467A4.75386,4.75386,0,0,1,927.73672,483.66082Z"/><ellipse cx="928.7567" cy="488.45492" rx="1.76781" ry="3.05201" transform="translate(222.01132 1264.14055) rotate(-75.40355)"/><ellipse cx="914.19125" cy="498.99563" rx="1.76781" ry="3.05201" transform="translate(-99.7026 260.74881) rotate(-15.40359)"/><polyline class="i" points="854.593 498.669 872.231 478.132 859.318 454.339"/><line class="i" x1="872.23132" y1="478.13241" x2="896.03528" y2="480.6698"/><ellipse cx="885.54348" cy="473.23983" rx="1.76781" ry="3.05202" transform="translate(-19.7053 907.59895) rotate(-53.75308)"/><path d="M875.20447,467.25a4.7537,4.7537,0,0,0,3.48808,2.5421c1.365.14159,2.0212-.76576,1.46112-2.02873a4.75763,4.75763,0,0,0-3.48809-2.542C875.29813,465.07952,874.64442,465.98714,875.20447,467.25Z"/><ellipse cx="869.81214" cy="461.77342" rx="1.76781" ry="3.05201" transform="translate(-16.88726 890.22647) rotate(-53.75315)"/><ellipse cx="874.38373" cy="472.08224" rx="1.76781" ry="3.05201" transform="translate(-23.33338 898.12512) rotate(-53.75304)"/><ellipse cx="880.97189" cy="462.93101" rx="1.76781" ry="3.05201" transform="translate(-13.25916 899.7003) rotate(-53.75319)"/><ellipse cx="877.57164" cy="494.83557" rx="3.05201" ry="1.76781" transform="translate(-125.52611 401.08522) rotate(-24.07791)"/><path d="M872.84277,489.39985c-.81221,1.11445-.366,2.14154,1.00061,2.29114a4.7616,4.7616,0,0,0,3.9456-1.74971c.81368-1.11647.36349-2.14181-1.00064-2.29114A4.75383,4.75383,0,0,0,872.84277,489.39985Z"/><ellipse cx="873.05908" cy="484.50322" rx="3.05201" ry="1.76781" transform="translate(-121.70348 398.34652) rotate(-24.07799)"/><ellipse cx="856.95625" cy="476.50587" rx="3.05201" ry="1.76781" transform="translate(294.5766 1279.72501) rotate(-84.07795)"/><path class="i" d="M952.84013,514.80277a9.35069,9.35069,0,0,1-10.14652,8.48051"/><path class="i" d="M958.798,515.33564a15.3323,15.3323,0,0,1-16.63722,13.90546"/><path class="i" d="M835.18313,480.46647a9.35069,9.35069,0,0,1,2.03325-13.06663"/><path class="i" d="M830.35346,483.99548a15.33229,15.33229,0,0,1,3.33391-21.42531"/><path class="j" d="M1136.03756,195.5832v0a6.77308,6.77308,0,0,1,11.79161,4.88425v0h0a6.77308,6.77308,0,0,1,4.88425,11.79161h0a6.77308,6.77308,0,0,1-4.88425,11.79162h0v0a6.77307,6.77307,0,0,1-11.79161,4.88424h0a6.77307,6.77307,0,0,1-11.79161-4.88424v0h0a6.77308,6.77308,0,0,1-4.88424-11.79162h0a6.77307,6.77307,0,0,1,4.88424-11.79161h0v0a6.77308,6.77308,0,0,1,11.79161-4.88425Z"/><path class="k" d="M1250.10627,195.58386h0a6.77307,6.77307,0,0,1,11.79161,4.88424v0h0a6.77307,6.77307,0,0,1,4.88424,11.79161v0h0a6.77307,6.77307,0,0,1-4.88424,11.79161h0v0a6.77308,6.77308,0,0,1-11.79161,4.88425l0,0v0a6.77308,6.77308,0,0,1-11.79161-4.88425v0h0a6.77308,6.77308,0,0,1-4.88425-11.79161h0l0,0a6.77308,6.77308,0,0,1,4.88425-11.79161h0v0a6.77307,6.77307,0,0,1,11.79161-4.88424Z"/><path class="k" d="M1193.07158,195.58386h0a6.77307,6.77307,0,0,1,11.79161,4.88424v0h0a6.77307,6.77307,0,0,1,4.88424,11.79161v0h0a6.77307,6.77307,0,0,1-4.88424,11.79161h0v0a6.77308,6.77308,0,0,1-11.79161,4.88425l0,0v0a6.77308,6.77308,0,0,1-11.79161-4.88425v0h0a6.77308,6.77308,0,0,1-4.88425-11.79161h0l0,0a6.77308,6.77308,0,0,1,4.88425-11.79161h0v0a6.77307,6.77307,0,0,1,11.79161-4.88424Z"/><path class="j" d="M1307.1403,195.58386h0a6.77308,6.77308,0,0,1,11.79162,4.88424v0h0a6.77307,6.77307,0,0,1,4.88425,11.79161v0h0a6.77307,6.77307,0,0,1-4.88425,11.79161h0v0a6.77308,6.77308,0,0,1-11.79162,4.88425v0a6.77308,6.77308,0,0,1-11.79162-4.88425v0h0a6.77307,6.77307,0,0,1-4.88425-11.79161h0v0a6.77307,6.77307,0,0,1,4.88425-11.79161h0v0a6.77308,6.77308,0,0,1,11.79162-4.88424Z"/><path class="k" d="M1364.175,195.58386h0a6.77308,6.77308,0,0,1,11.79162,4.88424v0h0a6.77307,6.77307,0,0,1,4.88425,11.79161v0h0a6.77307,6.77307,0,0,1-4.88425,11.79161h0v0a6.77308,6.77308,0,0,1-11.79162,4.88425v0a6.77308,6.77308,0,0,1-11.79162-4.88425v0h0a6.77308,6.77308,0,0,1-4.88425-11.79161h0v0a6.77308,6.77308,0,0,1,4.88425-11.79161h0v0a6.77308,6.77308,0,0,1,11.79162-4.88424Z"/><path class="k" d="M1136.03756,252.61214v0a6.77308,6.77308,0,0,1,11.79161,4.88425v0h0a6.77308,6.77308,0,0,1,4.88425,11.79161h0a6.77308,6.77308,0,0,1-4.88425,11.79162h0a6.77307,6.77307,0,0,1-11.79161,4.88425h0a6.77307,6.77307,0,0,1-11.79161-4.88425h0a6.77308,6.77308,0,0,1-4.88424-11.79162h0a6.77307,6.77307,0,0,1,4.88424-11.79161h0v0a6.77308,6.77308,0,0,1,11.79161-4.88425Z"/><path class="j" d="M1193.07158,252.6128h0a6.77307,6.77307,0,0,1,11.79161,4.88424v0h0a6.77307,6.77307,0,0,1,4.88424,11.79161v0h0a6.77307,6.77307,0,0,1-4.88424,11.79161h0v0a6.77308,6.77308,0,0,1-11.79161,4.88425l0,0v0a6.77308,6.77308,0,0,1-11.79161-4.88425v0h0a6.77308,6.77308,0,0,1-4.88425-11.79161h0l0,0a6.77308,6.77308,0,0,1,4.88425-11.79161h0v0a6.77307,6.77307,0,0,1,11.79161-4.88424Z"/><path class="j" d="M1250.16048,252.6128h0a6.77307,6.77307,0,0,1,11.79161,4.88424v0h0a6.77307,6.77307,0,0,1,4.88424,11.79161v0h0a6.77307,6.77307,0,0,1-4.88424,11.79161h0v0a6.77308,6.77308,0,0,1-11.79161,4.88425l0,0v0a6.77308,6.77308,0,0,1-11.79161-4.88425v0h0a6.77308,6.77308,0,0,1-4.88425-11.79161h0l0,0a6.77308,6.77308,0,0,1,4.88425-11.79161h0v0a6.77307,6.77307,0,0,1,11.79161-4.88424Z"/><polygon class="k" points="1211.998 452.949 1211.998 490.809 1193.078 478.579 1174.148 490.809 1174.148 452.949 1193.078 465.17 1211.998 452.949"/><polygon class="j" points="1154.961 452.948 1154.961 490.808 1136.041 478.578 1117.111 490.808 1117.111 452.948 1136.041 465.168 1154.961 452.948"/><polygon class="j" points="1326.072 452.949 1326.072 490.809 1307.152 478.579 1288.222 490.809 1288.222 452.949 1307.152 465.17 1326.072 452.949"/><polygon class="j" points="1269.035 452.948 1269.035 490.808 1250.115 478.578 1231.185 490.808 1231.185 452.948 1250.115 465.168 1269.035 452.948"/><polygon class="k" points="1383.109 452.948 1383.109 490.808 1364.189 478.578 1345.259 490.808 1345.259 452.948 1364.189 465.168 1383.109 452.948"/><polygon class="k" points="1211.998 509.981 1211.998 547.841 1193.078 535.611 1174.148 547.841 1174.148 509.981 1193.078 522.201 1211.998 509.981"/><polygon class="j" points="1154.961 509.98 1154.961 547.84 1136.041 535.61 1117.111 547.84 1117.111 509.98 1136.041 522.2 1154.961 509.98"/><polygon class="j" points="1211.998 395.918 1211.998 433.778 1193.078 421.548 1174.148 433.778 1174.148 395.918 1193.078 408.138 1211.998 395.918"/><polygon class="k" points="1154.961 395.917 1154.961 433.777 1136.041 421.547 1117.111 433.777 1117.111 395.917 1136.041 408.137 1154.961 395.917"/><polygon class="k" points="1326.072 509.981 1326.072 547.841 1307.152 535.611 1288.222 547.841 1288.222 509.981 1307.152 522.201 1326.072 509.981"/><polygon class="k" points="1269.035 509.98 1269.035 547.84 1250.115 535.61 1231.185 547.84 1231.185 509.98 1250.115 522.2 1269.035 509.98"/><polygon class="j" points="1383.109 509.98 1383.109 547.84 1364.189 535.61 1345.259 547.84 1345.259 509.98 1364.189 522.2 1383.109 509.98"/></svg>