<svg xmlns="http://www.w3.org/2000/svg" xmlns:xlink="http://www.w3.org/1999/xlink" viewBox="0 0 770.76447 574.9804"><defs><style>.a,.e,.p{fill:none;}.b,.r{font-size:20px;}.b{font-family:GothamNarrow-Bold, Gotham Narrow;font-weight:700;}.c{letter-spacing:-0.001em;}.d{font-size:21px;font-family:MerriweatherUltraBold;}.e,.o,.p{stroke:#000;stroke-miterlimit:10;}.e{stroke-width:1.5px;}.f{letter-spacing:-0.01001em;}.g{letter-spacing:0.00002em;}.h{letter-spacing:-0.00498em;}.i{letter-spacing:-0.01399em;}.j{clip-path:url(#a);}.k{fill:#ffe088;}.l{fill:#9fedff;}.m{fill:#ccc5ff;}.n{fill:#ffb3c3;}.o{fill:#ead9c5;}.o,.p{stroke-width:4px;}.q{fill:#3c6;}.r{font-family:GothamNarrow-Medium, Gotham Narrow;font-weight:500;}.s{letter-spacing:-0.00999em;}.t{letter-spacing:-0.02em;}.u{letter-spacing:-0.05em;}.v{letter-spacing:-0.01499em;}</style><clipPath id="a"><circle class="a" cx="442.01843" cy="244.63747" r="303.09171"/></clipPath></defs><text class="b" transform="translate(25.65483 225.99531)">Experime<tspan class="c" x="84.09863" y="0">n</tspan><tspan x="95.03857" y="0">tal</tspan><tspan x="18.14941" y="24">Unit (EU)</tspan></text><text class="d" transform="translate(380.45329 44.5506)">Replication</text><line class="e" x1="159.6552" y1="217.00122" x2="244.89836" y2="217.00122"/><polygon points="243.804 220.741 250.28 217.001 243.804 213.261 243.804 220.741"/><line class="e" x1="139.78752" y1="245.01612" x2="228.2354" y2="300.40576"/><polygon points="225.323 302.994 232.797 303.262 229.293 296.656 225.323 302.994"/><text class="b" transform="translate(57.47221 358.82075)"><tspan class="f">R</tspan><tspan class="g" x="12.33984" y="0">eplic</tspan><tspan class="h" x="55.07959" y="0">a</tspan><tspan class="i" x="65.33984" y="0">t</tspan><tspan x="72.31982" y="0">es</tspan></text><line class="e" x1="157.37712" y1="366.62354" x2="205.07817" y2="389.07398"/><polygon points="202.496 391.992 209.948 391.366 205.681 385.224 202.496 391.992"/><g class="j"><rect class="k" x="592.19628" y="248.83622" width="31.73561" height="20.71072" rx="2"/><rect class="l" x="601.84325" y="203.29069" width="31.73561" height="20.71072" rx="2"/><rect class="m" x="582.54064" y="294.38188" width="31.73561" height="20.71072" rx="2"/><rect class="n" x="572.89269" y="339.92741" width="31.73561" height="20.71072" rx="2"/><rect class="n" x="563.23742" y="385.4738" width="31.73561" height="20.71072" rx="2"/><rect class="l" x="553.59008" y="431.01933" width="31.73561" height="20.71072" rx="2"/><rect class="k" x="543.93407" y="476.56523" width="31.73561" height="20.71072" rx="2"/><rect class="m" x="534.28771" y="522.11039" width="31.73561" height="20.71072" rx="2"/><polygon class="o" points="584.5 191.455 507.287 555.822 223.374 555.822 300.586 191.455 584.5 191.455"/><line class="p" x1="574.8427" y1="237.0011" x2="290.92932" y2="237.0011"/><line class="p" x1="565.19557" y1="282.5469" x2="281.2822" y2="282.5469"/><line class="p" x1="555.53983" y1="328.0927" x2="271.62646" y2="328.0927"/><line class="p" x1="545.89271" y1="373.63851" x2="261.97933" y2="373.63851"/><line class="p" x1="536.23696" y1="419.18431" x2="252.32359" y2="419.18431"/><line class="p" x1="526.58984" y1="464.73011" x2="242.67646" y2="464.73011"/><line class="p" x1="516.93409" y1="510.27591" x2="233.02072" y2="510.27591"/><path class="q" d="M318.04,218.808c5.37958,7.633,3.53676,18.1931,3.53676,18.1931s-10.56484-1.81545-15.94441-9.44846-3.53676-18.1931-3.53676-18.1931S312.66043,211.175,318.04,218.808Z"/><path class="q" d="M325.11351,218.808c-5.37957,7.633-3.53675,18.1931-3.53675,18.1931s10.56483-1.81545,15.94441-9.44846,3.53675-18.1931,3.53675-18.1931S330.49309,211.175,325.11351,218.808Z"/><path class="q" d="M373.69463,218.808c5.37957,7.633,3.53675,18.1931,3.53675,18.1931s-10.56483-1.81545-15.94441-9.44846-3.53675-18.1931-3.53675-18.1931S368.31505,211.175,373.69463,218.808Z"/><path class="q" d="M380.76814,218.808c-5.37958,7.633-3.53676,18.1931-3.53676,18.1931s10.56484-1.81545,15.94441-9.44846,3.53676-18.1931,3.53676-18.1931S386.14771,211.175,380.76814,218.808Z"/><path class="q" d="M429.34925,218.808c5.37958,7.633,3.53676,18.1931,3.53676,18.1931s-10.56483-1.81545-15.94441-9.44846-3.53676-18.1931-3.53676-18.1931S423.96968,211.175,429.34925,218.808Z"/><path class="q" d="M436.42277,218.808c-5.37958,7.633-3.53676,18.1931-3.53676,18.1931s10.56483-1.81545,15.94441-9.44846,3.53676-18.1931,3.53676-18.1931S441.80234,211.175,436.42277,218.808Z"/><path class="q" d="M485.00388,218.808c5.37958,7.633,3.53676,18.1931,3.53676,18.1931s-10.56484-1.81545-15.94441-9.44846-3.53676-18.1931-3.53676-18.1931S479.62431,211.175,485.00388,218.808Z"/><path class="q" d="M492.07739,218.808c-5.37957,7.633-3.53675,18.1931-3.53675,18.1931s10.56483-1.81545,15.94441-9.44846,3.53675-18.1931,3.53675-18.1931S497.457,211.175,492.07739,218.808Z"/><path class="q" d="M540.65851,218.808c5.37957,7.633,3.53675,18.1931,3.53675,18.1931s-10.56483-1.81545-15.94441-9.44846-3.53675-18.1931-3.53675-18.1931S535.27893,211.175,540.65851,218.808Z"/><path class="q" d="M547.732,218.808c-5.37958,7.633-3.53676,18.1931-3.53676,18.1931s10.56484-1.81545,15.94441-9.44846,3.53676-18.1931,3.53676-18.1931S553.11159,211.175,547.732,218.808Z"/><path class="q" d="M308.39288,264.3538c5.37957,7.633,3.53675,18.1931,3.53675,18.1931s-10.56483-1.81545-15.94441-9.44846-3.53675-18.1931-3.53675-18.1931S303.0133,256.72079,308.39288,264.3538Z"/><path class="q" d="M315.46639,264.3538c-5.37958,7.633-3.53676,18.1931-3.53676,18.1931s10.56484-1.81545,15.94441-9.44846,3.53676-18.1931,3.53676-18.1931S320.846,256.72079,315.46639,264.3538Z"/><path class="q" d="M364.0475,264.3538c5.37958,7.633,3.53676,18.1931,3.53676,18.1931s-10.56483-1.81545-15.94441-9.44846-3.53676-18.1931-3.53676-18.1931S358.66793,256.72079,364.0475,264.3538Z"/><path class="q" d="M371.121,264.3538c-5.37958,7.633-3.53676,18.1931-3.53676,18.1931s10.56483-1.81545,15.94441-9.44846,3.53676-18.1931,3.53676-18.1931S376.50059,256.72079,371.121,264.3538Z"/><path class="q" d="M419.70213,264.3538c5.37958,7.633,3.53676,18.1931,3.53676,18.1931s-10.56484-1.81545-15.94441-9.44846-3.53676-18.1931-3.53676-18.1931S414.32256,256.72079,419.70213,264.3538Z"/><path class="q" d="M426.77564,264.3538c-5.37957,7.633-3.53675,18.1931-3.53675,18.1931s10.56483-1.81545,15.94441-9.44846,3.53675-18.1931,3.53675-18.1931S432.15522,256.72079,426.77564,264.3538Z"/><path class="q" d="M475.35676,264.3538c5.37957,7.633,3.53675,18.1931,3.53675,18.1931s-10.56483-1.81545-15.94441-9.44846-3.53675-18.1931-3.53675-18.1931S469.97718,256.72079,475.35676,264.3538Z"/><path class="q" d="M482.43027,264.3538c-5.37958,7.633-3.53676,18.1931-3.53676,18.1931s10.56484-1.81545,15.94441-9.44846,3.53676-18.1931,3.53676-18.1931S487.80984,256.72079,482.43027,264.3538Z"/><path class="q" d="M531.01138,264.3538c5.37958,7.633,3.53676,18.1931,3.53676,18.1931s-10.56483-1.81545-15.94441-9.44846-3.53676-18.1931-3.53676-18.1931S525.63181,256.72079,531.01138,264.3538Z"/><path class="q" d="M538.0849,264.3538c-5.37958,7.633-3.53676,18.1931-3.53676,18.1931s10.56483-1.81545,15.94441-9.44846,3.53676-18.1931,3.53676-18.1931S543.46447,256.72079,538.0849,264.3538Z"/><path class="q" d="M298.73713,309.8996c5.37958,7.633,3.53676,18.1931,3.53676,18.1931s-10.56484-1.81545-15.94441-9.44846-3.53676-18.1931-3.53676-18.1931S293.35756,302.2666,298.73713,309.8996Z"/><path class="q" d="M305.81064,309.8996c-5.37957,7.633-3.53675,18.1931-3.53675,18.1931s10.56483-1.81545,15.94441-9.44846,3.53675-18.1931,3.53675-18.1931S311.19022,302.2666,305.81064,309.8996Z"/><path class="q" d="M354.39176,309.8996c5.37957,7.633,3.53676,18.1931,3.53676,18.1931s-10.56484-1.81545-15.94441-9.44846-3.53676-18.1931-3.53676-18.1931S349.01218,302.2666,354.39176,309.8996Z"/><path class="q" d="M361.46527,309.8996c-5.37957,7.633-3.53675,18.1931-3.53675,18.1931s10.56483-1.81545,15.94441-9.44846,3.53675-18.1931,3.53675-18.1931S366.84485,302.2666,361.46527,309.8996Z"/><path class="q" d="M410.04639,309.8996c5.37957,7.633,3.53675,18.1931,3.53675,18.1931s-10.56483-1.81545-15.94441-9.44846-3.53675-18.1931-3.53675-18.1931S404.66681,302.2666,410.04639,309.8996Z"/><path class="q" d="M417.1199,309.8996c-5.37958,7.633-3.53676,18.1931-3.53676,18.1931s10.56484-1.81545,15.94441-9.44846,3.53676-18.1931,3.53676-18.1931S422.49947,302.2666,417.1199,309.8996Z"/><path class="q" d="M465.701,309.8996c5.37958,7.633,3.53676,18.1931,3.53676,18.1931s-10.56484-1.81545-15.94441-9.44846-3.53676-18.1931-3.53676-18.1931S460.32144,302.2666,465.701,309.8996Z"/><path class="q" d="M472.77452,309.8996c-5.37957,7.633-3.53675,18.1931-3.53675,18.1931s10.56483-1.81545,15.94441-9.44846,3.53675-18.1931,3.53675-18.1931S478.1541,302.2666,472.77452,309.8996Z"/><path class="q" d="M521.35564,309.8996c5.37958,7.633,3.53676,18.1931,3.53676,18.1931s-10.56484-1.81545-15.94441-9.44846-3.53676-18.1931-3.53676-18.1931S515.97606,302.2666,521.35564,309.8996Z"/><path class="q" d="M528.42915,309.8996c-5.37957,7.633-3.53675,18.1931-3.53675,18.1931s10.56483-1.81545,15.94441-9.44846,3.53675-18.1931,3.53675-18.1931S533.80873,302.2666,528.42915,309.8996Z"/><path class="q" d="M289.09,355.4454c5.37957,7.633,3.53676,18.19311,3.53676,18.19311s-10.56484-1.81546-15.94441-9.44846-3.53676-18.19311-3.53676-18.19311S283.71043,347.8124,289.09,355.4454Z"/><path class="q" d="M296.16352,355.4454c-5.37957,7.633-3.53675,18.19311-3.53675,18.19311s10.56483-1.81546,15.94441-9.44846,3.53675-18.19311,3.53675-18.19311S301.5431,347.8124,296.16352,355.4454Z"/><path class="q" d="M344.74464,355.4454c5.37957,7.633,3.53675,18.19311,3.53675,18.19311s-10.56483-1.81546-15.94441-9.44846-3.53675-18.19311-3.53675-18.19311S339.36506,347.8124,344.74464,355.4454Z"/><path class="q" d="M351.81815,355.4454c-5.37958,7.633-3.53676,18.19311-3.53676,18.19311s10.56484-1.81546,15.94441-9.44846,3.53676-18.19311,3.53676-18.19311S357.19772,347.8124,351.81815,355.4454Z"/><path class="q" d="M400.39926,355.4454c5.37958,7.633,3.53676,18.19311,3.53676,18.19311s-10.56484-1.81546-15.94441-9.44846-3.53676-18.19311-3.53676-18.19311S395.01969,347.8124,400.39926,355.4454Z"/><path class="q" d="M407.47278,355.4454c-5.37958,7.633-3.53676,18.19311-3.53676,18.19311s10.56483-1.81546,15.94441-9.44846,3.53675-18.19311,3.53675-18.19311S412.85235,347.8124,407.47278,355.4454Z"/><path class="q" d="M456.05389,355.4454c5.37958,7.633,3.53676,18.19311,3.53676,18.19311s-10.56484-1.81546-15.94441-9.44846-3.53676-18.19311-3.53676-18.19311S450.67431,347.8124,456.05389,355.4454Z"/><path class="q" d="M463.1274,355.4454c-5.37957,7.633-3.53675,18.19311-3.53675,18.19311s10.56483-1.81546,15.94441-9.44846,3.53675-18.19311,3.53675-18.19311S468.507,347.8124,463.1274,355.4454Z"/><path class="q" d="M511.70852,355.4454c5.37957,7.633,3.53675,18.19311,3.53675,18.19311s-10.56483-1.81546-15.94441-9.44846-3.53675-18.19311-3.53675-18.19311S506.32894,347.8124,511.70852,355.4454Z"/><path class="q" d="M518.782,355.4454c-5.37958,7.633-3.53676,18.19311-3.53676,18.19311s10.56484-1.81546,15.94441-9.44846,3.53676-18.19311,3.53676-18.19311S524.1616,347.8124,518.782,355.4454Z"/><path class="q" d="M279.43427,400.99121c5.37957,7.633,3.53675,18.1931,3.53675,18.1931s-10.56483-1.81546-15.94441-9.44846-3.53675-18.1931-3.53675-18.1931S274.05469,393.3582,279.43427,400.99121Z"/><path class="q" d="M286.50778,400.99121c-5.37958,7.633-3.53676,18.1931-3.53676,18.1931s10.56484-1.81546,15.94441-9.44846,3.53676-18.1931,3.53676-18.1931S291.88735,393.3582,286.50778,400.99121Z"/><path class="q" d="M335.08889,400.99121c5.37958,7.633,3.53676,18.1931,3.53676,18.1931s-10.56484-1.81546-15.94441-9.44846-3.53676-18.1931-3.53676-18.1931S329.70932,393.3582,335.08889,400.99121Z"/><path class="q" d="M342.1624,400.99121c-5.37957,7.633-3.53675,18.1931-3.53675,18.1931s10.56483-1.81546,15.94441-9.44846,3.53675-18.1931,3.53675-18.1931S347.542,393.3582,342.1624,400.99121Z"/><path class="q" d="M390.74352,400.99121c5.37957,7.633,3.53675,18.1931,3.53675,18.1931s-10.56483-1.81546-15.9444-9.44846-3.53676-18.1931-3.53676-18.1931S385.36394,393.3582,390.74352,400.99121Z"/><path class="q" d="M397.817,400.99121c-5.37957,7.633-3.53676,18.1931-3.53676,18.1931s10.56484-1.81546,15.94441-9.44846,3.53676-18.1931,3.53676-18.1931S403.19661,393.3582,397.817,400.99121Z"/><path class="q" d="M446.39815,400.99121c5.37957,7.633,3.53675,18.1931,3.53675,18.1931s-10.56483-1.81546-15.94441-9.44846-3.53675-18.1931-3.53675-18.1931S441.01857,393.3582,446.39815,400.99121Z"/><path class="q" d="M453.47166,400.99121c-5.37958,7.633-3.53676,18.1931-3.53676,18.1931s10.56484-1.81546,15.94441-9.44846,3.53676-18.1931,3.53676-18.1931S458.85123,393.3582,453.47166,400.99121Z"/><path class="q" d="M502.05277,400.99121c5.37958,7.633,3.53676,18.1931,3.53676,18.1931s-10.56484-1.81546-15.94441-9.44846-3.53676-18.1931-3.53676-18.1931S496.6732,393.3582,502.05277,400.99121Z"/><path class="q" d="M509.12628,400.99121c-5.37957,7.633-3.53675,18.1931-3.53675,18.1931s10.56483-1.81546,15.94441-9.44846,3.53675-18.1931,3.53675-18.1931S514.50586,393.3582,509.12628,400.99121Z"/><path class="q" d="M269.78714,446.537c5.37958,7.633,3.53676,18.1931,3.53676,18.1931s-10.56484-1.81545-15.94441-9.44846-3.53676-18.1931-3.53676-18.1931S264.40757,438.904,269.78714,446.537Z"/><path class="q" d="M276.86065,446.537c-5.37957,7.633-3.53675,18.1931-3.53675,18.1931s10.56483-1.81545,15.94441-9.44846,3.53675-18.1931,3.53675-18.1931S282.24023,438.904,276.86065,446.537Z"/><path class="q" d="M325.44177,446.537c5.37957,7.633,3.53675,18.1931,3.53675,18.1931s-10.56483-1.81545-15.9444-9.44846-3.53676-18.1931-3.53676-18.1931S320.06219,438.904,325.44177,446.537Z"/><path class="q" d="M332.51528,446.537c-5.37957,7.633-3.53676,18.1931-3.53676,18.1931s10.56484-1.81545,15.94441-9.44846,3.53676-18.1931,3.53676-18.1931S337.89486,438.904,332.51528,446.537Z"/><path class="q" d="M381.0964,446.537c5.37957,7.633,3.53675,18.1931,3.53675,18.1931s-10.56483-1.81545-15.94441-9.44846-3.53675-18.1931-3.53675-18.1931S375.71682,438.904,381.0964,446.537Z"/><path class="q" d="M388.16991,446.537c-5.37958,7.633-3.53676,18.1931-3.53676,18.1931s10.56484-1.81545,15.94441-9.44846,3.53676-18.1931,3.53676-18.1931S393.54948,438.904,388.16991,446.537Z"/><path class="q" d="M436.751,446.537c5.37958,7.633,3.53676,18.1931,3.53676,18.1931s-10.56484-1.81545-15.94441-9.44846-3.53676-18.1931-3.53676-18.1931S431.37145,438.904,436.751,446.537Z"/><path class="q" d="M443.82453,446.537c-5.37957,7.633-3.53675,18.1931-3.53675,18.1931s10.56483-1.81545,15.94441-9.44846,3.53675-18.1931,3.53675-18.1931S449.20411,438.904,443.82453,446.537Z"/><path class="q" d="M492.40565,446.537c5.37957,7.633,3.53675,18.1931,3.53675,18.1931s-10.56483-1.81545-15.9444-9.44846-3.53676-18.1931-3.53676-18.1931S487.02607,438.904,492.40565,446.537Z"/><path class="q" d="M499.47916,446.537c-5.37957,7.633-3.53676,18.1931-3.53676,18.1931s10.56484-1.81545,15.94441-9.44846,3.53676-18.1931,3.53676-18.1931S504.85874,438.904,499.47916,446.537Z"/><path class="q" d="M260.1314,492.08281c5.37957,7.633,3.53675,18.1931,3.53675,18.1931s-10.56483-1.81545-15.94441-9.44846-3.53675-18.1931-3.53675-18.1931S254.75182,484.4498,260.1314,492.08281Z"/><path class="q" d="M267.20491,492.08281c-5.37958,7.633-3.53676,18.1931-3.53676,18.1931s10.56484-1.81545,15.94441-9.44846,3.53676-18.1931,3.53676-18.1931S272.58448,484.4498,267.20491,492.08281Z"/><path class="q" d="M315.786,492.08281c5.37958,7.633,3.53676,18.1931,3.53676,18.1931s-10.56483-1.81545-15.94441-9.44846-3.53676-18.1931-3.53676-18.1931S310.40645,484.4498,315.786,492.08281Z"/><path class="q" d="M322.85954,492.08281c-5.37958,7.633-3.53676,18.1931-3.53676,18.1931s10.56483-1.81545,15.94441-9.44846,3.53676-18.1931,3.53676-18.1931S328.23911,484.4498,322.85954,492.08281Z"/><path class="q" d="M371.44065,492.08281c5.37958,7.633,3.53676,18.1931,3.53676,18.1931s-10.56484-1.81545-15.94441-9.44846-3.53676-18.1931-3.53676-18.1931S366.06108,484.4498,371.44065,492.08281Z"/><path class="q" d="M378.51416,492.08281c-5.37957,7.633-3.53675,18.1931-3.53675,18.1931s10.56483-1.81545,15.94441-9.44846,3.53675-18.1931,3.53675-18.1931S383.89374,484.4498,378.51416,492.08281Z"/><path class="q" d="M427.09528,492.08281c5.37957,7.633,3.53675,18.1931,3.53675,18.1931s-10.56483-1.81545-15.94441-9.44846-3.53675-18.1931-3.53675-18.1931S421.7157,484.4498,427.09528,492.08281Z"/><path class="q" d="M434.16879,492.08281c-5.37958,7.633-3.53676,18.1931-3.53676,18.1931s10.56484-1.81545,15.94441-9.44846,3.53676-18.1931,3.53676-18.1931S439.54836,484.4498,434.16879,492.08281Z"/><path class="q" d="M482.7499,492.08281c5.37958,7.633,3.53676,18.1931,3.53676,18.1931s-10.56483-1.81545-15.94441-9.44846-3.53676-18.1931-3.53676-18.1931S477.37033,484.4498,482.7499,492.08281Z"/><path class="q" d="M489.82342,492.08281c-5.37958,7.633-3.53676,18.1931-3.53676,18.1931s10.56483-1.81545,15.94441-9.44846,3.53676-18.1931,3.53676-18.1931S495.203,484.4498,489.82342,492.08281Z"/><path class="q" d="M250.48427,537.62861c5.37958,7.633,3.53676,18.1931,3.53676,18.1931s-10.56483-1.81545-15.94441-9.44846-3.53676-18.1931-3.53676-18.1931S245.1047,529.9956,250.48427,537.62861Z"/><path class="q" d="M257.55779,537.62861c-5.37958,7.633-3.53676,18.1931-3.53676,18.1931s10.56483-1.81545,15.94441-9.44846,3.53676-18.1931,3.53676-18.1931S262.93736,529.9956,257.55779,537.62861Z"/><path class="q" d="M306.1389,537.62861c5.37958,7.633,3.53676,18.1931,3.53676,18.1931s-10.56484-1.81545-15.94441-9.44846-3.53676-18.1931-3.53676-18.1931S300.75933,529.9956,306.1389,537.62861Z"/><path class="q" d="M313.21241,537.62861c-5.37957,7.633-3.53675,18.1931-3.53675,18.1931s10.56483-1.81545,15.94441-9.44846,3.53675-18.1931,3.53675-18.1931S318.592,529.9956,313.21241,537.62861Z"/><path class="q" d="M361.79353,537.62861c5.37957,7.633,3.53675,18.1931,3.53675,18.1931s-10.56483-1.81545-15.94441-9.44846-3.53675-18.1931-3.53675-18.1931S356.414,529.9956,361.79353,537.62861Z"/><path class="q" d="M368.867,537.62861c-5.37958,7.633-3.53676,18.1931-3.53676,18.1931s10.56484-1.81545,15.94441-9.44846,3.53676-18.1931,3.53676-18.1931S374.24661,529.9956,368.867,537.62861Z"/><path class="q" d="M417.44815,537.62861c5.37958,7.633,3.53676,18.1931,3.53676,18.1931s-10.56483-1.81545-15.94441-9.44846-3.53676-18.1931-3.53676-18.1931S412.06858,529.9956,417.44815,537.62861Z"/><path class="q" d="M424.52167,537.62861c-5.37958,7.633-3.53676,18.1931-3.53676,18.1931s10.56483-1.81545,15.94441-9.44846,3.53676-18.1931,3.53676-18.1931S429.90124,529.9956,424.52167,537.62861Z"/><path class="q" d="M473.10278,537.62861c5.37958,7.633,3.53676,18.1931,3.53676,18.1931s-10.56484-1.81545-15.94441-9.44846-3.53676-18.1931-3.53676-18.1931S467.72321,529.9956,473.10278,537.62861Z"/><path class="q" d="M480.17629,537.62861c-5.37957,7.633-3.53675,18.1931-3.53675,18.1931s10.56483-1.81545,15.94441-9.44846,3.53675-18.1931,3.53675-18.1931S485.55587,529.9956,480.17629,537.62861Z"/><text class="r" transform="translate(268.94914 221.00141)">1</text><text class="r" transform="translate(594.19572 266.54706)">CL</text><text class="r" transform="translate(574.89226 357.63886)">AM</text><text class="r" transform="translate(565.23698 403.18464)">AM</text><text class="r" transform="translate(584.53996 312.09296)">BM</text><text class="r" transform="translate(545.93339 494.27607)">CL</text><text class="r" transform="translate(555.58952 448.73017)">AH</text><text class="r" transform="translate(536.28715 539.82123)">BM</text><text class="r" transform="translate(603.8427 221.00153)">AH</text><text class="r" transform="translate(255.58293 266.5467)">2</text><text class="r" transform="translate(245.96696 312.09308)">3</text><text class="r" transform="translate(235.11979 357.63825)">4</text><text class="r" transform="translate(226.52409 403.18439)">5</text><text class="r" transform="translate(216.17668 448.72993)">6</text><text class="r" transform="translate(207.4611 494.27607)">7</text><text class="r" transform="translate(197.25334 539.82148)">8</text><text class="b" transform="translate(419.94798 155.78266)">Field</text><text class="b" transform="translate(264.46306 155.7829)"><tspan class="s">R</tspan><tspan class="t" x="12.34033" y="0">o</tspan><tspan x="23.48047" y="0">w</tspan></text><text class="b" transform="translate(591.08 155.7829)"><tspan class="u">T</tspan><tspan class="v" x="10.03955" y="0">r</tspan><tspan x="17.07959" y="0">e</tspan><tspan class="h" x="27.73926" y="0">a</tspan><tspan x="37.99951" y="0">tme</tspan><tspan class="c" x="72.63867" y="0">n</tspan><tspan x="83.57861" y="0">t</tspan></text></g><line class="e" x1="216.5684" y1="349.61573" x2="164.66618" y2="349.61573"/><polygon points="215.474 345.876 221.95 349.616 215.474 353.355 215.474 345.876"/></svg>