<svg xmlns="http://www.w3.org/2000/svg" viewBox="0 0 883.30482 568.5376"><defs><style>.a{fill:#ea7d7d;}.b{fill:#75bbef;}.c,.x{fill:none;stroke:#000;stroke-miterlimit:10;}.c{stroke-width:3px;}.d,.f{font-size:29px;font-family:GothamNarrow-Medium, Gotham Narrow;font-weight:500;}.d{letter-spacing:-0.053em;}.e{letter-spacing:0.00002em;}.g{letter-spacing:-0.00199em;}.h{letter-spacing:-0.005em;}.i{letter-spacing:-0.01298em;}.j{font-size:25px;font-family:GothamNarrow-Book, Gotham Narrow;}.k{letter-spacing:-0.02699em;}.l{letter-spacing:-0.005em;}.m{letter-spacing:-0.02em;}.n{letter-spacing:-0.00498em;}.o{letter-spacing:-0.00002em;}.p{letter-spacing:-0.02701em;}.q{letter-spacing:-0.01998em;}.r{fill:#eaeaea;}.s{letter-spacing:-0.01397em;}.t{letter-spacing:-0.00002em;}.u{letter-spacing:-0.01699em;}.v{letter-spacing:-0.002em;}.w{letter-spacing:-0.013em;}.x{stroke-width:4px;}</style></defs><rect class="a" x="323.22558" y="325.36119" width="221.8561" height="221.8561"/><circle class="b" cx="434.15229" cy="132.24702" r="110.92671"/><rect class="c" x="28.79559" y="258.63621" width="165.04716" height="51.26383" rx="5.00135"/><text class="d" transform="translate(59.39564 293.36978)">V<tspan class="e" x="17.02295" y="0">ariable</tspan></text><text class="f" transform="translate(361.71254 126.17203)"><tspan class="g">C</tspan><tspan class="h" x="17.83496" y="0">a</tspan><tspan class="i" x="32.5376" y="0">t</tspan><tspan x="42.48486" y="0">egorical</tspan></text><text class="j" transform="translate(367.26674 157.24649)"><tspan class="k">(</tspan><tspan x="8.80029" y="0">Qualit</tspan><tspan class="l" x="72.99902" y="0">a</tspan><tspan x="85.44873" y="0">ti</tspan><tspan class="k" x="99.92334" y="0">v</tspan><tspan class="m" x="111.99854" y="0">e</tspan><tspan x="124.29834" y="0">)</tspan></text><text class="f" transform="translate(369.74574 430.21475)">Numerical</text><text class="j" transform="translate(363.45424 461.28897)"><tspan class="k">(</tspan><tspan x="8.80029" y="0">Quanit</tspan><tspan class="n" x="80.62354" y="0">a</tspan><tspan class="o" x="93.07373" y="0">ti</tspan><tspan class="p" x="107.54834" y="0">v</tspan><tspan class="q" x="119.62305" y="0">e</tspan><tspan x="131.92334" y="0">)</tspan></text><rect class="r" x="679.46199" y="64.59487" width="175.04724" height="51.26383" rx="5.00135"/><text class="f" transform="translate(713.73988 99.32852)">Nominal</text><rect class="r" x="679.46199" y="148.63533" width="175.04724" height="51.26383" rx="5.00135"/><text class="f" transform="translate(720.0768 183.3688)">O<tspan class="s" x="20.87939" y="0">r</tspan><tspan class="t" x="30.91357" y="0">dinal</tspan></text><rect class="r" x="679.46199" y="368.63709" width="175.04724" height="51.26383" rx="5.00135"/><text class="f" transform="translate(714.79896 403.371)">Disc<tspan class="u" x="53.35889" y="0">r</tspan><tspan class="v" x="63.30566" y="0">e</tspan><tspan class="w" x="78.44336" y="0">t</tspan><tspan x="88.39014" y="0">e</tspan></text><rect class="r" x="679.46199" y="452.67755" width="175.04724" height="51.26383" rx="5.00135"/><text class="f" transform="translate(694.71644 487.41128)"><tspan class="i">C</tspan><tspan x="17.51611" y="0">o</tspan><tspan class="v" x="33.98779" y="0">n</tspan><tspan x="49.70557" y="0">tinuous</tspan></text><line class="x" x1="193.84242" y1="284.26822" x2="323.10658" y2="157.27627"/><polygon points="325.56 161.856 328.226 152.247 318.571 154.742 325.56 161.856"/><line class="x" x1="193.84242" y1="284.26822" x2="323.10658" y2="411.25992"/><polygon points="318.571 413.794 328.226 416.289 325.56 406.68 318.571 413.794"/><circle cx="193.84262" cy="284.26813" r="5.33219"/><line class="x" x1="545.07924" y1="132.24698" x2="677.59144" y2="92.29825"/><polygon points="677.633 97.493 684.462 90.227 674.755 87.945 677.633 97.493"/><line class="x" x1="545.07924" y1="132.24698" x2="677.59144" y2="172.19595"/><polygon points="674.755 176.549 684.462 174.267 677.633 167.001 674.755 176.549"/><circle cx="545.079" cy="132.24702" r="5.33219"/><line class="x" x1="545.07924" y1="436.28921" x2="677.59144" y2="396.34048"/><polygon points="677.633 401.536 684.462 394.269 674.755 391.987 677.633 401.536"/><line class="x" x1="545.07924" y1="436.28921" x2="677.59144" y2="476.23819"/><polygon points="674.755 480.591 684.462 478.309 677.633 471.043 674.755 480.591"/><circle cx="545.079" cy="436.28924" r="5.33219"/></svg>