<?xml version="1.0" encoding="utf-8"?>
<!-- Generator: Adobe Illustrator 24.1.0, SVG Export Plug-In . SVG Version: 6.00 Build 0)  -->
<svg version="1.1" id="Layer_1" xmlns="http://www.w3.org/2000/svg" xmlns:xlink="http://www.w3.org/1999/xlink" x="0px" y="0px"
	 width="269.77px" height="224.09px" viewBox="0 0 269.77 224.09" enable-background="new 0 0 269.77 224.09" xml:space="preserve">
<g>
	<path d="M222.25,24.22c-4.85,0-8.79,3.94-8.79,8.79c0,2.53,1.08,4.8,2.79,6.41l-12.61,22.15c-0.5-0.09-1-0.14-1.52-0.14
		c-2.07,0-3.97,0.72-5.47,1.92l-6.33-4.41c0.29-0.87,0.45-1.8,0.45-2.77c0-4.85-3.94-8.79-8.79-8.79s-8.79,3.94-8.79,8.79
		c0,1.63,0.45,3.15,1.23,4.46l-8.67,9.34c-1.18-0.59-2.5-0.92-3.9-0.92c-4.85,0-8.79,3.94-8.79,8.79c0,4.85,3.94,8.79,8.79,8.79
		c4.85,0,8.79-3.94,8.79-8.79c0-1.63-0.45-3.15-1.23-4.46l8.67-9.34c1.18,0.59,2.5,0.92,3.9,0.92c2.07,0,3.97-0.72,5.47-1.92
		l6.33,4.41c-0.29,0.87-0.45,1.8-0.45,2.77c0,4.85,3.94,8.79,8.79,8.79s8.79-3.94,8.79-8.79c0-2.53-1.08-4.8-2.79-6.41l12.61-22.15
		c0.5,0.09,1,0.14,1.53,0.14c4.85,0,8.79-3.94,8.79-8.79S227.1,24.22,222.25,24.22z M161.84,81.63c-2.09,0-3.79-1.7-3.79-3.79
		c0-2.09,1.7-3.79,3.79-3.79s3.79,1.7,3.79,3.79C165.63,79.93,163.93,81.63,161.84,81.63z M181.98,59.96c-2.09,0-3.79-1.7-3.79-3.79
		s1.7-3.79,3.79-3.79s3.79,1.7,3.79,3.79S184.07,59.96,181.98,59.96z M202.12,74.01c-2.09,0-3.79-1.7-3.79-3.79s1.7-3.79,3.79-3.79
		s3.79,1.7,3.79,3.79S204.21,74.01,202.12,74.01z M222.25,36.8c-2.09,0-3.79-1.7-3.79-3.79s1.7-3.79,3.79-3.79s3.79,1.7,3.79,3.79
		S224.35,36.8,222.25,36.8z"/>
	<polygon fill="#C6C6C6" points="154.28,42.66 169.61,43.79 168.48,28.47 165.49,28.69 166.19,38.25 151.59,23.66 149.47,25.78 
		164.07,40.38 154.51,39.67 	"/>
	<polygon fill="#C6C6C6" points="246.4,66.95 231.8,52.36 241.36,53.06 241.58,50.07 226.26,48.94 227.39,64.26 230.38,64.04 
		229.68,54.48 244.27,69.07 	"/>
	<g>
		<path d="M248,10.09H136.09c-5.82,0-10.55,4.73-10.55,10.55v69.58c0,5.81,4.73,10.55,10.55,10.55h7.36v19.18l22.94-19.18H248
			c5.82,0,10.55-4.74,10.55-10.55V20.64C258.55,14.82,253.82,10.09,248,10.09z M253.55,90.22c0,3.06-2.49,5.55-5.55,5.55h-83.43
			l-16.12,13.48V95.77h-12.36c-3.06,0-5.55-2.49-5.55-5.55V20.64c0-3.06,2.49-5.55,5.55-5.55H248c3.06,0,5.55,2.49,5.55,5.55V90.22z
			"/>
		<path d="M101.1,130.06c-2.27,0-4.12,1.84-4.12,4.12c0,2.27,1.85,4.11,4.12,4.11s4.12-1.84,4.12-4.11
			C105.22,131.9,103.37,130.06,101.1,130.06z"/>
		<path d="M91.89,124.97l3.53,3.53c3.13-3.13,8.23-3.13,11.36,0l3.53-3.53C105.23,119.89,96.97,119.89,91.89,124.97z"/>
		<path d="M124.04,135.07c-1.74-2.2-2.83-4.95-3.15-7.94c-1.27-11.8-6.88-22.65-15.78-30.55c-0.6-0.54-1.22-1.06-1.83-1.55
			c-0.37-0.3-0.76-0.61-1.19-0.93l-0.32-0.23c-0.44-0.33-0.89-0.65-1.34-0.96c-0.09-0.06-0.17-0.12-0.26-0.17
			c-0.56-0.38-1.13-0.75-1.68-1.09c-0.44-0.27-0.89-0.55-1.27-0.75c-0.26-0.16-0.54-0.31-0.81-0.46l-0.17-0.09
			c-0.35-0.2-0.69-0.38-0.99-0.53c-0.58-0.3-1.17-0.59-1.68-0.82c-0.22-0.11-0.46-0.22-0.69-0.32c-0.13-0.07-0.26-0.12-0.44-0.19
			c-0.38-0.18-0.77-0.34-1.25-0.53l-0.38-0.15c-0.33-0.13-0.66-0.26-0.97-0.36c-1.2-0.45-2.46-0.85-3.86-1.23l-0.11-0.03
			c-0.28-0.08-0.56-0.16-0.8-0.21c-0.41-0.11-0.83-0.2-1.28-0.3l-0.87-0.19c-0.33-0.07-0.66-0.13-0.92-0.18
			c-0.25-0.04-0.5-0.09-0.71-0.12c-0.33-0.05-0.67-0.1-0.92-0.14c-0.63-0.1-1.27-0.17-1.91-0.25l-1.69-0.14
			c-0.28-0.02-0.55-0.04-0.8-0.05l-1.66-0.06c-0.74-0.02-1.57-0.01-2.15,0.01c-0.1,0-0.2,0-0.3,0.01h-0.23
			c-0.72,0.03-1.44,0.08-2.17,0.13c-21.65,1.74-39.35,17.85-43.07,39.18l-0.23,1.36l0.01,0.01c-0.03,0.25-0.07,0.51-0.1,0.76v0.04
			c-0.01,0.01,0,0.02,0,0.02l-0.01,0.02l-0.02,0.28c-0.13,2.14-0.23,15.88-0.27,23.97c-0.03,4.34-0.89,8.56-2.56,12.55
			c-1.67,3.99-4.07,7.57-7.13,10.63c-3.14,3.15-4.87,7.3-4.87,11.71c0,6.71,3.93,12.66,10.05,15.28c-2.22,4-3.48,8.6-3.48,13.5
			H125.4c0-7.71-3.12-14.69-8.18-19.74c-5.02-5.03-11.95-8.14-19.61-8.18v-6.03h15.17c4.62,0,8.39-3.76,8.39-8.39v-21.25l3.09-1.26
			c1.98-0.8,3.42-2.45,3.95-4.51c0.54-2.05,0.1-4.18-1.22-5.85L124.04,135.07z M92.61,186.09H50.57v-15.63
			c3.41-1.73,5.37-3.98,6.45-5.67c0.03,0,0.07,0.01,0.1,0.01l8.94,8.94c4.02,4.02,9.58,6.32,15.27,6.32h11.28V186.09z
			 M123.38,143.39c-0.14,0.52-0.51,0.94-1,1.14l-6.21,2.52v9.43H101.1c1.84,2.71,4,4.83,6.34,6.28c2.35,1.44,4.89,2.2,7.48,2.2h1.25
			v6.71c0,1.87-1.52,3.39-3.39,3.39H81.33c-4.37,0-8.65-1.77-11.74-4.86l-10.35-10.35h-1.03c-3.91,0-7.09-3.18-7.09-7.09
			c0-0.16,0-0.32,0.01-0.48l0.03-0.28c0.01-0.19,0.05-0.38,0.07-0.51c0.02-0.15,0.06-0.3,0.1-0.45l0.07-0.29
			c0.03-0.07,0.06-0.16,0.09-0.26c0.07-0.23,0.16-0.44,0.26-0.66c0.03-0.08,0.07-0.16,0.11-0.23l0.05-0.1
			c0.36-0.7,0.85-1.34,1.5-1.96c0.1-0.1,0.2-0.18,0.38-0.32c0.11-0.1,0.23-0.19,0.38-0.29c0.21-0.14,0.42-0.28,0.68-0.41
			c0.31-0.18,0.66-0.33,1.09-0.48c0.1-0.04,0.22-0.07,0.31-0.1c0.16-0.05,0.32-0.08,0.48-0.12c5.17,9.05,12.46,8.58,12.46,8.58
			c-3.64-7.3-4.65-13.82-4.46-19.17c0.28-7.83,6.88-13.87,14.72-13.97c16.92-0.23,22.02-13.8,23.46-19.9
			c7.32,6.96,11.92,16.24,13.01,26.31c0.42,3.92,1.87,7.56,4.2,10.5l2.95,3.73C123.52,142.48,123.46,143.08,123.38,143.39z"/>
	</g>
</g>
</svg>
