<?xml version="1.0" encoding="utf-8"?>
<!-- Generator: Adobe Illustrator 24.1.0, SVG Export Plug-In . SVG Version: 6.00 Build 0)  -->
<svg version="1.1" id="Layer_1" xmlns="http://www.w3.org/2000/svg" xmlns:xlink="http://www.w3.org/1999/xlink" x="0px" y="0px"
	 width="256.54px" height="268.65px" viewBox="0 0 256.54 268.65" enable-background="new 0 0 256.54 268.65" xml:space="preserve">
<g>
	<rect x="100.94" y="149.78" fill="#C6C6C6" width="77.52" height="15.95"/>
	<path d="M212.21,163.23c-1.38-2.39-4.44-3.21-6.83-1.83l-13.25,7.65v-25.44c0-4.14-3.36-7.5-7.5-7.5h-24.58v-4.67h-8.92
		c-1.18-5.22-5.86-9.12-11.44-9.12c-5.58,0-10.25,3.9-11.43,9.12h-8.93v4.67H94.77c-4.14,0-7.5,3.36-7.5,7.5v108.06
		c0,4.14,3.36,7.5,7.5,7.5h89.87c4.14,0,7.5-3.36,7.5-7.5V180.6l18.25-10.53C212.77,168.68,213.59,165.63,212.21,163.23z
		 M155.12,152.28h20.84v10.95h-20.84V152.28z M124.28,179.19h-20.84v-10.95h20.84V179.19z M103.44,184.19h20.84v10.95h-20.84V184.19
		z M175.96,195.14h-9.01l9.01-5.2V195.14z M148.31,195.14h-19.03v-10.95h20.84v9.12C149.33,193.76,148.74,194.4,148.31,195.14z
		 M150.12,201.97v9.12h-20.84v-10.95h19.01C148.74,200.93,149.38,201.54,150.12,201.97z M150.12,216.09v10.95h-20.84v-10.95H150.12z
		 M103.44,200.14h20.84v10.95h-20.84V200.14z M103.44,216.09h20.84v10.95h-20.84V216.09z M103.44,232.04h20.84v10.95h-20.84V232.04z
		 M129.28,232.04h20.84v10.95h-20.84V232.04z M155.12,232.04h20.84v10.95h-20.84V232.04z M175.96,227.04h-20.84v-10.95h20.84V227.04
		z M175.96,211.09h-20.84v-9.12l3.17-1.83h17.67V211.09z M155.12,190.42v-6.23h10.8L155.12,190.42z M175.96,168.23v10.16l-1.38,0.8
		h-19.46v-10.95H175.96z M129.28,152.28h20.84v10.95h-20.84V152.28z M150.12,168.23v10.95h-20.84v-10.95H150.12z M124.28,152.28
		v10.95h-20.84v-10.95H124.28z M187.13,251.67c0,1.38-1.12,2.5-2.5,2.5H94.77c-1.38,0-2.5-1.12-2.5-2.5V143.61
		c0-1.38,1.12-2.5,2.5-2.5h24.58v6.17h-20.9v100.71h82.52v-60.94l6.17-3.56V251.67z M187.13,171.94l-6.17,3.56v-28.22h-20.9v-6.17
		h24.58c1.38,0,2.5,1.12,2.5,2.5V171.94z"/>
	<path fill="#686868" d="M55.75,48.03l6.05-25.75L81.08,40.4L55.75,48.03z M64.69,31.85l-2.09,8.9l8.75-2.64L64.69,31.85z"/>
	<path fill="#686868" d="M143.9,56.43l-11.46-16.89l16.89-11.46l11.46,16.89L143.9,56.43z M139.38,40.87l5.85,8.62l8.62-5.85
		L148,35.03L139.38,40.87z"/>
	<path fill="#686868" d="M42.44,170.96c-1.93,0-3.85-0.55-5.49-1.59c-1.36-0.86-2.46-2-3.29-3.38c-0.32-0.54-0.6-1.11-0.81-1.7
		c-1.71-4.59,0.11-9.77,4.34-12.3c3.85-2.3,8.68-1.84,12.01,1.14l0.18,0.17c0.7,0.66,1.31,1.4,1.8,2.23l0,0
		c2.88,4.83,1.3,11.11-3.53,14c-0.9,0.54-1.85,0.93-2.85,1.16c-0.42,0.1-0.85,0.17-1.27,0.22
		C43.17,170.94,42.81,170.96,42.44,170.96z M42.44,155.54c-0.92,0-1.84,0.25-2.68,0.74c-2.16,1.29-3.09,3.93-2.21,6.27
		c0.11,0.31,0.25,0.59,0.41,0.87c0.42,0.71,0.98,1.29,1.67,1.72c1,0.63,2.19,0.91,3.37,0.79c0.22-0.02,0.44-0.06,0.66-0.11
		c0.5-0.12,0.99-0.32,1.44-0.59c2.46-1.47,3.27-4.67,1.8-7.14l0,0c-0.25-0.42-0.55-0.8-0.91-1.12l-0.12-0.11
		C44.9,155.98,43.68,155.54,42.44,155.54z"/>
	<path fill="#686868" d="M110.24,103.19l-20.22-2.78l2.78-20.22l20.22,2.78L110.24,103.19z M95.66,96.13l10.32,1.42l1.42-10.32
		l-10.32-1.42L95.66,96.13z"/>
	<path fill="#C6C6C6" d="M79.74,73.31l-2.89,0.81l2.5,8.84c-8.21-5.53-17.98-8.07-27.97-7.17c-11.5,1.03-21.91,6.48-29.31,15.34
		c-7.4,8.86-10.91,20.08-9.88,31.58s6.48,21.91,15.34,29.31l1.92-2.3c-8.25-6.89-13.32-16.58-14.28-27.28
		c-0.96-10.7,2.3-21.14,9.19-29.38c6.89-8.25,16.58-13.32,27.28-14.28c9.51-0.85,18.79,1.63,26.53,7.02l-9.89,1.28l0.38,2.97
		l15.23-1.96L79.74,73.31z"/>
	<path fill="#686868" d="M193.19,65.89c-0.81,0-1.63-0.1-2.45-0.3c-1.01-0.25-1.97-0.65-2.84-1.18c-0.37-0.22-0.72-0.47-1.06-0.74
		c-1.81-1.44-3.08-3.47-3.6-5.73c-0.36-1.56-0.34-3.15,0.05-4.71c0.15-0.62,0.36-1.21,0.62-1.78c2.01-4.47,6.96-6.86,11.74-5.68
		c4.35,1.08,7.46,4.8,7.73,9.26l0.01,0.25c0.04,0.95-0.06,1.91-0.29,2.84l0,0C201.94,62.78,197.77,65.89,193.19,65.89z
		 M193.18,50.47c-2,0-3.88,1.16-4.73,3.05c-0.14,0.3-0.24,0.6-0.32,0.91c-0.2,0.8-0.21,1.6-0.02,2.4c0.26,1.15,0.92,2.19,1.84,2.93
		c0.17,0.14,0.35,0.26,0.54,0.38c0.44,0.27,0.93,0.47,1.45,0.6c2.79,0.69,5.61-1.02,6.3-3.8v0c0.12-0.48,0.17-0.96,0.15-1.43
		l-0.01-0.2c-0.14-2.23-1.72-4.12-3.94-4.67C194.02,50.52,193.6,50.47,193.18,50.47z"/>
	<path fill="#686868" d="M157.29,111.23l-6.39-25.67l25.43,7.3L157.29,111.23z M157.85,92.76l2.21,8.87l6.58-6.34L157.85,92.76z"/>
	<path fill="#686868" d="M233.61,145.64l-17.25-10.92l10.92-17.25l17.25,10.92L233.61,145.64z M223.26,133.18l8.8,5.57l5.57-8.8
		l-8.8-5.57L223.26,133.18z"/>
	<path fill="#C6C6C6" d="M216.74,62.8l8.77-2.72l-0.89-2.87l-14.67,4.55l6.65,13.85l2.7-1.3l-4.31-8.98
		c19.06,7.77,29.41,29.02,23.23,49.07l2.87,0.88C247.66,93.96,236.83,71.35,216.74,62.8z"/>
	<path fill="#C6C6C6" d="M121.97,25.89l15.36,0.02l-2.23-15.2l-2.97,0.44l1.34,9.09c-7.42-6.54-16.79-10.32-26.81-10.72
		c-11.55-0.45-22.57,3.6-31.05,11.43l2.04,2.21c7.9-7.29,18.17-11.07,28.89-10.64c9.53,0.38,18.43,4.04,25.4,10.39l-9.97-0.01
		L121.97,25.89z"/>
</g>
</svg>
