<?xml version="1.0" encoding="utf-8"?>
<!-- Generator: Adobe Illustrator 24.1.0, SVG Export Plug-In . SVG Version: 6.00 Build 0)  -->
<svg version="1.1" id="Layer_1" xmlns="http://www.w3.org/2000/svg" xmlns:xlink="http://www.w3.org/1999/xlink" x="0px" y="0px"
	 width="224px" height="327.46px" viewBox="0 0 224 327.46" enable-background="new 0 0 224 327.46" xml:space="preserve">
<g>
	<path fill="#686868" d="M109.89,43.78L98.42,26.89l16.89-11.46l11.46,16.89L109.89,43.78z M105.37,28.22l5.85,8.62l8.62-5.85
		l-5.85-8.62L105.37,28.22z"/>
	<path fill="#686868" d="M60.75,154.16c-1.93,0-3.85-0.55-5.49-1.59c-1.35-0.86-2.46-2-3.29-3.38c-0.32-0.54-0.59-1.11-0.81-1.7
		c-1.71-4.59,0.11-9.77,4.34-12.3c3.85-2.29,8.68-1.84,12.01,1.14l0.19,0.18c0.69,0.65,1.29,1.39,1.79,2.22v0
		c2.88,4.83,1.3,11.11-3.53,14c-0.89,0.53-1.85,0.92-2.85,1.16c-0.41,0.1-0.84,0.17-1.27,0.22
		C61.48,154.14,61.11,154.16,60.75,154.16z M60.73,138.74c-0.92,0-1.83,0.24-2.67,0.74c-2.16,1.29-3.09,3.93-2.21,6.27
		c0.11,0.31,0.25,0.59,0.41,0.86c0.42,0.71,0.98,1.29,1.67,1.72c1,0.63,2.2,0.92,3.37,0.79c0.22-0.02,0.43-0.06,0.65-0.11
		c0.51-0.12,1-0.32,1.45-0.59c1.19-0.71,2.04-1.85,2.38-3.2c0.34-1.35,0.14-2.75-0.58-3.94l0,0c-0.25-0.42-0.56-0.8-0.91-1.13
		l-0.08-0.07C63.22,139.19,61.98,138.74,60.73,138.74z"/>
	<path fill="#686868" d="M56.4,108.09L39.55,96.56l11.52-16.85l16.85,11.52L56.4,108.09z M46.5,95.26l8.6,5.88l5.88-8.59l-8.6-5.88
		L46.5,95.26z"/>
	<path fill="#686868" d="M166.87,98.4c-0.81,0-1.63-0.1-2.45-0.3c-1.01-0.25-1.97-0.65-2.84-1.18c-0.35-0.21-0.71-0.46-1.06-0.74
		c-1.81-1.44-3.09-3.47-3.6-5.73c-0.36-1.57-0.34-3.15,0.05-4.71c0.15-0.61,0.36-1.21,0.62-1.78c2.02-4.47,6.96-6.86,11.74-5.68
		c4.35,1.08,7.46,4.8,7.73,9.26l0.01,0.25c0.04,0.95-0.06,1.91-0.29,2.84v0C175.63,95.29,171.45,98.4,166.87,98.4z M166.87,82.98
		c-2,0-3.88,1.16-4.73,3.05c-0.14,0.3-0.24,0.6-0.32,0.91c-0.2,0.8-0.21,1.6-0.02,2.4c0.26,1.15,0.92,2.19,1.84,2.93
		c0.17,0.13,0.35,0.26,0.54,0.38c0.45,0.27,0.93,0.47,1.45,0.6c2.79,0.69,5.61-1.02,6.3-3.8l0,0c0.12-0.48,0.17-0.96,0.15-1.44
		l-0.01-0.18c-0.14-2.25-1.72-4.14-3.94-4.69C167.7,83.03,167.28,82.98,166.87,82.98z"/>
	<path fill="#686868" d="M29.12,54.29c-0.82,0-1.65-0.1-2.47-0.3c-1.01-0.25-1.96-0.65-2.84-1.18c-0.37-0.22-0.73-0.47-1.06-0.74
		c-1.8-1.43-3.08-3.47-3.6-5.73c-0.36-1.57-0.34-3.15,0.05-4.71c0.15-0.61,0.36-1.21,0.62-1.78c2.01-4.47,6.96-6.86,11.74-5.68
		c4.35,1.08,7.46,4.8,7.73,9.26l0.01,0.25c0.04,0.96-0.06,1.91-0.29,2.84c-0.66,2.65-2.3,4.88-4.64,6.29
		C32.76,53.79,30.95,54.29,29.12,54.29z M29.09,38.87c-2,0-3.88,1.16-4.73,3.05c-0.14,0.3-0.24,0.6-0.32,0.9
		c-0.2,0.8-0.21,1.6-0.02,2.4c0.26,1.15,0.92,2.19,1.84,2.93c0.17,0.14,0.35,0.26,0.54,0.38c0.44,0.27,0.93,0.47,1.44,0.6
		c2.79,0.69,5.62-1.02,6.31-3.8v0c0.12-0.47,0.17-0.96,0.15-1.44l-0.01-0.16c-0.14-2.27-1.73-4.16-3.94-4.71
		C29.93,38.92,29.51,38.87,29.09,38.87z"/>
	<path fill="#686868" d="M178.62,58.01l-25.32-7.66l19.3-18.1L178.62,58.01z M163.04,48.07l8.74,2.65l-2.08-8.9L163.04,48.07z"/>
	<path fill="#686868" d="M183.43,143.2l-5.13-19.76l19.76-5.13l5.13,19.76L183.43,143.2z M184.4,127.03l2.61,10.08l10.08-2.62
		l-2.61-10.08L184.4,127.03z"/>
	
		<rect x="71.38" y="20.3" transform="matrix(0.8284 -0.5601 0.5601 0.8284 -1.7156 45.1722)" fill="#C6C6C6" width="3" height="10.18"/>
	
		<rect x="12.55" y="76.94" transform="matrix(0.9651 -0.2618 0.2618 0.9651 -19.9208 7.3542)" fill="#C6C6C6" width="10.18" height="3"/>
	
		<rect x="201.11" y="66.39" transform="matrix(0.9651 -0.2618 0.2618 0.9651 -10.5791 56.3713)" fill="#C6C6C6" width="10.35" height="3"/>
	
		<rect x="147.44" y="118.56" transform="matrix(0.9651 -0.2618 0.2618 0.9651 -26.1102 44.1189)" fill="#C6C6C6" width="10.18" height="3"/>
	
		<rect x="28.64" y="123.63" transform="matrix(0.7472 -0.6646 0.6646 0.7472 -74.6335 54.0449)" fill="#C6C6C6" width="10.18" height="3"/>
	
		<rect x="149.88" y="13.55" transform="matrix(0.5266 -0.8501 0.8501 0.5266 60.5634 138.8672)" fill="#C6C6C6" width="10.18" height="3"/>
	
		<rect x="133.3" y="57.38" transform="matrix(0.633 -0.7742 0.7742 0.633 1.1083 127.2797)" fill="#C6C6C6" width="3" height="10.18"/>
	
		<rect x="204.78" y="95.01" transform="matrix(0.633 -0.7742 0.7742 0.633 -1.7878 196.4303)" fill="#C6C6C6" width="3" height="10.18"/>
	
		<rect x="79.12" y="56.95" transform="matrix(0.7025 -0.7116 0.7116 0.7025 -16.6075 77.1772)" fill="#C6C6C6" width="9.79" height="3"/>
	<g>
		<path d="M118.11,125.13h-11v-16.91h5.5c5.25,0,9.52-4.27,9.52-9.52c0-5.25-4.27-9.52-9.52-9.52s-9.52,4.27-9.52,9.52h-11
			c0-11.32,9.21-20.52,20.52-20.52s20.52,9.21,20.52,20.52c0,9.41-6.37,17.37-15.02,19.78V125.13z"/>
	</g>
	<g>
		<rect x="107.11" y="129.79" width="11" height="10.5"/>
	</g>
	<g>
		<path d="M182.2,279.36v-11.27c0-6.72-1.83-13.01-5.03-18.39v-12.8c0-4.94-3.42-9.08-8.01-10.21v-3.57c0-3.59-2.92-6.5-6.5-6.5
			h-2.79c2-2.63,3.19-5.92,3.19-9.48c0-7.05-4.73-13.18-11.32-15.11c0.01-0.12,0.01-0.23,0.01-0.35c0-15.61-9.48-29.82-23.76-35.91
			l-1.62-0.66c-2.77-1.04-5.66-1.76-8.61-2.14c-1.92-0.26-3.88-0.42-5.82-0.33c-5.62,0.09-11,1.33-15.99,3.7
			c-0.56,0.26-1.12,0.54-1.7,0.85c-0.82,0.44-1.64,0.91-2.44,1.41c-0.27,0.17-0.53,0.34-0.76,0.49c-0.52,0.34-1.02,0.7-1.53,1.07
			c-0.5,0.37-1,0.75-1.51,1.16l-0.19,0.16c-0.18,0.14-0.36,0.29-0.52,0.43c-0.76,0.65-1.46,1.29-2.13,1.95
			c-0.42,0.41-0.82,0.83-1.21,1.25c-1.03,1.1-2.02,2.3-2.95,3.57c-0.17,0.22-0.33,0.46-0.5,0.69l-0.07,0.1
			c-0.34,0.49-0.67,1.01-0.97,1.47c-0.17,0.27-0.34,0.54-0.53,0.86c-0.63,1.07-1.22,2.17-1.75,3.3l-0.07,0.15
			c-0.12,0.24-0.24,0.5-0.31,0.68c-0.65,1.47-1.2,2.95-1.63,4.36c-0.11,0.31-0.2,0.63-0.29,0.96c-0.34,1.25-0.62,2.49-0.84,3.7
			c-0.08,0.48-0.15,0.96-0.23,1.45l-0.02,0.2c-0.01,0.07-0.02,0.14-0.03,0.21c-0.04,0.3-0.07,0.59-0.09,0.85
			c-0.04,0.3-0.07,0.58-0.08,0.77c-0.1,1.19-0.14,2.39-0.13,3.6c-6.59,1.92-11.32,8.06-11.32,15.11c0,5.83,3.19,10.93,7.92,13.65
			L67.5,233.9l0,0v0c-14.24,4.83-24.49,18.32-24.49,34.19v41.43c0,4.42,3.59,8,8,8h123.18c2.46,0,4.66-1.11,6.13-2.86
			c2.55-0.88,4.38-3.3,4.38-6.14v-17.53v-2.5v-4.01C184.7,282.4,183.72,280.55,182.2,279.36z M179.7,294h-11.04h-7.45v5h7.45h11.04
			v3.01h-11.04h-7.45v5h7.45h11.04v1.51c0,0.83-0.68,1.5-1.5,1.5h-43.81v-35.05h19.03c2.14,0,4,1.22,4.91,3.01h-9.52v5h12.4h2.72
			h14.27c0.82,0,1.5,0.67,1.5,1.5v1.51h-11.04h-7.45v5h7.45h11.04V294z M76.39,196.5l0.38-0.05c3.19,9.21,9.88,12.69,9.88,12.69
			c-5.57-14.63,0-25.42,0-25.42s16.39,1.03,25.96-15.64c9.57,16.67,25.96,15.64,25.96,15.64s5.57,10.79,0,25.42
			c0,0,6.69-3.48,9.88-12.69l0.37,0.05c5.27,0.73,9.24,5.3,9.24,10.64c0,4.1-2.32,7.68-5.71,9.48h-13.74c-3.58,0-6.5,2.91-6.5,6.5
			v8.86v4.09c-5.3,4.45-12.13,7.05-19.51,7.05c-9.43,0-17.94-4.25-23.55-11.14c-2.87-3.52-4.97-7.73-6.05-12.42l-0.55-2.39l-2.4,0.5
			c-0.66,0.14-1.37,0.21-2.15,0.21c-5.93,0-10.75-4.82-10.75-10.74C67.15,201.8,71.12,197.23,76.39,196.5z M164.16,223.12v3.27v2.72
			v7.71v4.69h5v-1.2v-8.32c1.78,0.91,3.01,2.77,3.01,4.91v6.22v7.32h-35.06v-12.12v-3.67v-2.67v-1.25v-7.61c0-0.83,0.68-1.5,1.5-1.5
			h1.51v0.03v4v3.46h0.99h2.87h1.14v-2.44v-5.02v-0.03h3.02v0.03v1.21v6.25h5v-7.36c0.12-0.03,0.23-0.08,0.34-0.13h2.67v0.03v7.46h5
			v-7.46v-0.03h1.51C163.49,221.62,164.16,222.29,164.16,223.12z M78.63,269.97l55.76-0.01v0.01v2.49v2.5l-55.76,0.01V269.97z"/>
		<path d="M105.22,210.47c0,4.06,3.31,7.37,7.38,7.37s7.38-3.31,7.38-7.37h-5c0,1.31-1.07,2.37-2.38,2.37s-2.38-1.06-2.38-2.37
			v-7.52h-5V210.47z"/>
		<path d="M112.6,227.78c-3.92,0-7.34-2.64-8.32-6.43l-4.84,1.25c1.15,4.44,4.41,7.89,8.55,9.38c1.44,0.52,3,0.8,4.61,0.8
			c1.61,0,3.17-0.28,4.61-0.8c4.14-1.49,7.4-4.94,8.55-9.38l-4.84-1.25C119.94,225.14,116.52,227.78,112.6,227.78z"/>
		<path d="M101.39,200.94c0-2.27-1.84-4.11-4.12-4.11c-2.27,0-4.11,1.84-4.11,4.11c0,2.28,1.84,4.12,4.11,4.12
			C99.55,205.06,101.39,203.22,101.39,200.94z"/>
		<path d="M97.27,192.91c2.15,0,4.16,0.84,5.68,2.36l3.54-3.54c-2.47-2.46-5.74-3.82-9.22-3.82c-3.48,0-6.75,1.36-9.21,3.82
			l3.54,3.54C93.11,193.75,95.13,192.91,97.27,192.91z"/>
		<path d="M127.93,196.83c-2.28,0-4.12,1.84-4.12,4.11c0,2.28,1.84,4.12,4.12,4.12c2.27,0,4.11-1.84,4.11-4.12
			C132.04,198.67,130.2,196.83,127.93,196.83z"/>
		<path d="M127.93,192.91c2.14,0,4.16,0.84,5.67,2.36l3.54-3.54c-2.46-2.46-5.73-3.82-9.21-3.82c-3.48,0-6.76,1.36-9.22,3.82
			l3.54,3.54C123.76,193.75,125.78,192.91,127.93,192.91z"/>
	</g>
</g>
</svg>
