<?xml version="1.0" encoding="utf-8"?>
<!-- Generator: Adobe Illustrator 24.1.0, SVG Export Plug-In . SVG Version: 6.00 Build 0)  -->
<svg version="1.1" id="Layer_1" xmlns="http://www.w3.org/2000/svg" xmlns:xlink="http://www.w3.org/1999/xlink" x="0px" y="0px"
	 width="313.62px" height="268.25px" viewBox="0 0 313.62 268.25" enable-background="new 0 0 313.62 268.25" xml:space="preserve">
<g>
	<g>
		<path fill="#C6C6C6" d="M55.92,131.16v-55h48.01c-0.14,1.32-0.36,2.64-0.7,3.93c-1.25,4.73-4.37,8.02-9.02,9.58
			c-5.68,1.9-13.04,0.69-17.02,6.15c-2.56,3.51-0.14,7.66-1.71,11.36c-2.5,5.93-11.27,3.18-11.91,10.82
			c-0.23,2.71-0.12,5.27-0.05,7.79c0.05,1.8,0.08,3.57-0.04,5.37H55.92z"/>
	</g>
	<g>
		<path d="M113.42,133.66h-60v-60h60V133.66z M58.42,128.66h50v-50h-50V128.66z"/>
	</g>
	<g>
		<path fill="#C6C6C6" d="M233.24,50.85c-2.06,4.12-10.29,4.67-10.64,9.56c-0.08,1.06,0.36,2.08,0.7,3.09
			c0.02,0.07,0.05,0.14,0.06,0.21h-30.82V31.23c2.52-1.22,5.22-1.76,7.85-0.98c3.9,1.14,6.12,4.8,9.31,7.02
			c3.76,2.59,7.66,2.11,11.74,0.44c4.17-1.7,9.43,0.04,11.7,3.95C234.76,44.44,234.66,48.01,233.24,50.85z"/>
	</g>
	<g>
		<path d="M250.04,66.21h-60v-60h60V66.21z M195.04,61.21h50v-50h-50V61.21z"/>
	</g>
	<g>
		<polygon fill="#686868" points="73.92,56.99 73.92,27.05 68.92,27.05 68.92,56.99 64.42,51.76 60.63,55.03 71.42,67.54 
			82.21,55.03 78.43,51.76 		"/>
		<polygon fill="#686868" points="171.91,40.01 168.64,43.79 173.86,48.3 143.92,48.3 143.92,53.3 173.86,53.3 168.64,57.81 
			171.91,61.59 184.41,50.8 		"/>
	</g>
	<g>
		<path fill="#C6C6C6" d="M80.31,227.19H53.43l9.17-15.89c2.57,2.01,4.24,5.31,7.28,6.57c1.29,0.54,2.72,0.65,4.03,1.13
			c2.17,0.79,3.76,2.22,4.85,3.99C79.52,224.25,80.03,225.68,80.31,227.19z"/>
	</g>
	<g>
		<path fill="#C6C6C6" d="M104.68,205.97c-4.83,3.66-14.44,6.33-17.63-0.77c-0.83-1.87-0.71-4.18,0.39-5.92
			c1.1-1.75,3.31-2.43,4.23-4.37c1.01-2.16,0.09-4.72,1.9-6.62c0.19-0.2,0.39-0.37,0.61-0.52L104.68,205.97z"/>
	</g>
	<g>
		<path d="M121.26,229.69H49.1l36.08-62.5L121.26,229.69z M57.76,224.69h54.84l-27.42-47.5L57.76,224.69z"/>
	</g>
	<polygon fill="#686868" points="35.49,208.45 32.22,212.24 37.45,216.75 7.51,216.75 7.51,221.75 37.45,221.75 32.22,226.25 
		35.49,230.04 48,219.25 	"/>
	<polygon fill="#686868" points="115.94,186.91 137.11,165.74 133.57,162.2 112.4,183.37 112.91,176.49 107.92,176.12 106.71,192.6 
		123.18,191.39 122.82,186.4 	"/>
	<g>
		<path fill="#C6C6C6" d="M213.89,128.78c0,14.92-11.87,27.05-26.68,27.48c1.33-1.94,3.09-3.79,4.69-5.36
			c2.13-2.09,4.1-4.68,4.19-7.66c0.17-5.37-4.78-8.51-3.39-14.25c1.04-4.3,4.46-7.64,6.23-11.62c1.39-3.14,1.49-6.73,0.81-10.09
			c-0.08-0.38-0.26-0.88-0.5-1.48c-0.21-0.51-0.46-1.09-0.73-1.71C207.62,108.56,213.89,117.94,213.89,128.78z"/>
	</g>
	<g>
		<path d="M186.39,158.78c-16.54,0-30-13.46-30-30s13.46-30,30-30c4.64,0,9.08,1.03,13.22,3.07c10.35,5.08,16.78,15.4,16.78,26.93
			c0,16.32-12.76,29.48-29.06,29.98C187.02,158.78,186.7,158.78,186.39,158.78z M186.39,103.78c-13.79,0-25,11.21-25,25
			s11.21,25,25,25c0.21,0,0.43,0,0.64-0.01l0.11-0.01c13.6-0.39,24.25-11.37,24.25-24.98c0-9.61-5.36-18.21-13.98-22.45
			C193.96,104.64,190.26,103.78,186.39,103.78z"/>
	</g>
	<polygon fill="#686868" points="262.45,126.28 232.51,126.28 237.73,121.77 234.47,117.99 221.96,128.78 234.47,139.57 
		237.73,135.79 232.51,131.28 262.45,131.28 	"/>
	<g>
		<path fill="#C6C6C6" d="M278.11,207.16c0,15.19-12.31,27.5-27.5,27.5c-2.85,0-5.6-0.43-8.18-1.24c-1.12-0.35-2.21-0.77-3.26-1.25
			c1.28-1.38,2.84-2.49,4.62-3.14c2.08-0.76,4.36-0.87,6.49-1.46c2.85-0.78,4.75-2.7,5.26-5.62c0.9-5.14-2.17-13.51,5.73-14.23
			c3.39-0.3,6.98,1.98,10.1-0.22c2.73-1.93,3.74-5.65,5.33-8.42c0.04-0.07,0.08-0.14,0.13-0.21c0.07,0.23,0.14,0.46,0.21,0.7
			C277.74,201.98,278.11,204.53,278.11,207.16z"/>
	</g>
	<g>
		<path fill="#C6C6C6" d="M241.62,214.45c-1.16,2.96-4.36,4.98-7.53,4.75c-1.69-0.12-3.33-0.81-5.02-0.68
			c-1.08,0.08-2.06,0.49-3.03,0.99c-1.87-3.71-2.93-7.9-2.93-12.35c0-1.71,0.16-3.39,0.47-5.01c4.52-1.55,9.66-0.81,14.17,2.36
			C240.93,206.75,243.15,210.53,241.62,214.45z"/>
	</g>
	<g>
		<path d="M250.61,237.16c-3.06,0-6.06-0.46-8.93-1.35c-1.2-0.38-2.4-0.83-3.55-1.36c-6.17-2.83-11.26-7.73-14.32-13.81
			c-2.12-4.21-3.2-8.74-3.2-13.48c0-1.85,0.17-3.7,0.51-5.48c2.6-14.2,15-24.52,29.49-24.52c13.17,0,24.67,8.42,28.6,20.96
			c0.08,0.26,0.15,0.5,0.22,0.75c0.78,2.67,1.17,5.46,1.17,8.29C280.61,223.7,267.15,237.16,250.61,237.16z M250.61,182.16
			c-12.07,0-22.41,8.6-24.57,20.44c-0.29,1.5-0.43,3.02-0.43,4.56c0,3.94,0.9,7.72,2.66,11.22c2.56,5.07,6.8,9.16,11.94,11.51
			c0.96,0.44,1.96,0.82,2.97,1.14c2.38,0.75,4.88,1.13,7.43,1.13c13.79,0,25-11.21,25-25c0-2.36-0.33-4.68-0.97-6.89l-0.2-0.66
			C271.17,189.18,261.59,182.16,250.61,182.16z"/>
	</g>
	<polygon fill="#686868" points="202.81,196.37 199.54,200.15 204.77,204.66 174.83,204.66 174.83,209.66 204.77,209.66 
		199.54,214.17 202.81,217.95 215.32,207.16 	"/>
	<polygon fill="#686868" points="306.11,258.51 284.94,237.34 291.82,237.85 292.19,232.86 275.71,231.65 276.93,248.12 
		281.91,247.75 281.41,240.87 302.58,262.04 	"/>
	<g>
		<path d="M250.61,237.16c-3.06,0-6.06-0.46-8.93-1.35c-1.2-0.38-2.4-0.83-3.55-1.36c-6.17-2.83-11.26-7.73-14.32-13.81
			c-2.12-4.21-3.2-8.74-3.2-13.48c0-1.85,0.17-3.7,0.51-5.48c2.6-14.2,15-24.52,29.49-24.52c13.17,0,24.67,8.42,28.6,20.96
			c0.08,0.26,0.15,0.5,0.22,0.75c0.78,2.67,1.17,5.46,1.17,8.29C280.61,223.7,267.15,237.16,250.61,237.16z M250.61,182.16
			c-12.07,0-22.41,8.6-24.57,20.44c-0.29,1.5-0.43,3.02-0.43,4.56c0,3.94,0.9,7.72,2.66,11.22c2.56,5.07,6.8,9.16,11.94,11.51
			c0.96,0.44,1.96,0.82,2.97,1.14c2.38,0.75,4.88,1.13,7.43,1.13c13.79,0,25-11.21,25-25c0-2.36-0.33-4.68-0.97-6.89l-0.2-0.66
			C271.17,189.18,261.59,182.16,250.61,182.16z"/>
	</g>
</g>
</svg>
