<?xml version="1.0" encoding="utf-8"?>
<!-- Generator: Adobe Illustrator 24.1.0, SVG Export Plug-In . SVG Version: 6.00 Build 0)  -->
<svg version="1.1" id="Layer_1" xmlns="http://www.w3.org/2000/svg" xmlns:xlink="http://www.w3.org/1999/xlink" x="0px" y="0px"
	 width="265.2px" height="266.62px" viewBox="0 0 265.2 266.62" enable-background="new 0 0 265.2 266.62" xml:space="preserve">
<g>
	<path d="M169.8,135.98l-56.16-21.12l21.12-56.16l56.16,21.12L169.8,135.98z M120.09,111.94l46.8,17.6l17.6-46.8l-46.8-17.6
		L120.09,111.94z"/>
	<path d="M183.24,224.81c-3.46,0-6.98-0.6-10.43-1.87c-0.29-0.1-0.59-0.21-0.88-0.33c-15.35-6.17-22.82-23.68-16.65-39.03
		c6.17-15.35,23.68-22.81,39.03-16.64c4.3,1.73,8.04,4.35,11.12,7.78c7.71,8.57,9.82,20.54,5.52,31.25l0,0
		C206.24,217.7,195.13,224.81,183.24,224.81z M183.15,169.78c-9.91,0-19.31,5.93-23.23,15.67c-5.14,12.79,1.08,27.38,13.87,32.52
		c0.2,0.08,0.4,0.16,0.59,0.22l0.11,0.04c12.76,4.71,26.74-1.5,31.82-14.13c3.59-8.92,1.83-18.9-4.6-26.04
		c-2.57-2.86-5.68-5.04-9.27-6.48C189.4,170.36,186.25,169.78,183.15,169.78z"/>
	<polygon fill="#686868" points="187.19,35.16 182.68,40.38 182.68,10.44 177.68,10.44 177.68,40.38 173.18,35.16 169.39,38.42 
		180.18,50.93 190.98,38.42 	"/>
	<polygon fill="#686868" points="34.54,152.97 31.28,156.75 36.5,161.26 6.56,161.26 6.56,166.26 36.5,166.26 31.28,170.77 
		34.54,174.55 47.05,163.76 	"/>
	<polygon fill="#686868" points="239.28,126.47 209.34,126.47 214.56,121.96 211.3,118.17 198.79,128.97 211.3,139.76 
		214.56,135.97 209.34,131.47 239.28,131.47 	"/>
	<polygon fill="#686868" points="88.26,63.88 104.73,65.09 103.52,48.62 98.53,48.99 99.04,55.87 77.87,34.7 74.34,38.23 95.5,59.4 
		88.62,58.89 	"/>
	<polygon fill="#686868" points="258.64,252.65 237.47,231.48 244.35,231.98 244.72,227 228.24,225.78 229.46,242.26 234.44,241.89 
		233.94,235.01 255.11,256.18 	"/>
	<polygon fill="#686868" points="119.66,217.11 108.86,204.6 98.07,217.11 101.86,220.38 106.36,215.16 106.36,245.09 
		111.36,245.09 111.36,215.16 115.87,220.38 	"/>
	
		<rect x="112.82" y="71.18" transform="matrix(0.3522 -0.9359 0.9359 0.3522 9.5613 159.1816)" fill="#686868" width="13.92" height="3"/>
	
		<rect x="176.84" y="122.73" transform="matrix(0.3522 -0.9359 0.9359 0.3522 2.8187 252.5267)" fill="#686868" width="14" height="3"/>
	
		<rect x="177.33" y="60.15" transform="matrix(0.352 -0.936 0.936 0.352 53.0431 210.8947)" fill="#686868" width="3" height="13.98"/>
	
		<rect x="106.65" y="68.55" transform="matrix(0.3522 -0.9359 0.9359 0.3522 7.778 151.3472)" fill="#686868" width="13.15" height="3"/>
	
		<rect x="182.93" y="125.02" transform="matrix(0.3522 -0.9359 0.9359 0.3522 4.5904 259.6783)" fill="#686868" width="13.92" height="3"/>
	
		<rect x="179.59" y="53.84" transform="matrix(0.352 -0.936 0.936 0.352 60.187 209.0842)" fill="#686868" width="3" height="14.48"/>
	<path fill="#686868" d="M211.9,222.63l-2.16-2.09c3.2-3.31,5.7-7.17,7.43-11.48l2.78,1.12
		C218.08,214.86,215.37,219.04,211.9,222.63z"/>
	<path fill="#686868" d="M215.72,227.95l-2.1-2.14c4.42-4.34,7.84-9.48,10.17-15.28l2.78,1.12
		C224.08,217.84,220.43,223.32,215.72,227.95z"/>
	<path d="M78.19,203.03l-13.34-70.92l68.09,23.9L78.19,203.03z M71.36,139.69l10.14,53.9l41.6-35.74L71.36,139.69z"/>
	
		<rect x="101.56" y="185.27" transform="matrix(0.7585 -0.6517 0.6517 0.7585 -95.4947 115.8696)" fill="#686868" width="14.03" height="3"/>
	
		<rect x="61.48" y="153.37" transform="matrix(0.9828 -0.1849 0.1849 0.9828 -28.686 14.4206)" fill="#686868" width="3" height="15.3"/>
	
		<rect x="105.71" y="190.1" transform="matrix(0.7585 -0.6517 0.6517 0.7585 -97.6596 119.6922)" fill="#686868" width="13.88" height="3"/>
	
		<rect x="55.22" y="154.65" transform="matrix(0.9828 -0.1849 0.1849 0.9828 -29.0016 13.2826)" fill="#686868" width="3" height="15.01"/>
</g>
</svg>
