<?xml version="1.0" encoding="utf-8"?>
<!-- Generator: Adobe Illustrator 24.1.0, SVG Export Plug-In . SVG Version: 6.00 Build 0)  -->
<svg version="1.1" id="Layer_1" xmlns="http://www.w3.org/2000/svg" xmlns:xlink="http://www.w3.org/1999/xlink" x="0px" y="0px"
	 width="220.82px" height="222px" viewBox="0 0 220.82 222" enable-background="new 0 0 220.82 222" xml:space="preserve">
<g>
	<path fill="#C6C6C6" d="M153.56,41.42c0,6.12-4.87,11.09-10.94,11.27c-0.11,0.01-0.23,0.01-0.34,0.01
		c-6.23,0-11.27-5.05-11.27-11.27s5.05-11.27,11.27-11.27c1.78,0,3.47,0.41,4.97,1.15C150.99,33.14,153.56,36.98,153.56,41.42z"/>
	<rect x="131.01" y="99.73" fill="#C6C6C6" width="22.55" height="22.55"/>
	<path fill="#C6C6C6" d="M67.26,111c0,6.12,4.87,11.09,10.94,11.27c0.11,0.01,0.23,0.01,0.34,0.01c6.23,0,11.27-5.05,11.27-11.27
		s-5.05-11.27-11.27-11.27c-1.78,0-3.47,0.41-4.97,1.15C69.83,102.71,67.26,106.56,67.26,111z"/>
	<rect x="67.26" y="169.3" fill="#C6C6C6" width="22.55" height="22.55"/>
	<path fill="#C6C6C6" d="M153.56,180.58c0,6.12-4.87,11.09-10.94,11.27c-0.11,0.01-0.23,0.01-0.34,0.01
		c-6.23,0-11.27-5.05-11.27-11.27s5.05-11.27,11.27-11.27c1.78,0,3.47,0.41,4.97,1.15C150.99,172.29,153.56,176.13,153.56,180.58z"
		/>
	<polygon fill="#C6C6C6" points="91.55,52.7 65.52,52.7 78.53,30.15 	"/>
	<path d="M95.88,55.2H61.19l17.35-30.05L95.88,55.2z M69.85,50.2h17.37l-8.69-15.05L69.85,50.2z"/>
	<path d="M142.29,55.2c-7.59,0-13.77-6.18-13.77-13.77s6.18-13.77,13.77-13.77c2.13,0,4.17,0.47,6.07,1.41
		c4.75,2.33,7.7,7.07,7.7,12.36c0,7.49-5.85,13.52-13.32,13.76C142.59,55.2,142.44,55.2,142.29,55.2z M142.29,32.65
		c-4.84,0-8.77,3.94-8.77,8.77s3.94,8.77,8.77,8.77l0.26-0.01c4.77-0.14,8.51-3.99,8.51-8.77c0-3.37-1.88-6.39-4.91-7.88
		C144.94,32.95,143.64,32.65,142.29,32.65z"/>
	<polygon points="119.68,39.92 111.91,39.92 111.91,32.15 108.91,32.15 108.91,39.92 101.14,39.92 101.14,42.92 108.91,42.92 
		108.91,50.7 111.91,50.7 111.91,42.92 119.68,42.92 	"/>
	<path d="M156.06,124.77h-27.55V97.23h27.55V124.77z M133.51,119.77h17.55v-17.55h-17.55V119.77z"/>
	<path d="M78.53,124.77c-0.15,0-0.3,0-0.45-0.01c-7.47-0.24-13.32-6.28-13.32-13.76c0-5.3,2.95-10.04,7.71-12.37
		c1.9-0.93,3.94-1.41,6.07-1.41c7.59,0,13.77,6.18,13.77,13.77S86.13,124.77,78.53,124.77z M78.53,102.23c-1.36,0-2.66,0.3-3.86,0.9
		c-3.03,1.49-4.91,4.5-4.91,7.88c0,4.78,3.74,8.63,8.51,8.77l0.26,0.01c4.84,0,8.77-3.94,8.77-8.77S83.37,102.23,78.53,102.23z"/>
	<rect x="101.14" y="109.5" width="18.55" height="3"/>
	<path d="M167.95,210.85H52.87c-3.58,0-6.5-2.92-6.5-6.5v-47.54c0-3.58,2.92-6.5,6.5-6.5h115.08c3.58,0,6.5,2.92,6.5,6.5v47.54
		C174.45,207.93,171.53,210.85,167.95,210.85z M52.87,155.31c-0.83,0-1.5,0.67-1.5,1.5v47.54c0,0.83,0.67,1.5,1.5,1.5h115.08
		c0.83,0,1.5-0.67,1.5-1.5v-47.54c0-0.83-0.67-1.5-1.5-1.5H52.87z"/>
	<path d="M92.31,194.35H64.76v-27.55h27.55V194.35z M69.76,189.35h17.55v-17.55H69.76V189.35z"/>
	<path d="M142.29,194.35c-7.59,0-13.77-6.18-13.77-13.77s6.18-13.77,13.77-13.77c2.13,0,4.17,0.47,6.07,1.41
		c4.75,2.33,7.7,7.07,7.7,12.37c0,7.48-5.84,13.52-13.31,13.76C142.59,194.35,142.44,194.35,142.29,194.35z M142.29,171.81
		c-4.84,0-8.77,3.94-8.77,8.77s3.94,8.77,8.77,8.77l0.26-0.01c4.77-0.14,8.51-3.99,8.51-8.77c0-3.37-1.88-6.39-4.91-7.88
		C144.95,172.11,143.64,171.81,142.29,171.81z"/>
	<polygon points="118.03,175.08 115.91,172.96 110.41,178.46 104.91,172.96 102.79,175.08 108.29,180.58 102.79,186.07 
		104.91,188.2 110.41,182.7 115.91,188.2 118.03,186.07 112.53,180.58 	"/>
	<g>
		<path d="M167.95,80.73H52.87c-3.58,0-6.5,2.92-6.5,6.5v21.27H10.66v74.58h22.66l-5.22,4.51l3.27,3.79l12.51-10.79l-12.51-10.79
			l-3.27,3.79l5.22,4.51H15.66V113.5h30.71v21.27c0,3.58,2.92,6.5,6.5,6.5h115.08c3.58,0,6.5-2.92,6.5-6.5V87.23
			C174.45,83.65,171.53,80.73,167.95,80.73z M169.45,134.77c0,0.83-0.67,1.5-1.5,1.5H52.87c-0.83,0-1.5-0.67-1.5-1.5V87.23
			c0-0.83,0.67-1.5,1.5-1.5h115.08c0.83,0,1.5,0.67,1.5,1.5V134.77z"/>
		<path d="M210.17,38.92h-35.72V17.65c0-3.58-2.92-6.5-6.5-6.5H52.87c-3.58,0-6.5,2.92-6.5,6.5V65.2c0,3.58,2.92,6.5,6.5,6.5h115.08
			c3.58,0,6.5-2.92,6.5-6.5V43.92h30.72v64.58H187.5l5.22-4.51l-3.27-3.79L176.95,111l12.51,10.79l3.27-3.79l-5.22-4.51h22.66V38.92
			z M169.45,65.2c0,0.83-0.67,1.5-1.5,1.5H52.87c-0.83,0-1.5-0.67-1.5-1.5V17.65c0-0.83,0.67-1.5,1.5-1.5h115.08
			c0.83,0,1.5,0.67,1.5,1.5V65.2z"/>
	</g>
</g>
</svg>
