<?xml version="1.0" encoding="utf-8"?>
<!-- Generator: Adobe Illustrator 24.1.0, SVG Export Plug-In . SVG Version: 6.00 Build 0)  -->
<svg version="1.1" id="Layer_1" xmlns="http://www.w3.org/2000/svg" xmlns:xlink="http://www.w3.org/1999/xlink" x="0px" y="0px"
	 width="310.82px" height="111.61px" viewBox="0 0 310.82 111.61" enable-background="new 0 0 310.82 111.61" xml:space="preserve">
<g>
	<rect x="15.6" y="14.92" fill="#C6C6C6" width="103.36" height="17.95"/>
	<path d="M114.96,12.42H19.6c-3.58,0-6.5,2.92-6.5,6.5v73.76c0,3.58,2.92,6.5,6.5,6.5h95.36c3.58,0,6.5-2.92,6.5-6.5V18.92
		C121.46,15.34,118.54,12.42,114.96,12.42z M116.46,18.92v11.45H95.62V17.42h19.34C115.79,17.42,116.46,18.1,116.46,18.92z
		 M69.78,51.33h20.84v10.95H69.78V51.33z M64.78,62.28H43.94V51.33h20.84V62.28z M69.78,46.33V35.38h20.84v10.95H69.78z
		 M69.78,30.38V17.42h20.84v12.95H69.78z M64.78,30.38H43.94V17.42h20.84V30.38z M64.78,35.38v10.95H43.94V35.38H64.78z
		 M38.94,46.33H18.1V35.38h20.84V46.33z M38.94,51.33v10.95H18.1V51.33H38.94z M38.94,67.28v10.95H18.1V67.28H38.94z M43.94,67.28
		h20.84v10.95H43.94V67.28z M64.78,83.23v10.95H43.94V83.23H64.78z M69.78,83.23h20.84v10.95H69.78V83.23z M69.78,78.23V67.28h20.84
		v10.95H69.78z M95.62,67.28h20.84v10.95H95.62V67.28z M95.62,62.28V51.33h20.84v10.95H95.62z M95.62,46.33V35.38h20.84v10.95H95.62
		z M19.6,17.42h19.34v12.95H18.1V18.92C18.1,18.1,18.78,17.42,19.6,17.42z M18.1,92.68v-9.45h20.84v10.95H19.6
		C18.78,94.18,18.1,93.51,18.1,92.68z M114.96,94.18H95.62V83.23h20.84v9.45C116.46,93.51,115.79,94.18,114.96,94.18z"/>
	<path d="M286.25,12.46c-6.32,0-11.46,5.14-11.46,11.46c0,3.59,1.66,6.8,4.26,8.9L260.3,65.77c-0.87-0.21-1.77-0.34-2.71-0.34
		c-2.98,0-5.68,1.15-7.72,3.02l-10.35-7.21c0.55-1.34,0.86-2.81,0.86-4.35c0-6.32-5.14-11.46-11.46-11.46s-11.46,5.14-11.46,11.46
		c0,2.4,0.75,4.63,2.02,6.48l-13.45,14.48c-1.7-1-3.67-1.58-5.77-1.58c-6.32,0-11.46,5.14-11.46,11.46s5.14,11.46,11.46,11.46
		s11.46-5.14,11.46-11.46c0-2.4-0.75-4.63-2.02-6.48l13.45-14.48c1.7,1,3.67,1.58,5.77,1.58c2.98,0,5.68-1.15,7.72-3.02l10.35,7.22
		c-0.55,1.34-0.86,2.81-0.86,4.35c0,6.32,5.14,11.46,11.46,11.46s11.46-5.14,11.46-11.46c0-3.59-1.66-6.8-4.26-8.9l18.75-32.95
		c0.87,0.21,1.78,0.34,2.71,0.34c6.32,0,11.46-5.14,11.46-11.46S292.57,12.46,286.25,12.46z M200.25,94.18
		c-3.56,0-6.46-2.9-6.46-6.46s2.9-6.46,6.46-6.46s6.46,2.9,6.46,6.46S203.82,94.18,200.25,94.18z M228.92,63.34
		c-3.56,0-6.46-2.9-6.46-6.46s2.9-6.46,6.46-6.46s6.46,2.9,6.46,6.46S232.48,63.34,228.92,63.34z M257.59,83.34
		c-3.56,0-6.46-2.9-6.46-6.46s2.9-6.46,6.46-6.46s6.46,2.9,6.46,6.46S261.15,83.34,257.59,83.34z M286.25,30.38
		c-3.56,0-6.46-2.9-6.46-6.46s2.9-6.46,6.46-6.46s6.46,2.9,6.46,6.46S289.81,30.38,286.25,30.38z"/>
	<polygon fill="#686868" points="170.11,45.01 166.84,48.8 172.06,53.3 142.12,53.3 142.12,58.3 172.06,58.3 166.84,62.81 
		170.11,66.6 182.61,55.8 	"/>
</g>
</svg>
